<svg version="1.1" preserveAspectRatio="none" xmlns="http://www.w3.org/2000/svg" width="500" height="500" viewBox="0 0 500 500"><rect width="100%" height="100%" fill="#242424" fill-opacity="1"/><svg viewBox="25.078 27.3578 489.9948 341.2364" width="417" height="290.4022222276645" x="41.5px" y="104.7989px" xmlns="http://www.w3.org/2000/svg" xmlns:xlink="http://www.w3.org/1999/xlink" preserveAspectRatio="none"><defs></defs><style>.aa3HaWBpKa50filter-floo {flood-color:#F55139;flood-opacity:0.5;}.aa7IyiasrVt0filter-floo {flood-color:#F1F1F1;flood-opacity:0.91;}.aqBABiEgxo0filter-floo {flood-color:#58DD94;flood-opacity:0.5;}.background {fill:#242424;fill-opacity:1;}.icon1 {fill:#58DD94;fill-opacity:1;}.icon3 {fill:#FFB5FD;fill-opacity:1;}.icon3-str {stroke:#FFB5FD;stroke-opacity:1;}.text {fill:#F1F1F1;fill-opacity:1;}</style><defs>
      <filter
        x="25.078"
        y="49.161"
        width="458.1831"
        height="319.4332"
        id="a3HaWBpKa5"
        filterUnits="userSpaceOnUse"
        primitiveUnits="userSpaceOnUse"
        color-interpolation-filters="sRGB">
        
    <feGaussianBlur in="SourceGraphic" stdDeviation="8"/>
    <feOffset dx="-10.901630175571183" dy="10.901630175571183" result="EC5eDeurCEG"/>
    <feFlood flood-color="#F55139" flood-opacity="0.5" in="EC5eDeurCEG" />
    <feComposite  in2="EC5eDeurCEG" operator="in" result="SQ49J2Kd0Fs"/><feMerge result="IdPqiKxPb-M"><feMergeNode in="SQ49J2Kd0Fs" /><feMergeNode in="SourceGraphic" /></feMerge><feGaussianBlur  result="MjhZE47mgpo" stdDeviation="10" />
      </filter>
      <filter
        x="56.8812"
        y="27.3578"
        width="458.1916"
        height="319.4331"
        id="qBABiEgxo"
        filterUnits="userSpaceOnUse"
        primitiveUnits="userSpaceOnUse"
        color-interpolation-filters="sRGB">
        
    <feGaussianBlur in="SourceGraphic" stdDeviation="10"/>
    <feOffset dx="10.901630175571183" dy="-10.901630175571183" result="bhtn8-VTNr1"/>
    <feFlood flood-color="#58DD94" flood-opacity="0.5" in="bhtn8-VTNr1" />
    <feComposite  in2="bhtn8-VTNr1" operator="in" result="emSVOF6oYzi"/><feMerge result="hSXl7MwDXDv"><feMergeNode in="emSVOF6oYzi" /><feMergeNode in="SourceGraphic" /></feMerge><feGaussianBlur  result="wgXyjy7yCXu" stdDeviation="8" />
      </filter>
      <filter
        x="75.3457"
        y="71.2594"
        width="392.1815"
        height="253.4331"
        id="a7IyiasrVt"
        filterUnits="userSpaceOnUse"
        primitiveUnits="userSpaceOnUse"
        color-interpolation-filters="sRGB">
        
    <feGaussianBlur in="SourceGraphic" stdDeviation="7"/>
    <feOffset dx="-3.6338767251903943" dy="0" result="gzem98yYvST"/>
    <feFlood flood-color="#F1F1F1" flood-opacity="0.91" in="gzem98yYvST" />
    <feComposite  in2="gzem98yYvST" operator="in" result="CRdSYRxQMQ6"/><feMerge result="Q-N4kkyhicn"><feMergeNode in="CRdSYRxQMQ6" /><feMergeNode in="SourceGraphic" /></feMerge>
      </filter></defs><g opacity="1" transform="rotate(0 36.6347 333.6925)">
<svg width="476.8813" height="26" x="36.6347" y="333.6925" version="1.1" preserveAspectRatio="none" viewBox="4.2 -30.28 697.64 38.040000000000006">
  <g transform="matrix(1 0 0 1 0 0)" class="text"><path id="id-D-YM9nyY435" d="M23.04-14.52Q25.48-13.84 26.88-12.06Q28.28-10.28 28.28-7.56L28.28-7.56Q28.28-3.92 25.54-1.96Q22.80 0 17.56 0L17.56 0L4.20 0L4.20-28L16.76-28Q21.56-28 24.18-26.08Q26.80-24.16 26.80-20.76L26.80-20.76Q26.80-18.56 25.78-16.96Q24.76-15.36 23.04-14.52L23.04-14.52ZM16.40-24.76L8.20-24.76L8.20-15.80L16.40-15.80Q19.48-15.80 21.14-16.94Q22.80-18.08 22.80-20.28L22.80-20.28Q22.80-22.48 21.14-23.62Q19.48-24.76 16.40-24.76L16.40-24.76ZM17.40-3.24Q20.80-3.24 22.52-4.36Q24.24-5.48 24.24-7.88L24.24-7.88Q24.24-12.56 17.40-12.56L17.40-12.56L8.20-12.56L8.20-3.24L17.40-3.24Z M53.88-10.48Q53.88-10.04 53.80-9.32L53.80-9.32L36.60-9.32Q36.96-6.52 39.06-4.82Q41.16-3.12 44.28-3.12L44.28-3.12Q48.08-3.12 50.40-5.68L50.40-5.68L52.52-3.20Q51.08-1.52 48.94-0.64Q46.80 0.24 44.16 0.24L44.16 0.24Q40.80 0.24 38.20-1.14Q35.60-2.52 34.18-5Q32.76-7.48 32.76-10.60L32.76-10.60Q32.76-13.68 34.14-16.16Q35.52-18.64 37.94-20.02Q40.36-21.40 43.40-21.40L43.40-21.40Q46.44-21.40 48.82-20.02Q51.20-18.64 52.54-16.16Q53.88-13.68 53.88-10.48L53.88-10.48ZM43.40-18.16Q40.64-18.16 38.78-16.48Q36.92-14.80 36.60-12.08L36.60-12.08L50.20-12.08Q49.88-14.76 48.02-16.46Q46.16-18.16 43.40-18.16L43.40-18.16Z M66.08 0.24Q63.48 0.24 61.08-0.46Q58.68-1.16 57.32-2.24L57.32-2.24L58.92-5.28Q60.32-4.28 62.32-3.68Q64.32-3.08 66.36-3.08L66.36-3.08Q71.40-3.08 71.40-5.96L71.40-5.96Q71.40-6.92 70.72-7.48Q70.04-8.04 69.02-8.30Q68-8.56 66.12-8.88L66.12-8.88Q63.56-9.28 61.94-9.80Q60.32-10.32 59.16-11.56Q58-12.80 58-15.04L58-15.04Q58-17.92 60.40-19.66Q62.80-21.40 66.84-21.40L66.84-21.40Q68.96-21.40 71.08-20.88Q73.20-20.36 74.56-19.48L74.56-19.48L72.92-16.44Q70.32-18.12 66.80-18.12L66.80-18.12Q64.36-18.12 63.08-17.32Q61.80-16.52 61.80-15.20L61.80-15.20Q61.80-14.16 62.52-13.56Q63.24-12.96 64.30-12.68Q65.36-12.40 67.28-12.04L67.28-12.04Q69.84-11.60 71.42-11.10Q73-10.60 74.12-9.40Q75.24-8.20 75.24-6.04L75.24-6.04Q75.24-3.16 72.78-1.46Q70.32 0.24 66.08 0.24L66.08 0.24Z M91.56-4L92.76-1.24Q91.92-0.52 90.68-0.14Q89.44 0.24 88.12 0.24L88.12 0.24Q84.92 0.24 83.16-1.48Q81.40-3.20 81.40-6.40L81.40-6.40L81.40-18.04L77.80-18.04L77.80-21.20L81.40-21.20L81.40-25.84L85.24-25.84L85.24-21.20L91.32-21.20L91.32-18.04L85.24-18.04L85.24-6.56Q85.24-4.84 86.10-3.92Q86.96-3 88.56-3L88.56-3Q90.32-3 91.56-4L91.56-4Z M109.76 0L109.76-21.20L113.60-21.20L113.60 0L109.76 0ZM111.68-25.28Q110.56-25.28 109.82-26Q109.08-26.72 109.08-27.76L109.08-27.76Q109.08-28.80 109.82-29.54Q110.56-30.28 111.68-30.28L111.68-30.28Q112.80-30.28 113.54-29.58Q114.28-28.88 114.28-27.84L114.28-27.84Q114.28-26.76 113.54-26.02Q112.80-25.28 111.68-25.28L111.68-25.28Z M133.04-21.40Q137.08-21.40 139.46-19.06Q141.84-16.72 141.84-12.20L141.84-12.20L141.84 0L138 0L138-11.76Q138-14.84 136.52-16.40Q135.04-17.96 132.28-17.96L132.28-17.96Q129.16-17.96 127.36-16.14Q125.56-14.32 125.56-10.92L125.56-10.92L125.56 0L121.72 0L121.72-21.20L125.40-21.20L125.40-18Q126.56-19.64 128.54-20.52Q130.52-21.40 133.04-21.40L133.04-21.40Z M167.40 0.24Q164.80 0.24 162.40-0.46Q160-1.16 158.64-2.24L158.64-2.24L160.24-5.28Q161.64-4.28 163.64-3.68Q165.64-3.08 167.68-3.08L167.68-3.08Q172.72-3.08 172.72-5.96L172.72-5.96Q172.72-6.92 172.04-7.48Q171.36-8.04 170.34-8.30Q169.32-8.56 167.44-8.88L167.44-8.88Q164.88-9.28 163.26-9.80Q161.64-10.32 160.48-11.56Q159.32-12.80 159.32-15.04L159.32-15.04Q159.32-17.92 161.72-19.66Q164.12-21.40 168.16-21.40L168.16-21.40Q170.28-21.40 172.40-20.88Q174.52-20.36 175.88-19.48L175.88-19.48L174.24-16.44Q171.64-18.12 168.12-18.12L168.12-18.12Q165.68-18.12 164.40-17.32Q163.12-16.52 163.12-15.20L163.12-15.20Q163.12-14.16 163.84-13.56Q164.56-12.96 165.62-12.68Q166.68-12.40 168.60-12.04L168.60-12.04Q171.16-11.60 172.74-11.10Q174.32-10.60 175.44-9.40Q176.56-8.20 176.56-6.04L176.56-6.04Q176.56-3.16 174.10-1.46Q171.64 0.24 167.40 0.24L167.40 0.24Z M201.32-10.48Q201.32-10.04 201.24-9.32L201.24-9.32L184.04-9.32Q184.40-6.52 186.50-4.82Q188.60-3.12 191.72-3.12L191.72-3.12Q195.52-3.12 197.84-5.68L197.84-5.68L199.96-3.20Q198.52-1.52 196.38-0.64Q194.24 0.24 191.60 0.24L191.60 0.24Q188.24 0.24 185.64-1.14Q183.04-2.52 181.62-5Q180.20-7.48 180.20-10.60L180.20-10.60Q180.20-13.68 181.58-16.16Q182.96-18.64 185.38-20.02Q187.80-21.40 190.84-21.40L190.84-21.40Q193.88-21.40 196.26-20.02Q198.64-18.64 199.98-16.16Q201.32-13.68 201.32-10.48L201.32-10.48ZM190.84-18.16Q188.08-18.16 186.22-16.48Q184.36-14.80 184.04-12.08L184.04-12.08L197.64-12.08Q197.32-14.76 195.46-16.46Q193.60-18.16 190.84-18.16L190.84-18.16Z M211.12-17.64Q212.12-19.48 214.08-20.44Q216.04-21.40 218.84-21.40L218.84-21.40L218.84-17.68Q218.52-17.72 217.96-17.72L217.96-17.72Q214.84-17.72 213.06-15.86Q211.28-14 211.28-10.56L211.28-10.56L211.28 0L207.44 0L207.44-21.20L211.12-21.20L211.12-17.64Z M240.24-21.20L244.00-21.20L234.72 0L230.80 0L221.52-21.20L225.52-21.20L232.80-4.20L240.24-21.20Z M248.40 0L248.40-21.20L252.24-21.20L252.24 0L248.40 0ZM250.32-25.28Q249.20-25.28 248.46-26Q247.72-26.72 247.72-27.76L247.72-27.76Q247.72-28.80 248.46-29.54Q249.20-30.28 250.32-30.28L250.32-30.28Q251.44-30.28 252.18-29.58Q252.92-28.88 252.92-27.84L252.92-27.84Q252.92-26.76 252.18-26.02Q251.44-25.28 250.32-25.28L250.32-25.28Z M269.60 0.24Q266.36 0.24 263.82-1.16Q261.28-2.56 259.84-5.02Q258.40-7.48 258.40-10.60L258.40-10.60Q258.40-13.72 259.84-16.18Q261.28-18.64 263.82-20.02Q266.36-21.40 269.60-21.40L269.60-21.40Q272.48-21.40 274.74-20.24Q277-19.08 278.24-16.88L278.24-16.88L275.32-15Q274.32-16.52 272.84-17.28Q271.36-18.04 269.56-18.04L269.56-18.04Q267.48-18.04 265.82-17.12Q264.16-16.20 263.22-14.50Q262.28-12.80 262.28-10.60L262.28-10.60Q262.28-8.36 263.22-6.66Q264.16-4.96 265.82-4.04Q267.48-3.12 269.56-3.12L269.56-3.12Q271.36-3.12 272.84-3.88Q274.32-4.64 275.32-6.16L275.32-6.16L278.24-4.32Q277-2.12 274.74-0.94Q272.48 0.24 269.60 0.24L269.60 0.24Z M302.84-10.48Q302.84-10.04 302.76-9.32L302.76-9.32L285.56-9.32Q285.92-6.52 288.02-4.82Q290.12-3.12 293.24-3.12L293.24-3.12Q297.04-3.12 299.36-5.68L299.36-5.68L301.48-3.20Q300.04-1.52 297.90-0.64Q295.76 0.24 293.12 0.24L293.12 0.24Q289.76 0.24 287.16-1.14Q284.56-2.52 283.14-5Q281.72-7.48 281.72-10.60L281.72-10.60Q281.72-13.68 283.10-16.16Q284.48-18.64 286.90-20.02Q289.32-21.40 292.36-21.40L292.36-21.40Q295.40-21.40 297.78-20.02Q300.16-18.64 301.50-16.16Q302.84-13.68 302.84-10.48L302.84-10.48ZM292.36-18.16Q289.60-18.16 287.74-16.48Q285.88-14.80 285.56-12.08L285.56-12.08L299.16-12.08Q298.84-14.76 296.98-16.46Q295.12-18.16 292.36-18.16L292.36-18.16Z M315.04 0.24Q312.44 0.24 310.04-0.46Q307.64-1.16 306.28-2.24L306.28-2.24L307.88-5.28Q309.28-4.28 311.28-3.68Q313.28-3.08 315.32-3.08L315.32-3.08Q320.36-3.08 320.36-5.96L320.36-5.96Q320.36-6.92 319.68-7.48Q319.00-8.04 317.98-8.30Q316.96-8.56 315.08-8.88L315.08-8.88Q312.52-9.28 310.90-9.80Q309.28-10.32 308.12-11.56Q306.96-12.80 306.96-15.04L306.96-15.04Q306.96-17.92 309.36-19.66Q311.76-21.40 315.80-21.40L315.80-21.40Q317.92-21.40 320.04-20.88Q322.16-20.36 323.52-19.48L323.52-19.48L321.88-16.44Q319.28-18.12 315.76-18.12L315.76-18.12Q313.32-18.12 312.04-17.32Q310.76-16.52 310.76-15.20L310.76-15.20Q310.76-14.16 311.48-13.56Q312.20-12.96 313.26-12.68Q314.32-12.40 316.24-12.04L316.24-12.04Q318.80-11.60 320.38-11.10Q321.96-10.60 323.08-9.40Q324.20-8.20 324.20-6.04L324.20-6.04Q324.20-3.16 321.74-1.46Q319.28 0.24 315.04 0.24L315.04 0.24Z M349.08-21.40Q353.48-21.40 355.82-19.24Q358.16-17.08 358.16-12.80L358.16-12.80L358.16 0L354.52 0L354.52-2.80Q353.56-1.32 351.78-0.54Q350.00 0.24 347.56 0.24L347.56 0.24Q344.00 0.24 341.86-1.48Q339.72-3.20 339.72-6L339.72-6Q339.72-8.80 341.76-10.50Q343.80-12.20 348.24-12.20L348.24-12.20L354.32-12.20L354.32-12.96Q354.32-15.44 352.88-16.76Q351.44-18.08 348.64-18.08L348.64-18.08Q346.76-18.08 344.96-17.46Q343.16-16.84 341.92-15.80L341.92-15.80L340.32-18.68Q341.96-20 344.24-20.70Q346.52-21.40 349.08-21.40L349.08-21.40ZM348.20-2.72Q350.40-2.72 352.00-3.70Q353.60-4.68 354.32-6.48L354.32-6.48L354.32-9.44L348.40-9.44Q343.52-9.44 343.52-6.16L343.52-6.16Q343.52-4.56 344.76-3.64Q346.00-2.72 348.20-2.72L348.20-2.72Z M377.40-21.40Q381.44-21.40 383.82-19.06Q386.20-16.72 386.20-12.20L386.20-12.20L386.20 0L382.36 0L382.36-11.76Q382.36-14.84 380.88-16.40Q379.40-17.96 376.64-17.96L376.64-17.96Q373.52-17.96 371.72-16.14Q369.92-14.32 369.92-10.92L369.92-10.92L369.92 0L366.08 0L366.08-21.20L369.76-21.20L369.76-18Q370.92-19.64 372.90-20.52Q374.88-21.40 377.40-21.40L377.40-21.40Z M410.40-29.68L414.24-29.68L414.24 0L410.56 0L410.56-3.36Q409.28-1.60 407.32-0.68Q405.36 0.24 403.00 0.24L403.00 0.24Q399.92 0.24 397.48-1.12Q395.04-2.48 393.66-4.94Q392.28-7.40 392.28-10.60L392.28-10.60Q392.28-13.80 393.66-16.24Q395.04-18.68 397.48-20.04Q399.92-21.40 403.00-21.40L403.00-21.40Q405.28-21.40 407.20-20.54Q409.12-19.68 410.40-18L410.40-18L410.40-29.68ZM403.32-3.12Q405.32-3.12 406.96-4.06Q408.60-5 409.52-6.70Q410.44-8.40 410.44-10.60L410.44-10.60Q410.44-12.80 409.52-14.50Q408.60-16.20 406.96-17.12Q405.32-18.04 403.32-18.04L403.32-18.04Q401.28-18.04 399.66-17.12Q398.04-16.20 397.10-14.50Q396.16-12.80 396.16-10.60L396.16-10.60Q396.16-8.40 397.10-6.70Q398.04-5 399.66-4.06Q401.28-3.12 403.32-3.12L403.32-3.12Z M433.56-21.40Q436.64-21.40 439.08-20.04Q441.52-18.68 442.90-16.24Q444.28-13.80 444.28-10.60L444.28-10.60Q444.28-7.40 442.90-4.94Q441.52-2.48 439.08-1.12Q436.64 0.24 433.56 0.24L433.56 0.24Q431.20 0.24 429.24-0.68Q427.28-1.60 426.00-3.36L426.00-3.36L426.00 0L422.32 0L422.32-29.68L426.16-29.68L426.16-18Q427.44-19.68 429.36-20.54Q431.28-21.40 433.56-21.40L433.56-21.40ZM433.24-3.12Q435.28-3.12 436.90-4.06Q438.52-5 439.46-6.70Q440.40-8.40 440.40-10.60L440.40-10.60Q440.40-12.80 439.46-14.50Q438.52-16.20 436.90-17.12Q435.28-18.04 433.24-18.04L433.24-18.04Q431.24-18.04 429.60-17.12Q427.96-16.20 427.04-14.50Q426.12-12.80 426.12-10.60L426.12-10.60Q426.12-8.40 427.04-6.70Q427.96-5 429.60-4.06Q431.24-3.12 433.24-3.12L433.24-3.12Z M469.56-10.48Q469.56-10.04 469.48-9.32L469.48-9.32L452.28-9.32Q452.64-6.52 454.74-4.82Q456.84-3.12 459.96-3.12L459.96-3.12Q463.76-3.12 466.08-5.68L466.08-5.68L468.20-3.20Q466.76-1.52 464.62-0.64Q462.48 0.24 459.84 0.24L459.84 0.24Q456.48 0.24 453.88-1.14Q451.28-2.52 449.86-5Q448.44-7.48 448.44-10.60L448.44-10.60Q448.44-13.68 449.82-16.16Q451.20-18.64 453.62-20.02Q456.04-21.40 459.08-21.40L459.08-21.40Q462.12-21.40 464.50-20.02Q466.88-18.64 468.22-16.16Q469.56-13.68 469.56-10.48L469.56-10.48ZM459.08-18.16Q456.32-18.16 454.46-16.48Q452.60-14.80 452.28-12.08L452.28-12.08L465.88-12.08Q465.56-14.76 463.70-16.46Q461.84-18.16 459.08-18.16L459.08-18.16Z M481.76 0.24Q479.16 0.24 476.76-0.46Q474.36-1.16 473.00-2.24L473.00-2.24L474.60-5.28Q476.00-4.28 478.00-3.68Q480.00-3.08 482.04-3.08L482.04-3.08Q487.08-3.08 487.08-5.96L487.08-5.96Q487.08-6.92 486.40-7.48Q485.72-8.04 484.70-8.30Q483.68-8.56 481.80-8.88L481.80-8.88Q479.24-9.28 477.62-9.80Q476.00-10.32 474.84-11.56Q473.68-12.80 473.68-15.04L473.68-15.04Q473.68-17.92 476.08-19.66Q478.48-21.40 482.52-21.40L482.52-21.40Q484.64-21.40 486.76-20.88Q488.88-20.36 490.24-19.48L490.24-19.48L488.60-16.44Q486.00-18.12 482.48-18.12L482.48-18.12Q480.04-18.12 478.76-17.32Q477.48-16.52 477.48-15.20L477.48-15.20Q477.48-14.16 478.20-13.56Q478.92-12.96 479.98-12.68Q481.04-12.40 482.96-12.04L482.96-12.04Q485.52-11.60 487.10-11.10Q488.68-10.60 489.80-9.40Q490.92-8.20 490.92-6.04L490.92-6.04Q490.92-3.16 488.46-1.46Q486.00 0.24 481.76 0.24L481.76 0.24Z M507.24-4L508.44-1.24Q507.60-0.52 506.36-0.14Q505.12 0.24 503.80 0.24L503.80 0.24Q500.60 0.24 498.84-1.48Q497.08-3.20 497.08-6.40L497.08-6.40L497.08-18.04L493.48-18.04L493.48-21.20L497.08-21.20L497.08-25.84L500.92-25.84L500.92-21.20L507.00-21.20L507.00-18.04L500.92-18.04L500.92-6.56Q500.92-4.84 501.78-3.92Q502.64-3 504.24-3L504.24-3Q506.00-3 507.24-4L507.24-4Z M541.76-21.20L545.44-21.20L545.44 7.76L541.60 7.76L541.60-3.20Q540.28-1.52 538.38-0.64Q536.48 0.24 534.20 0.24L534.20 0.24Q531.12 0.24 528.68-1.12Q526.24-2.48 524.86-4.94Q523.48-7.40 523.48-10.60L523.48-10.60Q523.48-13.80 524.86-16.24Q526.24-18.68 528.68-20.04Q531.12-21.40 534.20-21.40L534.20-21.40Q536.56-21.40 538.52-20.50Q540.48-19.60 541.76-17.84L541.76-17.84L541.76-21.20ZM534.52-3.12Q536.52-3.12 538.16-4.06Q539.80-5 540.72-6.70Q541.64-8.40 541.64-10.60L541.64-10.60Q541.64-12.80 540.70-14.48Q539.76-16.16 538.14-17.10Q536.52-18.04 534.52-18.04L534.52-18.04Q532.48-18.04 530.86-17.12Q529.24-16.20 528.30-14.50Q527.36-12.80 527.36-10.60L527.36-10.60Q527.36-8.40 528.30-6.70Q529.24-5 530.86-4.06Q532.48-3.12 534.52-3.12L534.52-3.12Z M569.44-21.20L573.28-21.20L573.28 0L569.64 0L569.64-3.20Q568.48-1.56 566.58-0.66Q564.68 0.24 562.44 0.24L562.44 0.24Q558.20 0.24 555.76-2.10Q553.32-4.44 553.32-9L553.32-9L553.32-21.20L557.16-21.20L557.16-9.44Q557.16-6.36 558.64-4.78Q560.12-3.20 562.88-3.20L562.88-3.20Q565.92-3.20 567.68-5.04Q569.44-6.88 569.44-10.24L569.44-10.24L569.44-21.20Z M589.12-21.40Q593.52-21.40 595.86-19.24Q598.20-17.08 598.20-12.80L598.20-12.80L598.20 0L594.56 0L594.56-2.80Q593.60-1.32 591.82-0.54Q590.04 0.24 587.60 0.24L587.60 0.24Q584.04 0.24 581.90-1.48Q579.76-3.20 579.76-6L579.76-6Q579.76-8.80 581.80-10.50Q583.84-12.20 588.28-12.20L588.28-12.20L594.36-12.20L594.36-12.96Q594.36-15.44 592.92-16.76Q591.48-18.08 588.68-18.08L588.68-18.08Q586.80-18.08 585.00-17.46Q583.20-16.84 581.96-15.80L581.96-15.80L580.36-18.68Q582.00-20 584.28-20.70Q586.56-21.40 589.12-21.40L589.12-21.40ZM588.24-2.72Q590.44-2.72 592.04-3.70Q593.64-4.68 594.36-6.48L594.36-6.48L594.36-9.44L588.44-9.44Q583.56-9.44 583.56-6.16L583.56-6.16Q583.56-4.56 584.80-3.64Q586.04-2.72 588.24-2.72L588.24-2.72Z M606.12 0L606.12-29.68L609.96-29.68L609.96 0L606.12 0Z M618.08 0L618.08-21.20L621.92-21.20L621.92 0L618.08 0ZM620.00-25.28Q618.88-25.28 618.14-26Q617.40-26.72 617.40-27.76L617.40-27.76Q617.40-28.80 618.14-29.54Q618.88-30.28 620.00-30.28L620.00-30.28Q621.12-30.28 621.86-29.58Q622.60-28.88 622.60-27.84L622.60-27.84Q622.60-26.76 621.86-26.02Q621.12-25.28 620.00-25.28L620.00-25.28Z M640.76-4L641.96-1.24Q641.12-0.52 639.88-0.14Q638.64 0.24 637.32 0.24L637.32 0.24Q634.12 0.24 632.36-1.48Q630.60-3.20 630.60-6.40L630.60-6.40L630.60-18.04L627.00-18.04L627.00-21.20L630.60-21.20L630.60-25.84L634.44-25.84L634.44-21.20L640.52-21.20L640.52-18.04L634.44-18.04L634.44-6.56Q634.44-4.84 635.30-3.92Q636.16-3 637.76-3L637.76-3Q639.52-3 640.76-4L640.76-4Z M647.40 0L647.40-21.20L651.24-21.20L651.24 0L647.40 0ZM649.32-25.28Q648.20-25.28 647.46-26Q646.72-26.72 646.72-27.76L646.72-27.76Q646.72-28.80 647.46-29.54Q648.20-30.28 649.32-30.28L649.32-30.28Q650.44-30.28 651.18-29.58Q651.92-28.88 651.92-27.84L651.92-27.84Q651.92-26.76 651.18-26.02Q650.44-25.28 649.32-25.28L649.32-25.28Z M678.52-10.48Q678.52-10.04 678.44-9.32L678.44-9.32L661.24-9.32Q661.60-6.52 663.70-4.82Q665.80-3.12 668.92-3.12L668.92-3.12Q672.72-3.12 675.04-5.68L675.04-5.68L677.16-3.20Q675.72-1.52 673.58-0.64Q671.44 0.24 668.80 0.24L668.80 0.24Q665.44 0.24 662.84-1.14Q660.24-2.52 658.82-5Q657.40-7.48 657.40-10.60L657.40-10.60Q657.40-13.68 658.78-16.16Q660.16-18.64 662.58-20.02Q665.00-21.40 668.04-21.40L668.04-21.40Q671.08-21.40 673.46-20.02Q675.84-18.64 677.18-16.16Q678.52-13.68 678.52-10.48L678.52-10.48ZM668.04-18.16Q665.28-18.16 663.42-16.48Q661.56-14.80 661.24-12.08L661.24-12.08L674.84-12.08Q674.52-14.76 672.66-16.46Q670.80-18.16 668.04-18.16L668.04-18.16Z M690.72 0.24Q688.12 0.24 685.72-0.46Q683.32-1.16 681.96-2.24L681.96-2.24L683.56-5.28Q684.96-4.28 686.96-3.68Q688.96-3.08 691.00-3.08L691.00-3.08Q696.04-3.08 696.04-5.96L696.04-5.96Q696.04-6.92 695.36-7.48Q694.68-8.04 693.66-8.30Q692.64-8.56 690.76-8.88L690.76-8.88Q688.20-9.28 686.58-9.80Q684.96-10.32 683.80-11.56Q682.64-12.80 682.64-15.04L682.64-15.04Q682.64-17.92 685.04-19.66Q687.44-21.40 691.48-21.40L691.48-21.40Q693.60-21.40 695.72-20.88Q697.84-20.36 699.20-19.48L699.20-19.48L697.56-16.44Q694.96-18.12 691.44-18.12L691.44-18.12Q689.00-18.12 687.72-17.32Q686.44-16.52 686.44-15.20L686.44-15.20Q686.44-14.16 687.16-13.56Q687.88-12.96 688.94-12.68Q690.00-12.40 691.92-12.04L691.92-12.04Q694.48-11.60 696.06-11.10Q697.64-10.60 698.76-9.40Q699.88-8.20 699.88-6.04L699.88-6.04Q699.88-3.16 697.42-1.46Q694.96 0.24 690.72 0.24L690.72 0.24Z"/></g>
</svg>
</g><g filter="url(#a3HaWBpKa5)"><g opacity="1" transform="rotate(-4 89.9796 115.828)">
<svg width="337.8694" height="188.3233" x="89.9796" y="115.828" version="1.1" preserveAspectRatio="none" viewBox="1.72 -28.32 115.97 64.64">
  <g transform="matrix(1 0 0 1 0 0)" class="icon3"><path id="id-tqp-tJeVl11" d="M8.48 0.32Q5.36 0.32 3.54-1.54Q1.72-3.40 1.72-6.52L1.72-6.52Q1.72-7.48 1.80-7.96L1.80-7.96L4.20-27.52Q4.24-27.72 4.38-27.86Q4.52-28 4.72-28L4.72-28L9.24-28Q9.68-28 9.68-27.52L9.68-27.52L7.20-7.40Q7.16-7.20 7.16-6.84L7.16-6.84Q7.16-5.80 7.68-5.16Q8.20-4.52 9.08-4.52L9.08-4.52Q10.08-4.52 10.78-5.32Q11.48-6.12 11.64-7.40L11.64-7.40L14.12-27.52Q14.16-27.72 14.30-27.86Q14.44-28 14.64-28L14.64-28L19.20-28Q19.40-28 19.52-27.86Q19.64-27.72 19.60-27.52L19.60-27.52L17.20-7.96Q16.76-4.20 14.36-1.94Q11.96 0.32 8.48 0.32L8.48 0.32Z M31.44 0Q31.04 0 30.96-0.40L30.96-0.40L29.32-11.44Q29.24-11.60 29.12-11.60L29.12-11.60L27.84-11.60Q27.60-11.60 27.60-11.40L27.60-11.40L26.28-0.48Q26.24-0.28 26.08-0.14Q25.92 0 25.72 0L25.72 0L21.20 0Q21 0 20.88-0.14Q20.76-0.28 20.80-0.48L20.80-0.48L24.12-27.56Q24.16-27.76 24.30-27.90Q24.44-28.04 24.64-28.04L24.64-28.04L32.48-28.04Q35.40-28.04 37.10-26.14Q38.80-24.24 38.80-21.08L38.80-21.08Q38.80-20.12 38.72-19.60L38.72-19.60Q38.44-17.28 37.36-15.46Q36.28-13.64 34.56-12.60L34.56-12.60Q34.48-12.56 34.44-12.50Q34.40-12.44 34.44-12.36L34.44-12.36L36.56-0.56L36.56-0.48Q36.56-0.28 36.42-0.14Q36.28 0 36.08 0L36.08 0L31.44 0ZM29.24-23.16Q29.04-23.16 29.04-22.96L29.04-22.96L28.20-16.16Q28.12-15.96 28.36-15.96L28.36-15.96L30.12-15.96Q31.44-15.96 32.36-17.14Q33.28-18.32 33.28-20.28L33.28-20.28Q33.28-21.64 32.66-22.40Q32.04-23.16 31-23.16L31-23.16L29.24-23.16Z M47.52 0.32Q44.32 0.32 42.48-1.40Q40.64-3.12 40.64-6.08L40.64-6.08Q40.64-6.44 40.72-7.24L40.72-7.24L42.36-20.76Q42.76-24.20 45.14-26.26Q47.52-28.32 51.04-28.32L51.04-28.32Q54.20-28.32 56.06-26.58Q57.92-24.84 57.92-21.88L57.92-21.88Q57.92-21.52 57.84-20.72L57.84-20.72L57.68-19.20Q57.64-19 57.48-18.86Q57.32-18.72 57.12-18.72L57.12-18.72L52.60-18.72Q52.40-18.72 52.28-18.86Q52.16-19 52.20-19.20L52.20-19.20L52.40-20.80Q52.44-20.96 52.44-21.28L52.44-21.28Q52.44-22.28 51.90-22.88Q51.36-23.48 50.44-23.48L50.44-23.48Q49.44-23.48 48.72-22.74Q48-22 47.84-20.80L47.84-20.80L46.16-7.20Q46.04-6 46.56-5.26Q47.08-4.52 48.08-4.52L48.08-4.52Q49.12-4.52 49.84-5.26Q50.56-6 50.72-7.20L50.72-7.20L51.12-10.40Q51.12-10.60 50.96-10.60L50.96-10.60L49.24-10.60Q49.04-10.60 48.92-10.74Q48.80-10.88 48.84-11.08L48.84-11.08L49.28-14.64Q49.28-14.84 49.44-14.98Q49.60-15.12 49.80-15.12L49.80-15.12L56.68-15.12Q57.12-15.12 57.12-14.64L57.12-14.64L56.20-7.24Q55.80-3.80 53.40-1.74Q51 0.32 47.52 0.32L47.52 0.32Z M76.56-23.64Q76.52-23.44 76.38-23.30Q76.24-23.16 76.04-23.16L76.04-23.16L67.92-23.16Q67.72-23.16 67.72-22.96L67.72-22.96L66.92-16.64Q66.92-16.44 67.08-16.44L67.08-16.44L71.76-16.44Q71.96-16.44 72.08-16.30Q72.20-16.16 72.16-15.96L72.16-15.96L71.68-12.08Q71.64-11.88 71.50-11.74Q71.36-11.60 71.16-11.60L71.16-11.60L66.52-11.60Q66.28-11.60 66.28-11.40L66.28-11.40L65.52-5.04Q65.44-4.84 65.68-4.84L65.68-4.84L73.76-4.84Q73.96-4.84 74.10-4.70Q74.24-4.56 74.20-4.36L74.20-4.36L73.72-0.48Q73.68-0.28 73.54-0.14Q73.40 0 73.20 0L73.20 0L59.88 0Q59.68 0 59.56-0.14Q59.44-0.28 59.48-0.48L59.48-0.48L62.80-27.52Q62.84-27.72 62.98-27.86Q63.12-28 63.32-28L63.32-28L76.64-28Q76.84-28 76.96-27.86Q77.08-27.72 77.04-27.52L77.04-27.52L76.56-23.64Z M78.12 0Q77.92 0 77.80-0.14Q77.68-0.28 77.72-0.48L77.72-0.48L81.04-27.52Q81.08-27.72 81.22-27.86Q81.36-28 81.56-28L81.56-28L86.44-28Q86.80-28 86.88-27.60L86.88-27.60L90.08-12.64Q90.08-12.52 90.18-12.54Q90.28-12.56 90.32-12.68L90.32-12.68L92.12-27.52Q92.16-27.72 92.30-27.86Q92.44-28 92.64-28L92.64-28L97.12-28Q97.32-28 97.44-27.86Q97.56-27.72 97.52-27.52L97.52-27.52L94.20-0.48Q94.16-0.28 94.02-0.14Q93.88 0 93.68 0L93.68 0L88.76 0Q88.36 0 88.28-0.40L88.28-0.40L85.12-15.40Q85.12-15.52 85.02-15.52Q84.92-15.52 84.88-15.40L84.88-15.40L83.12-0.48Q83.08-0.28 82.92-0.14Q82.76 0 82.56 0L82.56 0L78.12 0Z M117.28-28Q117.48-28 117.60-27.86Q117.72-27.72 117.68-27.52L117.68-27.52L117.20-23.64Q117.16-23.44 117.02-23.30Q116.88-23.16 116.68-23.16L116.68-23.16L111.80-23.16Q111.72-23.16 111.66-23.10Q111.60-23.04 111.60-22.96L111.60-22.96L108.84-0.48Q108.80-0.28 108.66-0.14Q108.52 0 108.32 0L108.32 0L103.76 0Q103.56 0 103.44-0.14Q103.32-0.28 103.36-0.48L103.36-0.48L106.12-22.96Q106.20-23.16 105.96-23.16L105.96-23.16L101.32-23.16Q100.88-23.16 100.88-23.64L100.88-23.64L101.36-27.52Q101.40-27.72 101.54-27.86Q101.68-28 101.88-28L101.88-28L117.28-28Z M18.12 8Q18.32 8 18.44 8.14Q18.56 8.28 18.52 8.48L18.52 8.48L18.04 12.36Q18 12.56 17.86 12.70Q17.72 12.84 17.52 12.84L17.52 12.84L12.64 12.84Q12.56 12.84 12.50 12.90Q12.44 12.96 12.44 13.04L12.44 13.04L9.68 35.52Q9.64 35.72 9.50 35.86Q9.36 36 9.16 36L9.16 36L4.60 36Q4.40 36 4.28 35.86Q4.16 35.72 4.20 35.52L4.20 35.52L6.96 13.04Q7.04 12.84 6.80 12.84L6.80 12.84L2.16 12.84Q1.72 12.84 1.72 12.36L1.72 12.36L2.20 8.48Q2.24 8.28 2.38 8.14Q2.52 8 2.72 8L2.72 8L18.12 8Z M28.52 36Q28.08 36 28.08 35.56L28.08 35.56L27.92 31.72Q27.96 31.64 27.88 31.58Q27.80 31.52 27.72 31.52L27.72 31.52L22.88 31.52Q22.64 31.52 22.60 31.68L22.60 31.68L21.44 35.56Q21.32 36 20.88 36L20.88 36L16.36 36Q15.80 36 16.04 35.48L16.04 35.48L25.04 8.44Q25.16 8 25.60 8L25.60 8L30.84 8Q31.28 8 31.28 8.44L31.28 8.44L33.64 35.48L33.64 35.56Q33.64 36 33.20 36L33.20 36L28.52 36ZM24.04 26.96Q24 27.16 24.20 27.16L24.20 27.16L27.56 27.16Q27.72 27.16 27.72 26.96L27.72 26.96L27.36 16.64Q27.36 16.52 27.28 16.52Q27.20 16.52 27.16 16.64L27.16 16.64L24.04 26.96Z M37.16 36Q36.88 36 36.82 35.84Q36.76 35.68 36.88 35.44L36.88 35.44L43.76 22.12Q43.84 22 43.80 21.88L43.80 21.88L40.16 8.56L40.12 8.40Q40.12 8 40.56 8L40.56 8L45.24 8Q45.60 8 45.68 8.40L45.68 8.40L47.36 16.08Q47.36 16.20 47.46 16.20Q47.56 16.20 47.60 16.08L47.60 16.08L51.12 8.40Q51.32 8 51.68 8L51.68 8L56.28 8Q56.56 8 56.62 8.16Q56.68 8.32 56.56 8.56L56.56 8.56L49.68 21.88Q49.60 22 49.64 22.12L49.64 22.12L53.28 35.44L53.32 35.60Q53.32 35.76 53.18 35.88Q53.04 36 52.84 36L52.84 36L48.24 36Q47.88 36 47.80 35.60L47.80 35.60L46.12 27.96Q46.12 27.84 46.04 27.84Q45.96 27.84 45.88 27.96L45.88 27.96L42.32 35.60Q42.12 36 41.76 36L41.76 36L37.16 36Z M57.60 36Q57.40 36 57.28 35.86Q57.16 35.72 57.20 35.52L57.20 35.52L60.52 8.48Q60.56 8.28 60.70 8.14Q60.84 8 61.04 8L61.04 8L65.56 8Q66.00 8 66.00 8.48L66.00 8.48L62.68 35.52Q62.64 35.72 62.48 35.86Q62.32 36 62.12 36L62.12 36L57.60 36Z M74.36 36.32Q71.28 36.32 69.46 34.60Q67.64 32.88 67.64 30.08L67.64 30.08Q67.64 29.72 67.72 29L67.72 29L67.88 27.72Q67.92 27.52 68.06 27.38Q68.20 27.24 68.40 27.24L68.40 27.24L72.88 27.24Q73.08 27.24 73.20 27.38Q73.32 27.52 73.28 27.72L73.28 27.72L73.16 28.72Q73.12 28.88 73.12 29.24L73.12 29.24Q73.12 30.28 73.62 30.88Q74.12 31.48 74.96 31.48L74.96 31.48Q76.00 31.48 76.74 30.62Q77.48 29.76 77.48 28.48L77.48 28.48Q77.48 27.44 76.82 26.66Q76.16 25.88 74.24 24.28L74.24 24.28Q72.60 22.96 71.62 21.98Q70.64 21 69.94 19.58Q69.24 18.16 69.24 16.36L69.24 16.36Q69.24 15.96 69.32 15.16L69.32 15.16Q69.72 11.76 72.02 9.72Q74.32 7.68 77.68 7.68L77.68 7.68Q80.76 7.68 82.58 9.42Q84.40 11.16 84.40 14.12L84.40 14.12Q84.40 14.48 84.32 15.36L84.32 15.36L84.20 16.32Q84.20 16.52 84.04 16.66Q83.88 16.80 83.68 16.80L83.68 16.80L79.24 16.80Q79.04 16.80 78.92 16.66Q78.80 16.52 78.84 16.32L78.84 16.32L78.96 15.24Q79.00 15.08 79.00 14.72L79.00 14.72Q79.00 13.72 78.48 13.12Q77.96 12.52 77.08 12.52L77.08 12.52Q76.16 12.52 75.50 13.22Q74.84 13.92 74.68 15.16L74.68 15.16L74.64 15.64Q74.64 16.64 75.30 17.48Q75.96 18.32 77.72 19.84L77.72 19.84Q79.68 21.44 80.74 22.50Q81.80 23.56 82.38 24.76Q82.96 25.96 82.96 27.52L82.96 27.52Q82.96 27.84 82.88 28.64L82.88 28.64Q82.44 32.16 80.08 34.24Q77.72 36.32 74.36 36.32L74.36 36.32Z"/></g>
</svg>
</g></g><g filter="url(#qBABiEgxo)"><g opacity="1" transform="rotate(-4 99.9796 115.8286)">
<svg width="337.8779" height="188.3226" x="99.9796" y="115.8286" version="1.1" preserveAspectRatio="none" viewBox="1.72 -28.32 115.97 64.64">
  <g transform="matrix(1 0 0 1 0 0)" class="icon1"><path id="id-rBdy8_vsl11" d="M8.48 0.32Q5.36 0.32 3.54-1.54Q1.72-3.40 1.72-6.52L1.72-6.52Q1.72-7.48 1.80-7.96L1.80-7.96L4.20-27.52Q4.24-27.72 4.38-27.86Q4.52-28 4.72-28L4.72-28L9.24-28Q9.68-28 9.68-27.52L9.68-27.52L7.20-7.40Q7.16-7.20 7.16-6.84L7.16-6.84Q7.16-5.80 7.68-5.16Q8.20-4.52 9.08-4.52L9.08-4.52Q10.08-4.52 10.78-5.32Q11.48-6.12 11.64-7.40L11.64-7.40L14.12-27.52Q14.16-27.72 14.30-27.86Q14.44-28 14.64-28L14.64-28L19.20-28Q19.40-28 19.52-27.86Q19.64-27.72 19.60-27.52L19.60-27.52L17.20-7.96Q16.76-4.20 14.36-1.94Q11.96 0.32 8.48 0.32L8.48 0.32Z M31.44 0Q31.04 0 30.96-0.40L30.96-0.40L29.32-11.44Q29.24-11.60 29.12-11.60L29.12-11.60L27.84-11.60Q27.60-11.60 27.60-11.40L27.60-11.40L26.28-0.48Q26.24-0.28 26.08-0.14Q25.92 0 25.72 0L25.72 0L21.20 0Q21 0 20.88-0.14Q20.76-0.28 20.80-0.48L20.80-0.48L24.12-27.56Q24.16-27.76 24.30-27.90Q24.44-28.04 24.64-28.04L24.64-28.04L32.48-28.04Q35.40-28.04 37.10-26.14Q38.80-24.24 38.80-21.08L38.80-21.08Q38.80-20.12 38.72-19.60L38.72-19.60Q38.44-17.28 37.36-15.46Q36.28-13.64 34.56-12.60L34.56-12.60Q34.48-12.56 34.44-12.50Q34.40-12.44 34.44-12.36L34.44-12.36L36.56-0.56L36.56-0.48Q36.56-0.28 36.42-0.14Q36.28 0 36.08 0L36.08 0L31.44 0ZM29.24-23.16Q29.04-23.16 29.04-22.96L29.04-22.96L28.20-16.16Q28.12-15.96 28.36-15.96L28.36-15.96L30.12-15.96Q31.44-15.96 32.36-17.14Q33.28-18.32 33.28-20.28L33.28-20.28Q33.28-21.64 32.66-22.40Q32.04-23.16 31-23.16L31-23.16L29.24-23.16Z M47.52 0.32Q44.32 0.32 42.48-1.40Q40.64-3.12 40.64-6.08L40.64-6.08Q40.64-6.44 40.72-7.24L40.72-7.24L42.36-20.76Q42.76-24.20 45.14-26.26Q47.52-28.32 51.04-28.32L51.04-28.32Q54.20-28.32 56.06-26.58Q57.92-24.84 57.92-21.88L57.92-21.88Q57.92-21.52 57.84-20.72L57.84-20.72L57.68-19.20Q57.64-19 57.48-18.86Q57.32-18.72 57.12-18.72L57.12-18.72L52.60-18.72Q52.40-18.72 52.28-18.86Q52.16-19 52.20-19.20L52.20-19.20L52.40-20.80Q52.44-20.96 52.44-21.28L52.44-21.28Q52.44-22.28 51.90-22.88Q51.36-23.48 50.44-23.48L50.44-23.48Q49.44-23.48 48.72-22.74Q48-22 47.84-20.80L47.84-20.80L46.16-7.20Q46.04-6 46.56-5.26Q47.08-4.52 48.08-4.52L48.08-4.52Q49.12-4.52 49.84-5.26Q50.56-6 50.72-7.20L50.72-7.20L51.12-10.40Q51.12-10.60 50.96-10.60L50.96-10.60L49.24-10.60Q49.04-10.60 48.92-10.74Q48.80-10.88 48.84-11.08L48.84-11.08L49.28-14.64Q49.28-14.84 49.44-14.98Q49.60-15.12 49.80-15.12L49.80-15.12L56.68-15.12Q57.12-15.12 57.12-14.64L57.12-14.64L56.20-7.24Q55.80-3.80 53.40-1.74Q51 0.32 47.52 0.32L47.52 0.32Z M76.56-23.64Q76.52-23.44 76.38-23.30Q76.24-23.16 76.04-23.16L76.04-23.16L67.92-23.16Q67.72-23.16 67.72-22.96L67.72-22.96L66.92-16.64Q66.92-16.44 67.08-16.44L67.08-16.44L71.76-16.44Q71.96-16.44 72.08-16.30Q72.20-16.16 72.16-15.96L72.16-15.96L71.68-12.08Q71.64-11.88 71.50-11.74Q71.36-11.60 71.16-11.60L71.16-11.60L66.52-11.60Q66.28-11.60 66.28-11.40L66.28-11.40L65.52-5.04Q65.44-4.84 65.68-4.84L65.68-4.84L73.76-4.84Q73.96-4.84 74.10-4.70Q74.24-4.56 74.20-4.36L74.20-4.36L73.72-0.48Q73.68-0.28 73.54-0.14Q73.40 0 73.20 0L73.20 0L59.88 0Q59.68 0 59.56-0.14Q59.44-0.28 59.48-0.48L59.48-0.48L62.80-27.52Q62.84-27.72 62.98-27.86Q63.12-28 63.32-28L63.32-28L76.64-28Q76.84-28 76.96-27.86Q77.08-27.72 77.04-27.52L77.04-27.52L76.56-23.64Z M78.12 0Q77.92 0 77.80-0.14Q77.68-0.28 77.72-0.48L77.72-0.48L81.04-27.52Q81.08-27.72 81.22-27.86Q81.36-28 81.56-28L81.56-28L86.44-28Q86.80-28 86.88-27.60L86.88-27.60L90.08-12.64Q90.08-12.52 90.18-12.54Q90.28-12.56 90.32-12.68L90.32-12.68L92.12-27.52Q92.16-27.72 92.30-27.86Q92.44-28 92.64-28L92.64-28L97.12-28Q97.32-28 97.44-27.86Q97.56-27.72 97.52-27.52L97.52-27.52L94.20-0.48Q94.16-0.28 94.02-0.14Q93.88 0 93.68 0L93.68 0L88.76 0Q88.36 0 88.28-0.40L88.28-0.40L85.12-15.40Q85.12-15.52 85.02-15.52Q84.92-15.52 84.88-15.40L84.88-15.40L83.12-0.48Q83.08-0.28 82.92-0.14Q82.76 0 82.56 0L82.56 0L78.12 0Z M117.28-28Q117.48-28 117.60-27.86Q117.72-27.72 117.68-27.52L117.68-27.52L117.20-23.64Q117.16-23.44 117.02-23.30Q116.88-23.16 116.68-23.16L116.68-23.16L111.80-23.16Q111.72-23.16 111.66-23.10Q111.60-23.04 111.60-22.96L111.60-22.96L108.84-0.48Q108.80-0.28 108.66-0.14Q108.52 0 108.32 0L108.32 0L103.76 0Q103.56 0 103.44-0.14Q103.32-0.28 103.36-0.48L103.36-0.48L106.12-22.96Q106.20-23.16 105.96-23.16L105.96-23.16L101.32-23.16Q100.88-23.16 100.88-23.64L100.88-23.64L101.36-27.52Q101.40-27.72 101.54-27.86Q101.68-28 101.88-28L101.88-28L117.28-28Z M18.12 8Q18.32 8 18.44 8.14Q18.56 8.28 18.52 8.48L18.52 8.48L18.04 12.36Q18 12.56 17.86 12.70Q17.72 12.84 17.52 12.84L17.52 12.84L12.64 12.84Q12.56 12.84 12.50 12.90Q12.44 12.96 12.44 13.04L12.44 13.04L9.68 35.52Q9.64 35.72 9.50 35.86Q9.36 36 9.16 36L9.16 36L4.60 36Q4.40 36 4.28 35.86Q4.16 35.72 4.20 35.52L4.20 35.52L6.96 13.04Q7.04 12.84 6.80 12.84L6.80 12.84L2.16 12.84Q1.72 12.84 1.72 12.36L1.72 12.36L2.20 8.48Q2.24 8.28 2.38 8.14Q2.52 8 2.72 8L2.72 8L18.12 8Z M28.52 36Q28.08 36 28.08 35.56L28.08 35.56L27.92 31.72Q27.96 31.64 27.88 31.58Q27.80 31.52 27.72 31.52L27.72 31.52L22.88 31.52Q22.64 31.52 22.60 31.68L22.60 31.68L21.44 35.56Q21.32 36 20.88 36L20.88 36L16.36 36Q15.80 36 16.04 35.48L16.04 35.48L25.04 8.44Q25.16 8 25.60 8L25.60 8L30.84 8Q31.28 8 31.28 8.44L31.28 8.44L33.64 35.48L33.64 35.56Q33.64 36 33.20 36L33.20 36L28.52 36ZM24.04 26.96Q24 27.16 24.20 27.16L24.20 27.16L27.56 27.16Q27.72 27.16 27.72 26.96L27.72 26.96L27.36 16.64Q27.36 16.52 27.28 16.52Q27.20 16.52 27.16 16.64L27.16 16.64L24.04 26.96Z M37.16 36Q36.88 36 36.82 35.84Q36.76 35.68 36.88 35.44L36.88 35.44L43.76 22.12Q43.84 22 43.80 21.88L43.80 21.88L40.16 8.56L40.12 8.40Q40.12 8 40.56 8L40.56 8L45.24 8Q45.60 8 45.68 8.40L45.68 8.40L47.36 16.08Q47.36 16.20 47.46 16.20Q47.56 16.20 47.60 16.08L47.60 16.08L51.12 8.40Q51.32 8 51.68 8L51.68 8L56.28 8Q56.56 8 56.62 8.16Q56.68 8.32 56.56 8.56L56.56 8.56L49.68 21.88Q49.60 22 49.64 22.12L49.64 22.12L53.28 35.44L53.32 35.60Q53.32 35.76 53.18 35.88Q53.04 36 52.84 36L52.84 36L48.24 36Q47.88 36 47.80 35.60L47.80 35.60L46.12 27.96Q46.12 27.84 46.04 27.84Q45.96 27.84 45.88 27.96L45.88 27.96L42.32 35.60Q42.12 36 41.76 36L41.76 36L37.16 36Z M57.60 36Q57.40 36 57.28 35.86Q57.16 35.72 57.20 35.52L57.20 35.52L60.52 8.48Q60.56 8.28 60.70 8.14Q60.84 8 61.04 8L61.04 8L65.56 8Q66.00 8 66.00 8.48L66.00 8.48L62.68 35.52Q62.64 35.72 62.48 35.86Q62.32 36 62.12 36L62.12 36L57.60 36Z M74.36 36.32Q71.28 36.32 69.46 34.60Q67.64 32.88 67.64 30.08L67.64 30.08Q67.64 29.72 67.72 29L67.72 29L67.88 27.72Q67.92 27.52 68.06 27.38Q68.20 27.24 68.40 27.24L68.40 27.24L72.88 27.24Q73.08 27.24 73.20 27.38Q73.32 27.52 73.28 27.72L73.28 27.72L73.16 28.72Q73.12 28.88 73.12 29.24L73.12 29.24Q73.12 30.28 73.62 30.88Q74.12 31.48 74.96 31.48L74.96 31.48Q76.00 31.48 76.74 30.62Q77.48 29.76 77.48 28.48L77.48 28.48Q77.48 27.44 76.82 26.66Q76.16 25.88 74.24 24.28L74.24 24.28Q72.60 22.96 71.62 21.98Q70.64 21 69.94 19.58Q69.24 18.16 69.24 16.36L69.24 16.36Q69.24 15.96 69.32 15.16L69.32 15.16Q69.72 11.76 72.02 9.72Q74.32 7.68 77.68 7.68L77.68 7.68Q80.76 7.68 82.58 9.42Q84.40 11.16 84.40 14.12L84.40 14.12Q84.40 14.48 84.32 15.36L84.32 15.36L84.20 16.32Q84.20 16.52 84.04 16.66Q83.88 16.80 83.68 16.80L83.68 16.80L79.24 16.80Q79.04 16.80 78.92 16.66Q78.80 16.52 78.84 16.32L78.84 16.32L78.96 15.24Q79.00 15.08 79.00 14.72L79.00 14.72Q79.00 13.72 78.48 13.12Q77.96 12.52 77.08 12.52L77.08 12.52Q76.16 12.52 75.50 13.22Q74.84 13.92 74.68 15.16L74.68 15.16L74.64 15.64Q74.64 16.64 75.30 17.48Q75.96 18.32 77.72 19.84L77.72 19.84Q79.68 21.44 80.74 22.50Q81.80 23.56 82.38 24.76Q82.96 25.96 82.96 27.52L82.96 27.52Q82.96 27.84 82.88 28.64L82.88 28.64Q82.44 32.16 80.08 34.24Q77.72 36.32 74.36 36.32L74.36 36.32Z"/></g>
</svg>
</g></g><g filter="url(#a7IyiasrVt)"><g opacity="1" transform="rotate(-4 99.9796 115.8279)">
<svg width="337.8678" height="188.3233" x="99.9796" y="115.8279" version="1.1" preserveAspectRatio="none" viewBox="1.72 -28.32 115.97 64.64">
  <g transform="matrix(1 0 0 1 0 0)" class="background"><path id="id-D6z1nYkh11" d="M8.48 0.32Q5.36 0.32 3.54-1.54Q1.72-3.40 1.72-6.52L1.72-6.52Q1.72-7.48 1.80-7.96L1.80-7.96L4.20-27.52Q4.24-27.72 4.38-27.86Q4.52-28 4.72-28L4.72-28L9.24-28Q9.68-28 9.68-27.52L9.68-27.52L7.20-7.40Q7.16-7.20 7.16-6.84L7.16-6.84Q7.16-5.80 7.68-5.16Q8.20-4.52 9.08-4.52L9.08-4.52Q10.08-4.52 10.78-5.32Q11.48-6.12 11.64-7.40L11.64-7.40L14.12-27.52Q14.16-27.72 14.30-27.86Q14.44-28 14.64-28L14.64-28L19.20-28Q19.40-28 19.52-27.86Q19.64-27.72 19.60-27.52L19.60-27.52L17.20-7.96Q16.76-4.20 14.36-1.94Q11.96 0.32 8.48 0.32L8.48 0.32Z M31.44 0Q31.04 0 30.96-0.40L30.96-0.40L29.32-11.44Q29.24-11.60 29.12-11.60L29.12-11.60L27.84-11.60Q27.60-11.60 27.60-11.40L27.60-11.40L26.28-0.48Q26.24-0.28 26.08-0.14Q25.92 0 25.72 0L25.72 0L21.20 0Q21 0 20.88-0.14Q20.76-0.28 20.80-0.48L20.80-0.48L24.12-27.56Q24.16-27.76 24.30-27.90Q24.44-28.04 24.64-28.04L24.64-28.04L32.48-28.04Q35.40-28.04 37.10-26.14Q38.80-24.24 38.80-21.08L38.80-21.08Q38.80-20.12 38.72-19.60L38.72-19.60Q38.44-17.28 37.36-15.46Q36.28-13.64 34.56-12.60L34.56-12.60Q34.48-12.56 34.44-12.50Q34.40-12.44 34.44-12.36L34.44-12.36L36.56-0.56L36.56-0.48Q36.56-0.28 36.42-0.14Q36.28 0 36.08 0L36.08 0L31.44 0ZM29.24-23.16Q29.04-23.16 29.04-22.96L29.04-22.96L28.20-16.16Q28.12-15.96 28.36-15.96L28.36-15.96L30.12-15.96Q31.44-15.96 32.36-17.14Q33.28-18.32 33.28-20.28L33.28-20.28Q33.28-21.64 32.66-22.40Q32.04-23.16 31-23.16L31-23.16L29.24-23.16Z M47.52 0.32Q44.32 0.32 42.48-1.40Q40.64-3.12 40.64-6.08L40.64-6.08Q40.64-6.44 40.72-7.24L40.72-7.24L42.36-20.76Q42.76-24.20 45.14-26.26Q47.52-28.32 51.04-28.32L51.04-28.32Q54.20-28.32 56.06-26.58Q57.92-24.84 57.92-21.88L57.92-21.88Q57.92-21.52 57.84-20.72L57.84-20.72L57.68-19.20Q57.64-19 57.48-18.86Q57.32-18.72 57.12-18.72L57.12-18.72L52.60-18.72Q52.40-18.72 52.28-18.86Q52.16-19 52.20-19.20L52.20-19.20L52.40-20.80Q52.44-20.96 52.44-21.28L52.44-21.28Q52.44-22.28 51.90-22.88Q51.36-23.48 50.44-23.48L50.44-23.48Q49.44-23.48 48.72-22.74Q48-22 47.84-20.80L47.84-20.80L46.16-7.20Q46.04-6 46.56-5.26Q47.08-4.52 48.08-4.52L48.08-4.52Q49.12-4.52 49.84-5.26Q50.56-6 50.72-7.20L50.72-7.20L51.12-10.40Q51.12-10.60 50.96-10.60L50.96-10.60L49.24-10.60Q49.04-10.60 48.92-10.74Q48.80-10.88 48.84-11.08L48.84-11.08L49.28-14.64Q49.28-14.84 49.44-14.98Q49.60-15.12 49.80-15.12L49.80-15.12L56.68-15.12Q57.12-15.12 57.12-14.64L57.12-14.64L56.20-7.24Q55.80-3.80 53.40-1.74Q51 0.32 47.52 0.32L47.52 0.32Z M76.56-23.64Q76.52-23.44 76.38-23.30Q76.24-23.16 76.04-23.16L76.04-23.16L67.92-23.16Q67.72-23.16 67.72-22.96L67.72-22.96L66.92-16.64Q66.92-16.44 67.08-16.44L67.08-16.44L71.76-16.44Q71.96-16.44 72.08-16.30Q72.20-16.16 72.16-15.96L72.16-15.96L71.68-12.08Q71.64-11.88 71.50-11.74Q71.36-11.60 71.16-11.60L71.16-11.60L66.52-11.60Q66.28-11.60 66.28-11.40L66.28-11.40L65.52-5.04Q65.44-4.84 65.68-4.84L65.68-4.84L73.76-4.84Q73.96-4.84 74.10-4.70Q74.24-4.56 74.20-4.36L74.20-4.36L73.72-0.48Q73.68-0.28 73.54-0.14Q73.40 0 73.20 0L73.20 0L59.88 0Q59.68 0 59.56-0.14Q59.44-0.28 59.48-0.48L59.48-0.48L62.80-27.52Q62.84-27.72 62.98-27.86Q63.12-28 63.32-28L63.32-28L76.64-28Q76.84-28 76.96-27.86Q77.08-27.72 77.04-27.52L77.04-27.52L76.56-23.64Z M78.12 0Q77.92 0 77.80-0.14Q77.68-0.28 77.72-0.48L77.72-0.48L81.04-27.52Q81.08-27.72 81.22-27.86Q81.36-28 81.56-28L81.56-28L86.44-28Q86.80-28 86.88-27.60L86.88-27.60L90.08-12.64Q90.08-12.52 90.18-12.54Q90.28-12.56 90.32-12.68L90.32-12.68L92.12-27.52Q92.16-27.72 92.30-27.86Q92.44-28 92.64-28L92.64-28L97.12-28Q97.32-28 97.44-27.86Q97.56-27.72 97.52-27.52L97.52-27.52L94.20-0.48Q94.16-0.28 94.02-0.14Q93.88 0 93.68 0L93.68 0L88.76 0Q88.36 0 88.28-0.40L88.28-0.40L85.12-15.40Q85.12-15.52 85.02-15.52Q84.92-15.52 84.88-15.40L84.88-15.40L83.12-0.48Q83.08-0.28 82.92-0.14Q82.76 0 82.56 0L82.56 0L78.12 0Z M117.28-28Q117.48-28 117.60-27.86Q117.72-27.72 117.68-27.52L117.68-27.52L117.20-23.64Q117.16-23.44 117.02-23.30Q116.88-23.16 116.68-23.16L116.68-23.16L111.80-23.16Q111.72-23.16 111.66-23.10Q111.60-23.04 111.60-22.96L111.60-22.96L108.84-0.48Q108.80-0.28 108.66-0.14Q108.52 0 108.32 0L108.32 0L103.76 0Q103.56 0 103.44-0.14Q103.32-0.28 103.36-0.48L103.36-0.48L106.12-22.96Q106.20-23.16 105.96-23.16L105.96-23.16L101.32-23.16Q100.88-23.16 100.88-23.64L100.88-23.64L101.36-27.52Q101.40-27.72 101.54-27.86Q101.68-28 101.88-28L101.88-28L117.28-28Z M18.12 8Q18.32 8 18.44 8.14Q18.56 8.28 18.52 8.48L18.52 8.48L18.04 12.36Q18 12.56 17.86 12.70Q17.72 12.84 17.52 12.84L17.52 12.84L12.64 12.84Q12.56 12.84 12.50 12.90Q12.44 12.96 12.44 13.04L12.44 13.04L9.68 35.52Q9.64 35.72 9.50 35.86Q9.36 36 9.16 36L9.16 36L4.60 36Q4.40 36 4.28 35.86Q4.16 35.72 4.20 35.52L4.20 35.52L6.96 13.04Q7.04 12.84 6.80 12.84L6.80 12.84L2.16 12.84Q1.72 12.84 1.72 12.36L1.72 12.36L2.20 8.48Q2.24 8.28 2.38 8.14Q2.52 8 2.72 8L2.72 8L18.12 8Z M28.52 36Q28.08 36 28.08 35.56L28.08 35.56L27.92 31.72Q27.96 31.64 27.88 31.58Q27.80 31.52 27.72 31.52L27.72 31.52L22.88 31.52Q22.64 31.52 22.60 31.68L22.60 31.68L21.44 35.56Q21.32 36 20.88 36L20.88 36L16.36 36Q15.80 36 16.04 35.48L16.04 35.48L25.04 8.44Q25.16 8 25.60 8L25.60 8L30.84 8Q31.28 8 31.28 8.44L31.28 8.44L33.64 35.48L33.64 35.56Q33.64 36 33.20 36L33.20 36L28.52 36ZM24.04 26.96Q24 27.16 24.20 27.16L24.20 27.16L27.56 27.16Q27.72 27.16 27.72 26.96L27.72 26.96L27.36 16.64Q27.36 16.52 27.28 16.52Q27.20 16.52 27.16 16.64L27.16 16.64L24.04 26.96Z M37.16 36Q36.88 36 36.82 35.84Q36.76 35.68 36.88 35.44L36.88 35.44L43.76 22.12Q43.84 22 43.80 21.88L43.80 21.88L40.16 8.56L40.12 8.40Q40.12 8 40.56 8L40.56 8L45.24 8Q45.60 8 45.68 8.40L45.68 8.40L47.36 16.08Q47.36 16.20 47.46 16.20Q47.56 16.20 47.60 16.08L47.60 16.08L51.12 8.40Q51.32 8 51.68 8L51.68 8L56.28 8Q56.56 8 56.62 8.16Q56.68 8.32 56.56 8.56L56.56 8.56L49.68 21.88Q49.60 22 49.64 22.12L49.64 22.12L53.28 35.44L53.32 35.60Q53.32 35.76 53.18 35.88Q53.04 36 52.84 36L52.84 36L48.24 36Q47.88 36 47.80 35.60L47.80 35.60L46.12 27.96Q46.12 27.84 46.04 27.84Q45.96 27.84 45.88 27.96L45.88 27.96L42.32 35.60Q42.12 36 41.76 36L41.76 36L37.16 36Z M57.60 36Q57.40 36 57.28 35.86Q57.16 35.72 57.20 35.52L57.20 35.52L60.52 8.48Q60.56 8.28 60.70 8.14Q60.84 8 61.04 8L61.04 8L65.56 8Q66.00 8 66.00 8.48L66.00 8.48L62.68 35.52Q62.64 35.72 62.48 35.86Q62.32 36 62.12 36L62.12 36L57.60 36Z M74.36 36.32Q71.28 36.32 69.46 34.60Q67.64 32.88 67.64 30.08L67.64 30.08Q67.64 29.72 67.72 29L67.72 29L67.88 27.72Q67.92 27.52 68.06 27.38Q68.20 27.24 68.40 27.24L68.40 27.24L72.88 27.24Q73.08 27.24 73.20 27.38Q73.32 27.52 73.28 27.72L73.28 27.72L73.16 28.72Q73.12 28.88 73.12 29.24L73.12 29.24Q73.12 30.28 73.62 30.88Q74.12 31.48 74.96 31.48L74.96 31.48Q76.00 31.48 76.74 30.62Q77.48 29.76 77.48 28.48L77.48 28.48Q77.48 27.44 76.82 26.66Q76.16 25.88 74.24 24.28L74.24 24.28Q72.60 22.96 71.62 21.98Q70.64 21 69.94 19.58Q69.24 18.16 69.24 16.36L69.24 16.36Q69.24 15.96 69.32 15.16L69.32 15.16Q69.72 11.76 72.02 9.72Q74.32 7.68 77.68 7.68L77.68 7.68Q80.76 7.68 82.58 9.42Q84.40 11.16 84.40 14.12L84.40 14.12Q84.40 14.48 84.32 15.36L84.32 15.36L84.20 16.32Q84.20 16.52 84.04 16.66Q83.88 16.80 83.68 16.80L83.68 16.80L79.24 16.80Q79.04 16.80 78.92 16.66Q78.80 16.52 78.84 16.32L78.84 16.32L78.96 15.24Q79.00 15.08 79.00 14.72L79.00 14.72Q79.00 13.72 78.48 13.12Q77.96 12.52 77.08 12.52L77.08 12.52Q76.16 12.52 75.50 13.22Q74.84 13.92 74.68 15.16L74.68 15.16L74.64 15.64Q74.64 16.64 75.30 17.48Q75.96 18.32 77.72 19.84L77.72 19.84Q79.68 21.44 80.74 22.50Q81.80 23.56 82.38 24.76Q82.96 25.96 82.96 27.52L82.96 27.52Q82.96 27.84 82.88 28.64L82.88 28.64Q82.44 32.16 80.08 34.24Q77.72 36.32 74.36 36.32L74.36 36.32Z"/></g>
</svg>
</g></g></svg></svg>