<svg version="1.1" preserveAspectRatio="none" xmlns="http://www.w3.org/2000/svg" width="500" height="500" viewBox="0 0 500 500"><rect width="100%" height="100%" fill="#FFFFFF" fill-opacity="1"/><svg viewBox="14.4674 44.5743 399.6366 316.6879" width="417" height="330.4473471648993" x="41.5px" y="84.7763px" xmlns="http://www.w3.org/2000/svg" xmlns:xlink="http://www.w3.org/1999/xlink" preserveAspectRatio="none"><defs></defs><style>.background {fill:#FFFFFF;fill-opacity:1;}.companyName {fill:#262626;fill-opacity:1;}.icon3-str {stroke:#F55139;stroke-opacity:0.97;}.shape {fill:#F5F94D;fill-opacity:1;}.text {fill:#262626;fill-opacity:0.96;}</style><g opacity="1" transform="rotate(-10 123.6126 80.2949)">
<svg width="205.7067" height="142.6141" x="123.6126" y="80.2949" version="1.1" preserveAspectRatio="none" viewBox="1.08 -28 40.8489 28.32">
  <g transform="matrix(1 0 0 1 0 0)" class="shape"><path id="id-wAbsaticb2" d="M8.52 0.32Q5.08 0.32 3.08-1.64Q1.08-3.60 1.08-6.92L1.08-6.92Q1.08-7.36 1.16-8.32L1.16-8.32L3.52-27.40Q3.56-27.68 3.74-27.84Q3.92-28 4.16-28L4.16-28L10.32-28Q10.56-28 10.70-27.84Q10.84-27.68 10.80-27.40L10.80-27.40L8.40-7.60Q8.32-6.92 8.56-6.52Q8.80-6.12 9.32-6.12L9.32-6.12Q9.84-6.12 10.18-6.52Q10.52-6.92 10.60-7.60L10.60-7.60L13.04-27.40Q13.08-27.68 13.24-27.84Q13.40-28 13.68-28L13.68-28L19.80-28Q20.08-28 20.22-27.84Q20.36-27.68 20.32-27.40L20.32-27.40L17.96-8.32Q17.64-5.76 16.36-3.80Q15.08-1.84 13.04-0.76Q11 0.32 8.52 0.32L8.52 0.32Z M41.44-28Q41.68-28 41.82-27.84Q41.96-27.68 41.92-27.40L41.92-27.40L41.28-22.16Q41.24-21.88 41.08-21.72Q40.92-21.56 40.64-21.56L40.64-21.56L36.04-21.56Q35.80-21.56 35.80-21.32L35.80-21.32L33.24-0.60Q33.20-0.32 33.04-0.16Q32.88 0 32.60 0L32.60 0L26.48 0Q26.20 0 26.06-0.16Q25.92-0.32 25.96-0.60L25.96-0.60L28.48-21.32Q28.56-21.56 28.28-21.56L28.28-21.56L23.84-21.56Q23.56-21.56 23.42-21.72Q23.28-21.88 23.32-22.16L23.32-22.16L23.96-27.40Q24-27.68 24.18-27.84Q24.36-28 24.64-28L24.64-28L41.44-28Z"/></g>
</svg>
</g><g opacity="1" transform="rotate(-10 114.9357 92.8685)">
<svg width="194.7268" height="143.5749" x="114.9357" y="92.8685" version="1.1" preserveAspectRatio="none" viewBox="2.04 -28 38.410000000000004 28.32">
  <g transform="matrix(1 0 0 1 0 0)" class="companyName"><path id="id-lcA0T24mw2" d="M8.44 0.32Q5.48 0.32 3.76-1.48Q2.04-3.28 2.04-6.36L2.04-6.36Q2.04-6.80 2.12-7.76L2.12-7.76L4.56-27.52Q4.56-27.72 4.72-27.86Q4.88-28 5.08-28L5.08-28L8.64-28Q8.84-28 8.96-27.86Q9.08-27.72 9.04-27.52L9.04-27.52L6.56-7.28Q6.52-7.04 6.52-6.56L6.52-6.56Q6.52-5.24 7.18-4.46Q7.84-3.68 8.96-3.68L8.96-3.68Q10.20-3.68 11.12-4.68Q12.04-5.68 12.24-7.28L12.24-7.28L14.72-27.52Q14.76-27.72 14.90-27.86Q15.04-28 15.24-28L15.24-28L18.80-28Q19-28 19.12-27.86Q19.24-27.72 19.20-27.52L19.20-27.52L16.80-7.76Q16.36-4.12 14.06-1.90Q11.76 0.32 8.44 0.32L8.44 0.32Z M40.04-28Q40.24-28 40.36-27.86Q40.48-27.72 40.44-27.52L40.44-27.52L40.08-24.48Q40.04-24.28 39.90-24.14Q39.76-24 39.56-24L39.56-24L34.64-24Q34.48-24 34.40-23.80L34.40-23.80L31.56-0.48Q31.52-0.28 31.38-0.14Q31.24 0 31.04 0L31.04 0L27.44 0Q27.24 0 27.12-0.14Q27-0.28 27.04-0.48L27.04-0.48L29.92-23.80Q29.92-24 29.72-24L29.72-24L25.08-24Q24.88-24 24.76-24.14Q24.64-24.28 24.68-24.48L24.68-24.48L25.04-27.52Q25.08-27.72 25.22-27.86Q25.36-28 25.56-28L25.56-28L40.04-28Z"/></g>
</svg>
</g><g opacity="1" transform="rotate(-10 98.9351 93.8687)">
<svg width="194.7281" height="143.5747" x="98.9351" y="93.8687" version="1.1" preserveAspectRatio="none" viewBox="2.04 -28 38.410000000000004 28.32">
  <g transform="matrix(1 0 0 1 0 0)" class="background"><path id="id-zm6CZq_Ug2" d="M8.44 0.32Q5.48 0.32 3.76-1.48Q2.04-3.28 2.04-6.36L2.04-6.36Q2.04-6.80 2.12-7.76L2.12-7.76L4.56-27.52Q4.56-27.72 4.72-27.86Q4.88-28 5.08-28L5.08-28L8.64-28Q8.84-28 8.96-27.86Q9.08-27.72 9.04-27.52L9.04-27.52L6.56-7.28Q6.52-7.04 6.52-6.56L6.52-6.56Q6.52-5.24 7.18-4.46Q7.84-3.68 8.96-3.68L8.96-3.68Q10.20-3.68 11.12-4.68Q12.04-5.68 12.24-7.28L12.24-7.28L14.72-27.52Q14.76-27.72 14.90-27.86Q15.04-28 15.24-28L15.24-28L18.80-28Q19-28 19.12-27.86Q19.24-27.72 19.20-27.52L19.20-27.52L16.80-7.76Q16.36-4.12 14.06-1.90Q11.76 0.32 8.44 0.32L8.44 0.32Z M40.04-28Q40.24-28 40.36-27.86Q40.48-27.72 40.44-27.52L40.44-27.52L40.08-24.48Q40.04-24.28 39.90-24.14Q39.76-24 39.56-24L39.56-24L34.64-24Q34.48-24 34.40-23.80L34.40-23.80L31.56-0.48Q31.52-0.28 31.38-0.14Q31.24 0 31.04 0L31.04 0L27.44 0Q27.24 0 27.12-0.14Q27-0.28 27.04-0.48L27.04-0.48L29.92-23.80Q29.92-24 29.72-24L29.72-24L25.08-24Q24.88-24 24.76-24.14Q24.64-24.28 24.68-24.48L24.68-24.48L25.04-27.52Q25.08-27.72 25.22-27.86Q25.36-28 25.56-28L25.56-28L40.04-28Z"/></g>
</svg>
</g><g opacity="1" transform="rotate(0 23.4875 343.2622)">
<svg width="381.5964" height="18" x="23.4875" y="343.2622" version="1.1" preserveAspectRatio="none" viewBox="4.2 -30.28 806.4399999999999 38.040000000000006">
  <g transform="matrix(1 0 0 1 0 0)" class="text"><path id="id-6izo4zJp35" d="M23.04-14.52Q25.48-13.84 26.88-12.06Q28.28-10.28 28.28-7.56L28.28-7.56Q28.28-3.92 25.54-1.96Q22.80 0 17.56 0L17.56 0L4.20 0L4.20-28L16.76-28Q21.56-28 24.18-26.08Q26.80-24.16 26.80-20.76L26.80-20.76Q26.80-18.56 25.78-16.96Q24.76-15.36 23.04-14.52L23.04-14.52ZM16.40-24.76L8.20-24.76L8.20-15.80L16.40-15.80Q19.48-15.80 21.14-16.94Q22.80-18.08 22.80-20.28L22.80-20.28Q22.80-22.48 21.14-23.62Q19.48-24.76 16.40-24.76L16.40-24.76ZM17.40-3.24Q20.80-3.24 22.52-4.36Q24.24-5.48 24.24-7.88L24.24-7.88Q24.24-12.56 17.40-12.56L17.40-12.56L8.20-12.56L8.20-3.24L17.40-3.24Z M57.08-10.48Q57.08-10.04 57-9.32L57-9.32L39.80-9.32Q40.16-6.52 42.26-4.82Q44.36-3.12 47.48-3.12L47.48-3.12Q51.28-3.12 53.60-5.68L53.60-5.68L55.72-3.20Q54.28-1.52 52.14-0.64Q50 0.24 47.36 0.24L47.36 0.24Q44 0.24 41.40-1.14Q38.80-2.52 37.38-5Q35.96-7.48 35.96-10.60L35.96-10.60Q35.96-13.68 37.34-16.16Q38.72-18.64 41.14-20.02Q43.56-21.40 46.60-21.40L46.60-21.40Q49.64-21.40 52.02-20.02Q54.40-18.64 55.74-16.16Q57.08-13.68 57.08-10.48L57.08-10.48ZM46.60-18.16Q43.84-18.16 41.98-16.48Q40.12-14.80 39.80-12.08L39.80-12.08L53.40-12.08Q53.08-14.76 51.22-16.46Q49.36-18.16 46.60-18.16L46.60-18.16Z M72.48 0.24Q69.88 0.24 67.48-0.46Q65.08-1.16 63.72-2.24L63.72-2.24L65.32-5.28Q66.72-4.28 68.72-3.68Q70.72-3.08 72.76-3.08L72.76-3.08Q77.80-3.08 77.80-5.96L77.80-5.96Q77.80-6.92 77.12-7.48Q76.44-8.04 75.42-8.30Q74.40-8.56 72.52-8.88L72.52-8.88Q69.96-9.28 68.34-9.80Q66.72-10.32 65.56-11.56Q64.40-12.80 64.40-15.04L64.40-15.04Q64.40-17.92 66.80-19.66Q69.20-21.40 73.24-21.40L73.24-21.40Q75.36-21.40 77.48-20.88Q79.60-20.36 80.96-19.48L80.96-19.48L79.32-16.44Q76.72-18.12 73.20-18.12L73.20-18.12Q70.76-18.12 69.48-17.32Q68.20-16.52 68.20-15.20L68.20-15.20Q68.20-14.16 68.92-13.56Q69.64-12.96 70.70-12.68Q71.76-12.40 73.68-12.04L73.68-12.04Q76.24-11.60 77.82-11.10Q79.40-10.60 80.52-9.40Q81.64-8.20 81.64-6.04L81.64-6.04Q81.64-3.16 79.18-1.46Q76.72 0.24 72.48 0.24L72.48 0.24Z M101.16-4L102.36-1.24Q101.52-0.52 100.28-0.14Q99.04 0.24 97.72 0.24L97.72 0.24Q94.52 0.24 92.76-1.48Q91.00-3.20 91.00-6.40L91.00-6.40L91.00-18.04L87.40-18.04L87.40-21.20L91.00-21.20L91.00-25.84L94.84-25.84L94.84-21.20L100.92-21.20L100.92-18.04L94.84-18.04L94.84-6.56Q94.84-4.84 95.70-3.92Q96.56-3 98.16-3L98.16-3Q99.92-3 101.16-4L101.16-4Z M125.76 0L125.76-21.20L129.60-21.20L129.60 0L125.76 0ZM127.68-25.28Q126.56-25.28 125.82-26Q125.08-26.72 125.08-27.76L125.08-27.76Q125.08-28.80 125.82-29.54Q126.56-30.28 127.68-30.28L127.68-30.28Q128.80-30.28 129.54-29.58Q130.28-28.88 130.28-27.84L130.28-27.84Q130.28-26.76 129.54-26.02Q128.80-25.28 127.68-25.28L127.68-25.28Z M152.24-21.40Q156.28-21.40 158.66-19.06Q161.04-16.72 161.04-12.20L161.04-12.20L161.04 0L157.20 0L157.20-11.76Q157.20-14.84 155.72-16.40Q154.24-17.96 151.48-17.96L151.48-17.96Q148.36-17.96 146.56-16.14Q144.76-14.32 144.76-10.92L144.76-10.92L144.76 0L140.92 0L140.92-21.20L144.60-21.20L144.60-18Q145.76-19.64 147.74-20.52Q149.72-21.40 152.24-21.40L152.24-21.40Z M193.00 0.24Q190.40 0.24 188.00-0.46Q185.60-1.16 184.24-2.24L184.24-2.24L185.84-5.28Q187.24-4.28 189.24-3.68Q191.24-3.08 193.28-3.08L193.28-3.08Q198.32-3.08 198.32-5.96L198.32-5.96Q198.32-6.92 197.64-7.48Q196.96-8.04 195.94-8.30Q194.92-8.56 193.04-8.88L193.04-8.88Q190.48-9.28 188.86-9.80Q187.24-10.32 186.08-11.56Q184.92-12.80 184.92-15.04L184.92-15.04Q184.92-17.92 187.32-19.66Q189.72-21.40 193.76-21.40L193.76-21.40Q195.88-21.40 198.00-20.88Q200.12-20.36 201.48-19.48L201.48-19.48L199.84-16.44Q197.24-18.12 193.72-18.12L193.72-18.12Q191.28-18.12 190.00-17.32Q188.72-16.52 188.72-15.20L188.72-15.20Q188.72-14.16 189.44-13.56Q190.16-12.96 191.22-12.68Q192.28-12.40 194.20-12.04L194.20-12.04Q196.76-11.60 198.34-11.10Q199.92-10.60 201.04-9.40Q202.16-8.20 202.16-6.04L202.16-6.04Q202.16-3.16 199.70-1.46Q197.24 0.24 193.00 0.24L193.00 0.24Z M230.12-10.48Q230.12-10.04 230.04-9.32L230.04-9.32L212.84-9.32Q213.20-6.52 215.30-4.82Q217.40-3.12 220.52-3.12L220.52-3.12Q224.32-3.12 226.64-5.68L226.64-5.68L228.76-3.20Q227.32-1.52 225.18-0.64Q223.04 0.24 220.40 0.24L220.40 0.24Q217.04 0.24 214.44-1.14Q211.84-2.52 210.42-5Q209.00-7.48 209.00-10.60L209.00-10.60Q209.00-13.68 210.38-16.16Q211.76-18.64 214.18-20.02Q216.60-21.40 219.64-21.40L219.64-21.40Q222.68-21.40 225.06-20.02Q227.44-18.64 228.78-16.16Q230.12-13.68 230.12-10.48L230.12-10.48ZM219.64-18.16Q216.88-18.16 215.02-16.48Q213.16-14.80 212.84-12.08L212.84-12.08L226.44-12.08Q226.12-14.76 224.26-16.46Q222.40-18.16 219.64-18.16L219.64-18.16Z M243.12-17.64Q244.12-19.48 246.08-20.44Q248.04-21.40 250.84-21.40L250.84-21.40L250.84-17.68Q250.52-17.72 249.96-17.72L249.96-17.72Q246.84-17.72 245.06-15.86Q243.28-14 243.28-10.56L243.28-10.56L243.28 0L239.44 0L239.44-21.20L243.12-21.20L243.12-17.64Z M275.44-21.20L279.20-21.20L269.92 0L266 0L256.72-21.20L260.72-21.20L268-4.20L275.44-21.20Z M286.80 0L286.80-21.20L290.64-21.20L290.64 0L286.80 0ZM288.72-25.28Q287.60-25.28 286.86-26Q286.12-26.72 286.12-27.76L286.12-27.76Q286.12-28.80 286.86-29.54Q287.60-30.28 288.72-30.28L288.72-30.28Q289.84-30.28 290.58-29.58Q291.32-28.88 291.32-27.84L291.32-27.84Q291.32-26.76 290.58-26.02Q289.84-25.28 288.72-25.28L288.72-25.28Z M311.20 0.24Q307.96 0.24 305.42-1.16Q302.88-2.56 301.44-5.02Q300.00-7.48 300.00-10.60L300.00-10.60Q300.00-13.72 301.44-16.18Q302.88-18.64 305.42-20.02Q307.96-21.40 311.20-21.40L311.20-21.40Q314.08-21.40 316.34-20.24Q318.60-19.08 319.84-16.88L319.84-16.88L316.92-15Q315.92-16.52 314.44-17.28Q312.96-18.04 311.16-18.04L311.16-18.04Q309.08-18.04 307.42-17.12Q305.76-16.20 304.82-14.50Q303.88-12.80 303.88-10.60L303.88-10.60Q303.88-8.36 304.82-6.66Q305.76-4.96 307.42-4.04Q309.08-3.12 311.16-3.12L311.16-3.12Q312.96-3.12 314.44-3.88Q315.92-4.64 316.92-6.16L316.92-6.16L319.84-4.32Q318.60-2.12 316.34-0.94Q314.08 0.24 311.20 0.24L311.20 0.24Z M347.64-10.48Q347.64-10.04 347.56-9.32L347.56-9.32L330.36-9.32Q330.72-6.52 332.82-4.82Q334.92-3.12 338.04-3.12L338.04-3.12Q341.84-3.12 344.16-5.68L344.16-5.68L346.28-3.20Q344.84-1.52 342.70-0.64Q340.56 0.24 337.92 0.24L337.92 0.24Q334.56 0.24 331.96-1.14Q329.36-2.52 327.94-5Q326.52-7.48 326.52-10.60L326.52-10.60Q326.52-13.68 327.90-16.16Q329.28-18.64 331.70-20.02Q334.12-21.40 337.16-21.40L337.16-21.40Q340.20-21.40 342.58-20.02Q344.96-18.64 346.30-16.16Q347.64-13.68 347.64-10.48L347.64-10.48ZM337.16-18.16Q334.40-18.16 332.54-16.48Q330.68-14.80 330.36-12.08L330.36-12.08L343.96-12.08Q343.64-14.76 341.78-16.46Q339.92-18.16 337.16-18.16L337.16-18.16Z M363.04 0.24Q360.44 0.24 358.04-0.46Q355.64-1.16 354.28-2.24L354.28-2.24L355.88-5.28Q357.28-4.28 359.28-3.68Q361.28-3.08 363.32-3.08L363.32-3.08Q368.36-3.08 368.36-5.96L368.36-5.96Q368.36-6.92 367.68-7.48Q367.00-8.04 365.98-8.30Q364.96-8.56 363.08-8.88L363.08-8.88Q360.52-9.28 358.90-9.80Q357.28-10.32 356.12-11.56Q354.96-12.80 354.96-15.04L354.96-15.04Q354.96-17.92 357.36-19.66Q359.76-21.40 363.80-21.40L363.80-21.40Q365.92-21.40 368.04-20.88Q370.16-20.36 371.52-19.48L371.52-19.48L369.88-16.44Q367.28-18.12 363.76-18.12L363.76-18.12Q361.32-18.12 360.04-17.32Q358.76-16.52 358.76-15.20L358.76-15.20Q358.76-14.16 359.48-13.56Q360.20-12.96 361.26-12.68Q362.32-12.40 364.24-12.04L364.24-12.04Q366.80-11.60 368.38-11.10Q369.96-10.60 371.08-9.40Q372.20-8.20 372.20-6.04L372.20-6.04Q372.20-3.16 369.74-1.46Q367.28 0.24 363.04 0.24L363.04 0.24Z M403.48-21.40Q407.88-21.40 410.22-19.24Q412.56-17.08 412.56-12.80L412.56-12.80L412.56 0L408.92 0L408.92-2.80Q407.96-1.32 406.18-0.54Q404.40 0.24 401.96 0.24L401.96 0.24Q398.40 0.24 396.26-1.48Q394.12-3.20 394.12-6L394.12-6Q394.12-8.80 396.16-10.50Q398.20-12.20 402.64-12.20L402.64-12.20L408.72-12.20L408.72-12.96Q408.72-15.44 407.28-16.76Q405.84-18.08 403.04-18.08L403.04-18.08Q401.16-18.08 399.36-17.46Q397.56-16.84 396.32-15.80L396.32-15.80L394.72-18.68Q396.36-20 398.64-20.70Q400.92-21.40 403.48-21.40L403.48-21.40ZM402.60-2.72Q404.80-2.72 406.40-3.70Q408.00-4.68 408.72-6.48L408.72-6.48L408.72-9.44L402.80-9.44Q397.92-9.44 397.92-6.16L397.92-6.16Q397.92-4.56 399.16-3.64Q400.40-2.72 402.60-2.72L402.60-2.72Z M435.00-21.40Q439.04-21.40 441.42-19.06Q443.80-16.72 443.80-12.20L443.80-12.20L443.80 0L439.96 0L439.96-11.76Q439.96-14.84 438.48-16.40Q437.00-17.96 434.24-17.96L434.24-17.96Q431.12-17.96 429.32-16.14Q427.52-14.32 427.52-10.92L427.52-10.92L427.52 0L423.68 0L423.68-21.20L427.36-21.20L427.36-18Q428.52-19.64 430.50-20.52Q432.48-21.40 435.00-21.40L435.00-21.40Z M471.20-29.68L475.04-29.68L475.04 0L471.36 0L471.36-3.36Q470.08-1.60 468.12-0.68Q466.16 0.24 463.80 0.24L463.80 0.24Q460.72 0.24 458.28-1.12Q455.84-2.48 454.46-4.94Q453.08-7.40 453.08-10.60L453.08-10.60Q453.08-13.80 454.46-16.24Q455.84-18.68 458.28-20.04Q460.72-21.40 463.80-21.40L463.80-21.40Q466.08-21.40 468.00-20.54Q469.92-19.68 471.20-18L471.20-18L471.20-29.68ZM464.12-3.12Q466.12-3.12 467.76-4.06Q469.40-5 470.32-6.70Q471.24-8.40 471.24-10.60L471.24-10.60Q471.24-12.80 470.32-14.50Q469.40-16.20 467.76-17.12Q466.12-18.04 464.12-18.04L464.12-18.04Q462.08-18.04 460.46-17.12Q458.84-16.20 457.90-14.50Q456.96-12.80 456.96-10.60L456.96-10.60Q456.96-8.40 457.90-6.70Q458.84-5 460.46-4.06Q462.08-3.12 464.12-3.12L464.12-3.12Z M497.56-21.40Q500.64-21.40 503.08-20.04Q505.52-18.68 506.90-16.24Q508.28-13.80 508.28-10.60L508.28-10.60Q508.28-7.40 506.90-4.94Q505.52-2.48 503.08-1.12Q500.64 0.24 497.56 0.24L497.56 0.24Q495.20 0.24 493.24-0.68Q491.28-1.60 490.00-3.36L490.00-3.36L490.00 0L486.32 0L486.32-29.68L490.16-29.68L490.16-18Q491.44-19.68 493.36-20.54Q495.28-21.40 497.56-21.40L497.56-21.40ZM497.24-3.12Q499.28-3.12 500.90-4.06Q502.52-5 503.46-6.70Q504.40-8.40 504.40-10.60L504.40-10.60Q504.40-12.80 503.46-14.50Q502.52-16.20 500.90-17.12Q499.28-18.04 497.24-18.04L497.24-18.04Q495.24-18.04 493.60-17.12Q491.96-16.20 491.04-14.50Q490.12-12.80 490.12-10.60L490.12-10.60Q490.12-8.40 491.04-6.70Q491.96-5 493.60-4.06Q495.24-3.12 497.24-3.12L497.24-3.12Z M536.76-10.48Q536.76-10.04 536.68-9.32L536.68-9.32L519.48-9.32Q519.84-6.52 521.94-4.82Q524.04-3.12 527.16-3.12L527.16-3.12Q530.96-3.12 533.28-5.68L533.28-5.68L535.40-3.20Q533.96-1.52 531.82-0.64Q529.68 0.24 527.04 0.24L527.04 0.24Q523.68 0.24 521.08-1.14Q518.48-2.52 517.06-5Q515.64-7.48 515.64-10.60L515.64-10.60Q515.64-13.68 517.02-16.16Q518.40-18.64 520.82-20.02Q523.24-21.40 526.28-21.40L526.28-21.40Q529.32-21.40 531.70-20.02Q534.08-18.64 535.42-16.16Q536.76-13.68 536.76-10.48L536.76-10.48ZM526.28-18.16Q523.52-18.16 521.66-16.48Q519.80-14.80 519.48-12.08L519.48-12.08L533.08-12.08Q532.76-14.76 530.90-16.46Q529.04-18.16 526.28-18.16L526.28-18.16Z M552.16 0.24Q549.56 0.24 547.16-0.46Q544.76-1.16 543.40-2.24L543.40-2.24L545-5.28Q546.40-4.28 548.40-3.68Q550.40-3.08 552.44-3.08L552.44-3.08Q557.48-3.08 557.48-5.96L557.48-5.96Q557.48-6.92 556.80-7.48Q556.12-8.04 555.10-8.30Q554.08-8.56 552.20-8.88L552.20-8.88Q549.64-9.28 548.02-9.80Q546.40-10.32 545.24-11.56Q544.08-12.80 544.08-15.04L544.08-15.04Q544.08-17.92 546.48-19.66Q548.88-21.40 552.92-21.40L552.92-21.40Q555.04-21.40 557.16-20.88Q559.28-20.36 560.64-19.48L560.64-19.48L559-16.44Q556.40-18.12 552.88-18.12L552.88-18.12Q550.44-18.12 549.16-17.32Q547.88-16.52 547.88-15.20L547.88-15.20Q547.88-14.16 548.60-13.56Q549.32-12.96 550.38-12.68Q551.44-12.40 553.36-12.04L553.36-12.04Q555.92-11.60 557.50-11.10Q559.08-10.60 560.20-9.40Q561.32-8.20 561.32-6.04L561.32-6.04Q561.32-3.16 558.86-1.46Q556.40 0.24 552.16 0.24L552.16 0.24Z M580.84-4L582.04-1.24Q581.20-0.52 579.96-0.14Q578.72 0.24 577.40 0.24L577.40 0.24Q574.20 0.24 572.44-1.48Q570.68-3.20 570.68-6.40L570.68-6.40L570.68-18.04L567.08-18.04L567.08-21.20L570.68-21.20L570.68-25.84L574.52-25.84L574.52-21.20L580.60-21.20L580.60-18.04L574.52-18.04L574.52-6.56Q574.52-4.84 575.38-3.92Q576.24-3 577.84-3L577.84-3Q579.60-3 580.84-4L580.84-4Z M621.76-21.20L625.44-21.20L625.44 7.76L621.60 7.76L621.60-3.20Q620.28-1.52 618.38-0.64Q616.48 0.24 614.20 0.24L614.20 0.24Q611.12 0.24 608.68-1.12Q606.24-2.48 604.86-4.94Q603.48-7.40 603.48-10.60L603.48-10.60Q603.48-13.80 604.86-16.24Q606.24-18.68 608.68-20.04Q611.12-21.40 614.20-21.40L614.20-21.40Q616.56-21.40 618.52-20.50Q620.48-19.60 621.76-17.84L621.76-17.84L621.76-21.20ZM614.52-3.12Q616.52-3.12 618.16-4.06Q619.80-5 620.72-6.70Q621.64-8.40 621.64-10.60L621.64-10.60Q621.64-12.80 620.70-14.48Q619.76-16.16 618.14-17.10Q616.52-18.04 614.52-18.04L614.52-18.04Q612.48-18.04 610.86-17.12Q609.24-16.20 608.30-14.50Q607.36-12.80 607.36-10.60L607.36-10.60Q607.36-8.40 608.30-6.70Q609.24-5 610.86-4.06Q612.48-3.12 614.52-3.12L614.52-3.12Z M652.64-21.20L656.48-21.20L656.48 0L652.84 0L652.84-3.20Q651.68-1.56 649.78-0.66Q647.88 0.24 645.64 0.24L645.64 0.24Q641.40 0.24 638.96-2.10Q636.52-4.44 636.52-9L636.52-9L636.52-21.20L640.36-21.20L640.36-9.44Q640.36-6.36 641.84-4.78Q643.32-3.20 646.08-3.20L646.08-3.20Q649.12-3.20 650.88-5.04Q652.64-6.88 652.64-10.24L652.64-10.24L652.64-21.20Z M675.52-21.40Q679.92-21.40 682.26-19.24Q684.60-17.08 684.60-12.80L684.60-12.80L684.60 0L680.96 0L680.96-2.80Q680-1.32 678.22-0.54Q676.44 0.24 674 0.24L674 0.24Q670.44 0.24 668.30-1.48Q666.16-3.20 666.16-6L666.16-6Q666.16-8.80 668.20-10.50Q670.24-12.20 674.68-12.20L674.68-12.20L680.76-12.20L680.76-12.96Q680.76-15.44 679.32-16.76Q677.88-18.08 675.08-18.08L675.08-18.08Q673.20-18.08 671.40-17.46Q669.60-16.84 668.36-15.80L668.36-15.80L666.76-18.68Q668.40-20 670.68-20.70Q672.96-21.40 675.52-21.40L675.52-21.40ZM674.64-2.72Q676.84-2.72 678.44-3.70Q680.04-4.68 680.76-6.48L680.76-6.48L680.76-9.44L674.84-9.44Q669.96-9.44 669.96-6.16L669.96-6.16Q669.96-4.56 671.20-3.64Q672.44-2.72 674.64-2.72L674.64-2.72Z M695.72 0L695.72-29.68L699.56-29.68L699.56 0L695.72 0Z M710.88 0L710.88-21.20L714.72-21.20L714.72 0L710.88 0ZM712.80-25.28Q711.68-25.28 710.94-26Q710.20-26.72 710.20-27.76L710.20-27.76Q710.20-28.80 710.94-29.54Q711.68-30.28 712.80-30.28L712.80-30.28Q713.92-30.28 714.66-29.58Q715.40-28.88 715.40-27.84L715.40-27.84Q715.40-26.76 714.66-26.02Q713.92-25.28 712.80-25.28L712.80-25.28Z M736.76-4L737.96-1.24Q737.12-0.52 735.88-0.14Q734.64 0.24 733.32 0.24L733.32 0.24Q730.12 0.24 728.36-1.48Q726.60-3.20 726.60-6.40L726.60-6.40L726.60-18.04L723.00-18.04L723.00-21.20L726.60-21.20L726.60-25.84L730.44-25.84L730.44-21.20L736.52-21.20L736.52-18.04L730.44-18.04L730.44-6.56Q730.44-4.84 731.30-3.92Q732.16-3 733.76-3L733.76-3Q735.52-3 736.76-4L736.76-4Z M746.60 0L746.60-21.20L750.44-21.20L750.44 0L746.60 0ZM748.52-25.28Q747.40-25.28 746.66-26Q745.92-26.72 745.92-27.76L745.92-27.76Q745.92-28.80 746.66-29.54Q747.40-30.28 748.52-30.28L748.52-30.28Q749.64-30.28 750.38-29.58Q751.12-28.88 751.12-27.84L751.12-27.84Q751.12-26.76 750.38-26.02Q749.64-25.28 748.52-25.28L748.52-25.28Z M780.92-10.48Q780.92-10.04 780.84-9.32L780.84-9.32L763.64-9.32Q764.00-6.52 766.10-4.82Q768.20-3.12 771.32-3.12L771.32-3.12Q775.12-3.12 777.44-5.68L777.44-5.68L779.56-3.20Q778.12-1.52 775.98-0.64Q773.84 0.24 771.20 0.24L771.20 0.24Q767.84 0.24 765.24-1.14Q762.64-2.52 761.22-5Q759.80-7.48 759.80-10.60L759.80-10.60Q759.80-13.68 761.18-16.16Q762.56-18.64 764.98-20.02Q767.40-21.40 770.44-21.40L770.44-21.40Q773.48-21.40 775.86-20.02Q778.24-18.64 779.58-16.16Q780.92-13.68 780.92-10.48L780.92-10.48ZM770.44-18.16Q767.68-18.16 765.82-16.48Q763.96-14.80 763.64-12.08L763.64-12.08L777.24-12.08Q776.92-14.76 775.06-16.46Q773.20-18.16 770.44-18.16L770.44-18.16Z M796.32 0.24Q793.72 0.24 791.32-0.46Q788.92-1.16 787.56-2.24L787.56-2.24L789.16-5.28Q790.56-4.28 792.56-3.68Q794.56-3.08 796.60-3.08L796.60-3.08Q801.64-3.08 801.64-5.96L801.64-5.96Q801.64-6.92 800.96-7.48Q800.28-8.04 799.26-8.30Q798.24-8.56 796.36-8.88L796.36-8.88Q793.80-9.28 792.18-9.80Q790.56-10.32 789.40-11.56Q788.24-12.80 788.24-15.04L788.24-15.04Q788.24-17.92 790.64-19.66Q793.04-21.40 797.08-21.40L797.08-21.40Q799.20-21.40 801.32-20.88Q803.44-20.36 804.80-19.48L804.80-19.48L803.16-16.44Q800.56-18.12 797.04-18.12L797.04-18.12Q794.60-18.12 793.32-17.32Q792.04-16.52 792.04-15.20L792.04-15.20Q792.04-14.16 792.76-13.56Q793.48-12.96 794.54-12.68Q795.60-12.40 797.52-12.04L797.52-12.04Q800.08-11.60 801.66-11.10Q803.24-10.60 804.36-9.40Q805.48-8.20 805.48-6.04L805.48-6.04Q805.48-3.16 803.02-1.46Q800.56 0.24 796.32 0.24L796.32 0.24Z"/></g>
</svg>
</g><g opacity="1" transform="rotate(0 14.4674 265.2622)">
<svg width="399.6366" height="60" x="14.4674" y="265.2622" version="1.1" preserveAspectRatio="none" viewBox="2.64 -28.32 190.76000000000002 28.64">
  <g transform="matrix(1 0 0 1 0 0)" class="companyName"><path id="id-D6z1nYkh13" d="M9.48 0.32Q6.40 0.32 4.52-1.80Q2.64-3.92 2.64-7.40L2.64-7.40L2.64-27.60Q2.64-28 3.04-28L3.04-28L5.08-28Q5.48-28 5.48-27.60L5.48-27.60L5.48-7.08Q5.48-4.88 6.58-3.52Q7.68-2.16 9.48-2.16L9.48-2.16Q11.32-2.16 12.44-3.52Q13.56-4.88 13.56-7.08L13.56-7.08L13.56-27.60Q13.56-28 13.96-28L13.96-28L16-28Q16.40-28 16.40-27.60L16.40-27.60L16.40-7.40Q16.40-3.92 14.50-1.80Q12.60 0.32 9.48 0.32L9.48 0.32Z M33.12 0Q32.76 0 32.64-0.32L32.64-0.32L28.52-12.76Q28.48-12.88 28.36-12.88L28.36-12.88L24.92-12.88Q24.76-12.88 24.76-12.72L24.76-12.72L24.76-0.40Q24.76 0 24.36 0L24.36 0L22.32 0Q21.92 0 21.92-0.40L21.92-0.40L21.92-27.64Q21.92-28.04 22.32-28.04L22.32-28.04L28.92-28.04Q31.84-28.04 33.64-25.92Q35.44-23.80 35.44-20.36L35.44-20.36Q35.44-17.72 34.32-15.84Q33.20-13.96 31.28-13.24L31.28-13.24Q31.12-13.20 31.16-13.04L31.16-13.04L35.52-0.44L35.56-0.28Q35.56 0 35.20 0L35.20 0L33.12 0ZM24.92-25.56Q24.76-25.56 24.76-25.40L24.76-25.40L24.76-15.32Q24.76-15.16 24.92-15.16L24.92-15.16L28.52-15.16Q30.36-15.16 31.48-16.58Q32.60-18 32.60-20.32L32.60-20.32Q32.60-22.72 31.48-24.14Q30.36-25.56 28.52-25.56L28.52-25.56L24.92-25.56Z M45.76 0.32Q42.68 0.32 40.84-1.50Q39-3.32 39-6.36L39-6.36L39-21.64Q39-24.68 40.84-26.50Q42.68-28.32 45.76-28.32L45.76-28.32Q48.84-28.32 50.70-26.48Q52.56-24.64 52.56-21.60L52.56-21.60L52.56-19.88Q52.56-19.48 52.16-19.48L52.16-19.48L50.12-19.48Q49.72-19.48 49.72-19.88L49.72-19.88L49.72-21.68Q49.72-23.56 48.64-24.70Q47.56-25.84 45.76-25.84L45.76-25.84Q44-25.84 42.90-24.68Q41.80-23.52 41.80-21.68L41.80-21.68L41.80-6.32Q41.80-4.48 42.90-3.32Q44-2.16 45.76-2.16L45.76-2.16Q47.56-2.16 48.64-3.30Q49.72-4.44 49.72-6.32L49.72-6.32L49.72-11.44Q49.72-11.60 49.56-11.60L49.56-11.60L46.12-11.60Q45.72-11.60 45.72-12L45.72-12L45.72-13.68Q45.72-14.08 46.12-14.08L46.12-14.08L52.16-14.08Q52.56-14.08 52.56-13.68L52.56-13.68L52.56-6.36Q52.56-3.32 50.70-1.50Q48.84 0.32 45.76 0.32L45.76 0.32Z M70.12-25.92Q70.12-25.52 69.72-25.52L69.72-25.52L60.44-25.52Q60.28-25.52 60.28-25.36L60.28-25.36L60.28-15.44Q60.28-15.28 60.44-15.28L60.44-15.28L66.28-15.28Q66.68-15.28 66.68-14.88L66.68-14.88L66.68-13.16Q66.68-12.76 66.28-12.76L66.28-12.76L60.44-12.76Q60.28-12.76 60.28-12.60L60.28-12.60L60.28-2.64Q60.28-2.48 60.44-2.48L60.44-2.48L69.72-2.48Q70.12-2.48 70.12-2.08L70.12-2.08L70.12-0.40Q70.12 0 69.72 0L69.72 0L57.84 0Q57.44 0 57.44-0.40L57.44-0.40L57.44-27.60Q57.44-28 57.84-28L57.84-28L69.72-28Q70.12-28 70.12-27.60L70.12-27.60L70.12-25.92Z M75 0Q74.60 0 74.60-0.40L74.60-0.40L74.60-27.60Q74.60-28 75-28L75-28L77.12-28Q77.44-28 77.56-27.68L77.56-27.68L85.60-7.52Q85.64-7.40 85.72-7.40Q85.80-7.40 85.80-7.52L85.80-7.52L85.80-27.60Q85.80-28 86.20-28L86.20-28L88.20-28Q88.60-28 88.60-27.60L88.60-27.60L88.60-0.40Q88.60 0 88.20 0L88.20 0L86.08 0Q85.76 0 85.64-0.32L85.64-0.32L77.60-20.48Q77.56-20.60 77.48-20.58Q77.40-20.56 77.40-20.44L77.40-20.44L77.44-0.40Q77.44 0 77.04 0L77.04 0L75 0Z M106.60-28Q107-28 107-27.60L107-27.60L107-25.92Q107-25.52 106.60-25.52L106.60-25.52L101.32-25.52Q101.16-25.52 101.16-25.36L101.16-25.36L101.16-0.40Q101.16 0 100.76 0L100.76 0L98.72 0Q98.32 0 98.32-0.40L98.32-0.40L98.32-25.36Q98.32-25.52 98.16-25.52L98.16-25.52L93.20-25.52Q92.80-25.52 92.80-25.92L92.80-25.92L92.80-27.60Q92.80-28 93.20-28L93.20-28L106.60-28Z M131.52-28Q131.92-28 131.92-27.60L131.92-27.60L131.92-25.92Q131.92-25.52 131.52-25.52L131.52-25.52L126.24-25.52Q126.08-25.52 126.08-25.36L126.08-25.36L126.08-0.40Q126.08 0 125.68 0L125.68 0L123.64 0Q123.24 0 123.24-0.40L123.24-0.40L123.24-25.36Q123.24-25.52 123.08-25.52L123.08-25.52L118.12-25.52Q117.72-25.52 117.72-25.92L117.72-25.92L117.72-27.60Q117.72-28 118.12-28L118.12-28L131.52-28Z M146.28 0Q145.92 0 145.84-0.36L145.84-0.36L144.84-5.32Q144.84-5.40 144.78-5.44Q144.72-5.48 144.64-5.48L144.64-5.48L137.40-5.48Q137.32-5.48 137.26-5.44Q137.20-5.40 137.20-5.32L137.20-5.32L136.16-0.36Q136.12 0 135.72 0L135.72 0L133.68 0Q133.48 0 133.38-0.12Q133.28-0.24 133.32-0.44L133.32-0.44L139.36-27.64Q139.44-28 139.80-28L139.80-28L142.20-28Q142.60-28 142.64-27.64L142.64-27.64L148.72-0.44L148.72-0.36Q148.72 0 148.36 0L148.36 0L146.28 0ZM137.76-7.96Q137.76-7.80 137.88-7.80L137.88-7.80L144.16-7.80Q144.28-7.80 144.28-7.96L144.28-7.96L141.12-23.36Q141.08-23.48 141.04-23.48Q141-23.48 140.96-23.36L140.96-23.36L137.76-7.96Z M152.24 0Q152.04 0 151.94-0.14Q151.84-0.28 151.92-0.48L151.92-0.48L157.52-13.88Q157.60-14 157.52-14.12L157.52-14.12L151.92-27.52L151.88-27.68Q151.88-28 152.24-28L152.24-28L154.36-28Q154.68-28 154.80-27.68L154.80-27.68L158.96-17.04Q159.00-16.92 159.08-16.92Q159.16-16.92 159.20-17.04L159.20-17.04L163.36-27.68Q163.48-28 163.80-28L163.80-28L165.92-28Q166.12-28 166.22-27.86Q166.32-27.72 166.24-27.52L166.24-27.52L160.60-14.08Q160.56-13.96 160.60-13.84L160.60-13.84L166.24-0.48L166.28-0.32Q166.28 0 165.92 0L165.92 0L163.80 0Q163.48 0 163.36-0.32L163.36-0.32L159.20-10.92Q159.16-11.04 159.08-11.04Q159.00-11.04 158.96-10.92L158.96-10.92L154.80-0.32Q154.68 0 154.36 0L154.36 0L152.24 0Z M171.04 0Q170.64 0 170.64-0.40L170.64-0.40L170.64-27.60Q170.64-28 171.04-28L171.04-28L173.08-28Q173.48-28 173.48-27.60L173.48-27.60L173.48-0.40Q173.48 0 173.08 0L173.08 0L171.04 0Z M185.04 0.32Q182.08 0.32 180.24-1.64Q178.40-3.60 178.40-6.76L178.40-6.76L178.40-7.72Q178.40-8.12 178.80-8.12L178.80-8.12L180.80-8.12Q181.20-8.12 181.20-7.72L181.20-7.72L181.20-6.88Q181.20-4.76 182.28-3.46Q183.36-2.16 185.04-2.16L185.04-2.16Q186.72-2.16 187.84-3.40Q188.96-4.64 188.96-6.68L188.96-6.68Q188.96-8.04 188.42-9.02Q187.88-10 187.02-10.74Q186.16-11.48 184.16-13L184.16-13Q182.16-14.48 181.00-15.54Q179.84-16.60 179.10-18.08Q178.36-19.56 178.36-21.56L178.36-21.56Q178.36-24.68 180.16-26.50Q181.96-28.32 184.84-28.32L184.84-28.32Q187.88-28.32 189.70-26.34Q191.52-24.36 191.52-21.08L191.52-21.08L191.52-20.08Q191.52-19.68 191.12-19.68L191.12-19.68L189.12-19.68Q188.72-19.68 188.72-20.08L188.72-20.08L188.72-21.12Q188.72-23.24 187.66-24.54Q186.60-25.84 184.84-25.84L184.84-25.84Q183.24-25.84 182.20-24.70Q181.16-23.56 181.16-21.48L181.16-21.48Q181.16-20.24 181.62-19.30Q182.08-18.36 183-17.52Q183.92-16.68 185.72-15.32L185.72-15.32Q188.12-13.56 189.30-12.46Q190.48-11.36 191.12-10.06Q191.76-8.76 191.76-6.92L191.76-6.92Q191.76-3.64 189.88-1.66Q188 0.32 185.04 0.32L185.04 0.32Z"/></g>
</svg>
</g></svg></svg>