<svg version="1.1" preserveAspectRatio="none" xmlns="http://www.w3.org/2000/svg" width="500" height="500" viewBox="0 0 500 500"><rect width="100%" height="100%" fill="#0F2D49" fill-opacity="1"/><svg viewBox="144.2719 171.0371 296.1411 156" width="417" height="219.66555807349943" x="41.5px" y="140.1672px" xmlns="http://www.w3.org/2000/svg" xmlns:xlink="http://www.w3.org/1999/xlink" preserveAspectRatio="none"><defs></defs><style>.companyName {fill:#CCBF90;fill-opacity:1;}.icon3-str {stroke:#EB63DD;stroke-opacity:1;}.shapeStroke-str {stroke:#CCBF90;stroke-opacity:1;}.text {fill:#E9E9E9;fill-opacity:1;}</style><g opacity="1" transform="rotate(0 165.2719 171.0371)">
<svg width="275.1411" height="120" x="165.2719" y="171.0371" version="1.1" preserveAspectRatio="none" viewBox="0.76 -28.88 163.8 71.44">
  <g transform="matrix(1 0 0 1 0 0)" class="companyName"><path id="id-D6z1nYkh11" d="M26.84-28.32L26.84-27.52Q25.52-27.32 24.90-26.84Q24.28-26.36 24.06-25.32Q23.84-24.28 23.84-22.24L23.84-22.24L23.84-11.64Q23.84-5.92 22.20-3.16L22.20-3.16Q21.12-1.40 19.08-0.42Q17.04 0.56 14.08 0.56L14.08 0.56Q9.44 0.56 6.88-1.44L6.88-1.44Q5.04-2.92 4.40-5.18Q3.76-7.44 3.76-11.52L3.76-11.52L3.76-24.08Q3.76-25.60 3.54-26.28Q3.32-26.96 2.70-27.20Q2.08-27.44 0.76-27.52L0.76-27.52L0.76-28.32Q2.80-28.20 7-28.20L7-28.20Q11.16-28.20 13.36-28.32L13.36-28.32L13.36-27.52Q11.92-27.44 11.26-27.20Q10.60-26.96 10.36-26.28Q10.12-25.60 10.12-24.08L10.12-24.08L10.12-9Q10.12-4.80 11.34-2.82Q12.56-0.84 15.64-0.84L15.64-0.84Q19.64-0.84 21.28-3.54Q22.92-6.24 22.92-11.20L22.92-11.20L22.92-21.76Q22.92-24.08 22.64-25.20Q22.36-26.32 21.56-26.82Q20.76-27.32 19.04-27.52L19.04-27.52L19.04-28.32Q20.56-28.20 23.36-28.20L23.36-28.20Q25.60-28.20 26.84-28.32L26.84-28.32Z M55.48-2.24L56.04-1.76Q54.96-0.52 53.72 0.02Q52.48 0.56 50.72 0.56L50.72 0.56Q48.40 0.56 47.06-0.42Q45.72-1.40 45.32-3.76L45.32-3.76L44.60-7.76Q44.08-10.68 43.34-12.06Q42.60-13.44 40.88-13.44L40.88-13.44L38.28-13.44L38.28-4.24Q38.28-2.72 38.50-2.04Q38.72-1.36 39.32-1.12Q39.92-0.88 41.28-0.80L41.28-0.80L41.28 0Q39.12-0.12 35.24-0.12L35.24-0.12Q30.96-0.12 28.92 0L28.92 0L28.92-0.80Q30.24-0.88 30.86-1.12Q31.48-1.36 31.70-2.04Q31.92-2.72 31.92-4.24L31.92-4.24L31.92-24.08Q31.92-25.60 31.70-26.28Q31.48-26.96 30.86-27.20Q30.24-27.44 28.92-27.52L28.92-27.52L28.92-28.32Q30.96-28.20 35-28.20L35-28.20L39.44-28.24Q40.24-28.28 41.28-28.28L41.28-28.28Q46.80-28.28 49.58-26.48Q52.36-24.68 52.36-21.32L52.36-21.32Q52.36-18.48 50.28-16.32Q48.20-14.16 43.40-13.60L43.40-13.60Q47-13.28 48.76-12.04Q50.52-10.80 51.04-8.32L51.04-8.32L51.96-4.20Q52.28-2.60 52.70-1.96Q53.12-1.32 53.88-1.32L53.88-1.32Q54.36-1.36 54.70-1.56Q55.04-1.76 55.48-2.24L55.48-2.24ZM40.76-27.52Q39.68-27.52 39.18-27.24Q38.68-26.96 38.48-26.24Q38.28-25.52 38.28-24.08L38.28-24.08L38.28-14.24L40-14.24Q43.28-14.24 44.50-15.98Q45.72-17.72 45.72-20.88L45.72-20.88Q45.72-24.16 44.56-25.84Q43.40-27.52 40.76-27.52L40.76-27.52Z M71.44-28.88Q73.92-28.88 75.62-28.20Q77.32-27.52 78.96-26.28L78.96-26.28Q79.44-25.92 79.76-25.92L79.76-25.92Q80.16-25.92 80.40-26.50Q80.64-27.08 80.76-28.32L80.76-28.32L81.68-28.32Q81.52-25.60 81.52-18.64L81.52-18.64L80.60-18.64Q80.28-21.36 79.66-23.04Q79.04-24.72 77.60-25.88L77.60-25.88Q76.64-26.80 75.24-27.32Q73.84-27.84 72.36-27.84L72.36-27.84Q69.56-27.84 67.70-25.94Q65.84-24.04 64.96-20.92Q64.08-17.80 64.08-14.08L64.08-14.08Q64.08-0.24 71.76-0.24L71.76-0.24Q73.52-0.24 74.60-1.04L74.60-1.04Q75.12-1.40 75.34-1.88Q75.56-2.36 75.56-3.12L75.56-3.12L75.56-7.04Q75.56-8.92 75.24-9.78Q74.92-10.64 74.10-10.96Q73.28-11.28 71.52-11.36L71.52-11.36L71.52-12.16Q74-12.04 78.36-12.04L78.36-12.04Q81.92-12.04 83.72-12.16L83.72-12.16L83.72-11.36Q82.92-11.28 82.56-11.04Q82.20-10.80 82.06-10.12Q81.92-9.44 81.92-7.92L81.92-7.92L81.92 0L81.12 0Q81.08-0.84 80.78-1.56Q80.48-2.28 79.96-2.28L79.96-2.28Q79.28-2.28 77.80-1.44L77.80-1.44Q74.32 0.56 71.24 0.56L71.24 0.56Q64.32 0.56 60.64-3.22Q56.96-7 56.96-13.84L56.96-13.84Q56.96-18.32 58.82-21.72Q60.68-25.12 63.96-27Q67.24-28.88 71.44-28.88L71.44-28.88Z M107.92-6.08Q107.92-2.40 108.20 0L108.20 0Q105.48-0.12 99.04-0.12L99.04-0.12Q90.32-0.12 86 0L86 0L86-0.80Q87.32-0.88 87.94-1.12Q88.56-1.36 88.78-2.04Q89-2.72 89-4.24L89-4.24L89-24.08Q89-25.60 88.78-26.28Q88.56-26.96 87.94-27.20Q87.32-27.44 86-27.52L86-27.52L86-28.32Q90.32-28.20 99.04-28.20L99.04-28.20Q104.92-28.20 107.40-28.32L107.40-28.32Q107.12-25 107.12-22.40L107.12-22.40Q107.12-20.64 107.24-19.68L107.24-19.68L106.32-19.68Q105.72-23.96 104.16-25.68Q102.60-27.40 99.76-27.40L99.76-27.40L98.12-27.40Q96.88-27.40 96.32-27.20Q95.76-27 95.56-26.42Q95.36-25.84 95.36-24.56L95.36-24.56L95.36-14.64L96.64-14.64Q98.76-14.64 99.86-16.20Q100.96-17.76 101.40-19.92L101.40-19.92L102.32-19.92Q102.20-18.24 102.20-16.16L102.20-16.16L102.20-14.24Q102.20-12.20 102.44-8.56L102.44-8.56L101.52-8.56Q100.68-13.84 96.64-13.84L96.64-13.84L95.36-13.84L95.36-3.76Q95.36-2.48 95.56-1.90Q95.76-1.32 96.32-1.12Q96.88-0.92 98.12-0.92L98.12-0.92L100.08-0.92Q102.92-0.92 104.66-2.86Q106.40-4.80 107.12-9.44L107.12-9.44L108.04-9.44Q107.92-8.12 107.92-6.08L107.92-6.08Z M137.72-28.32L137.72-27.52Q136.40-27.32 135.78-26.84Q135.16-26.36 134.94-25.32Q134.72-24.28 134.72-22.24L134.72-22.24L134.72 0.08L133.76 0.04L132.68 0.08L115.32-21.92L115.32-6.56Q115.32-4.20 115.56-3.10Q115.80-2 116.60-1.50Q117.40-1 119.20-0.80L119.20-0.80L119.20 0Q117.64-0.12 114.88-0.12L114.88-0.12Q112.68-0.12 111.40 0L111.40 0L111.40-0.80Q112.72-1 113.34-1.48Q113.96-1.96 114.18-3Q114.40-4.04 114.40-6.08L114.40-6.08L114.40-24.08Q114.40-25.60 114.18-26.28Q113.96-26.96 113.34-27.20Q112.72-27.44 111.40-27.52L111.40-27.52L111.40-28.32Q112.68-28.20 114.88-28.20L114.88-28.20Q116.88-28.20 118.32-28.32L118.32-28.32L133.80-9.24L133.80-21.76Q133.80-24.12 133.56-25.22Q133.32-26.32 132.52-26.82Q131.72-27.32 129.92-27.52L129.92-27.52L129.92-28.32Q131.48-28.20 134.24-28.20L134.24-28.20Q136.48-28.20 137.72-28.32L137.72-28.32Z M164.56-28.32Q164.28-24.52 164.28-21.52L164.28-21.52Q164.28-19.64 164.40-18.48L164.40-18.48L163.48-18.48Q162.52-23.40 160.86-25.40Q159.20-27.40 156.32-27.40L156.32-27.40L155.40-27.40L155.40-4.56Q155.40-2.88 155.74-2.12Q156.08-1.36 156.94-1.10Q157.80-0.84 159.68-0.80L159.68-0.80L159.68 0Q154.64-0.12 152.08-0.12L152.08-0.12Q149.56-0.12 144.76 0L144.76 0L144.76-0.80Q146.64-0.84 147.50-1.10Q148.36-1.36 148.70-2.12Q149.04-2.88 149.04-4.56L149.04-4.56L149.04-27.40L148.16-27.40Q146.24-27.40 144.90-26.56Q143.56-25.72 142.60-23.78Q141.64-21.84 140.96-18.48L140.96-18.48L140.04-18.48Q140.16-19.64 140.16-21.52L140.16-21.52Q140.16-24.52 139.88-28.32L139.88-28.32Q143.52-28.20 152.24-28.20L152.24-28.20Q160.96-28.20 164.56-28.32L164.56-28.32Z M25.44 13.68Q25.16 17.48 25.16 20.48L25.16 20.48Q25.16 22.36 25.28 23.52L25.28 23.52L24.36 23.52Q23.40 18.60 21.74 16.60Q20.08 14.60 17.20 14.60L17.20 14.60L16.28 14.60L16.28 37.44Q16.28 39.12 16.62 39.88Q16.96 40.64 17.82 40.90Q18.68 41.16 20.56 41.20L20.56 41.20L20.56 42Q15.52 41.88 12.96 41.88L12.96 41.88Q10.44 41.88 5.64 42L5.64 42L5.64 41.20Q7.52 41.16 8.38 40.90Q9.24 40.64 9.58 39.88Q9.92 39.12 9.92 37.44L9.92 37.44L9.92 14.60L9.04 14.60Q7.12 14.60 5.78 15.44Q4.44 16.28 3.48 18.22Q2.52 20.16 1.84 23.52L1.84 23.52L0.92 23.52Q1.04 22.36 1.04 20.48L1.04 20.48Q1.04 17.48 0.76 13.68L0.76 13.68Q4.40 13.80 13.12 13.80L13.12 13.80Q21.84 13.80 25.44 13.68L25.44 13.68Z M48.60 38.64Q49.12 39.96 49.80 40.56Q50.48 41.16 51.12 41.20L51.12 41.20L51.12 42Q48.72 41.88 45.04 41.88L45.04 41.88Q40.96 41.88 38.96 42L38.96 42L38.96 41.20Q40.48 41.12 41.12 40.82Q41.76 40.52 41.76 39.76L41.76 39.76Q41.76 39.04 41.28 37.84L41.28 37.84L38.88 31.28L30.16 31.28L29.12 34.04Q28.00 36.92 28.00 38.48L28.00 38.48Q28.00 39.96 28.90 40.54Q29.80 41.12 31.56 41.20L31.56 41.20L31.56 42Q28.84 41.88 26.60 41.88L26.60 41.88Q24.76 41.88 23.56 42L23.56 42L23.56 41.20Q25.52 40.84 27.00 37L27.00 37L36.12 13.60Q36.56 13.64 37.52 13.64L37.52 13.64Q38.48 13.64 38.88 13.60L38.88 13.60L48.60 38.64ZM30.48 30.48L38.60 30.48L34.64 19.68L30.48 30.48Z M76.40 39.16Q77.20 40.32 77.68 40.72Q78.16 41.12 78.96 41.16L78.96 41.16L78.96 42Q74.80 41.84 73.48 41.84L73.48 41.84Q72.20 41.84 67.88 41.96L67.88 41.96Q67.56 42 67.04 42L67.04 42L67.04 41.16Q68.48 41.16 69.08 41.02Q69.68 40.88 69.68 40.48L69.68 40.48Q69.68 40.20 69.40 39.80L69.40 39.80L62.68 29.92L59.48 34.28Q57.64 36.76 57.64 38.48L57.64 38.48Q57.64 39.72 58.54 40.42Q59.44 41.12 61.04 41.20L61.04 41.20L61.04 42Q58.76 41.88 54.72 41.88L54.72 41.88Q52.32 41.88 51.04 42L51.04 42L51.04 41.20Q53.80 40.32 56.84 36.32L56.84 36.32L62.16 29.16L53.52 16.48Q52.72 15.28 52.24 14.90Q51.76 14.52 50.96 14.48L50.96 14.48L50.96 13.64Q51.44 13.64 51.76 13.68L51.76 13.68Q55.60 13.80 56.68 13.80L56.68 13.80Q60.16 13.80 62.80 13.64L62.80 13.64L62.80 14.48Q61.44 14.48 60.84 14.66Q60.24 14.84 60.24 15.24L60.24 15.24Q60.24 15.56 60.56 16L60.56 16L66.52 24.72L69.48 20.72Q71.36 18.24 71.36 16.68L71.36 16.68Q71.36 15.68 70.60 15.12Q69.84 14.56 68.44 14.48L68.44 14.48L68.44 13.68Q70.72 13.80 73.48 13.80L73.48 13.80Q75.88 13.80 77.16 13.68L77.16 13.68L77.16 14.48Q75.88 14.84 74.58 15.96Q73.28 17.08 72.12 18.68L72.12 18.68L67.04 25.48L76.40 39.16Z M92.20 13.68L92.20 14.48Q90.84 14.56 90.24 14.80Q89.64 15.04 89.42 15.72Q89.20 16.40 89.20 17.92L89.20 17.92L89.20 37.76Q89.20 39.28 89.42 39.96Q89.64 40.64 90.24 40.88Q90.84 41.12 92.20 41.20L92.20 41.20L92.20 42Q90.04 41.88 86.16 41.88L86.16 41.88Q81.88 41.88 79.84 42L79.84 42L79.84 41.20Q81.16 41.12 81.78 40.88Q82.40 40.64 82.62 39.96Q82.84 39.28 82.84 37.76L82.84 37.76L82.84 17.92Q82.84 16.40 82.62 15.72Q82.40 15.04 81.78 14.80Q81.16 14.56 79.84 14.48L79.84 14.48L79.84 13.68Q81.88 13.80 86.16 13.80L86.16 13.80Q90.04 13.80 92.20 13.68L92.20 13.68Z M104.88 13.16Q106.96 13.16 108.20 13.56Q109.44 13.96 110.72 14.72L110.72 14.72Q111.16 14.96 111.50 15.12Q111.84 15.28 112.08 15.28L112.08 15.28Q112.44 15.28 112.64 14.86Q112.84 14.44 112.96 13.52L112.96 13.52L113.88 13.52Q113.68 16.20 113.68 22.64L113.68 22.64L112.76 22.64Q112.60 20.48 111.78 18.52Q110.96 16.56 109.46 15.34Q107.96 14.12 105.96 14.12L105.96 14.12Q104.00 14.12 102.78 15.22Q101.56 16.32 101.56 18.20L101.56 18.20Q101.56 19.60 102.16 20.64Q102.76 21.68 103.84 22.54Q104.92 23.40 107.16 24.88L107.16 24.88L108.44 25.76Q110.80 27.32 112.16 28.48Q113.52 29.64 114.38 31.18Q115.24 32.72 115.24 34.76L115.24 34.76Q115.24 37.32 113.92 39.06Q112.60 40.80 110.34 41.68Q108.08 42.56 105.32 42.56L105.32 42.56Q103.08 42.56 101.60 42.16Q100.12 41.76 98.88 41.08L98.88 41.08Q98.00 40.52 97.52 40.52L97.52 40.52Q97.16 40.52 96.96 40.94Q96.76 41.36 96.64 42.28L96.64 42.28L95.72 42.28Q95.88 39.76 95.88 31.48L95.88 31.48L96.80 31.48Q97.08 35.96 98.80 38.74Q100.52 41.52 104.08 41.52L104.08 41.52Q106.24 41.52 107.64 40.36Q109.04 39.20 109.04 37.04L109.04 37.04Q109.04 34.80 107.60 33.20Q106.16 31.60 103.04 29.60L103.04 29.60Q100.64 28.04 99.20 26.88Q97.76 25.72 96.84 24.14Q95.92 22.56 95.92 20.48L95.92 20.48Q95.92 18.08 97.14 16.42Q98.36 14.76 100.40 13.96Q102.44 13.16 104.88 13.16L104.88 13.16Z"/></g>
</svg>
</g><g opacity="1" transform="rotate(0 144.2719 171.0371)">
<svg width="3" height="120" x="144.2719" y="171.0371" version="1.1" preserveAspectRatio="none" viewBox="0 0 3 120">
  <rect x="0" y="0" width="3" height="120" class="companyName shapeStroke-str" style="stroke-width:0;" rx="0px" ry="0px" />
</svg>
</g><g opacity="1" transform="rotate(0 144.2719 311.0371)">
<svg width="293.4326" height="16" x="144.2719" y="311.0371" version="1.1" preserveAspectRatio="none" viewBox="4.2 -30.28 697.64 38.040000000000006">
  <g transform="matrix(1 0 0 1 0 0)" class="text"><path id="id-D-YM9nyY435" d="M23.04-14.52Q25.48-13.84 26.88-12.06Q28.28-10.28 28.28-7.56L28.28-7.56Q28.28-3.92 25.54-1.96Q22.80 0 17.56 0L17.56 0L4.20 0L4.20-28L16.76-28Q21.56-28 24.18-26.08Q26.80-24.16 26.80-20.76L26.80-20.76Q26.80-18.56 25.78-16.96Q24.76-15.36 23.04-14.52L23.04-14.52ZM16.40-24.76L8.20-24.76L8.20-15.80L16.40-15.80Q19.48-15.80 21.14-16.94Q22.80-18.08 22.80-20.28L22.80-20.28Q22.80-22.48 21.14-23.62Q19.48-24.76 16.40-24.76L16.40-24.76ZM17.40-3.24Q20.80-3.24 22.52-4.36Q24.24-5.48 24.24-7.88L24.24-7.88Q24.24-12.56 17.40-12.56L17.40-12.56L8.20-12.56L8.20-3.24L17.40-3.24Z M53.88-10.48Q53.88-10.04 53.80-9.32L53.80-9.32L36.60-9.32Q36.96-6.52 39.06-4.82Q41.16-3.12 44.28-3.12L44.28-3.12Q48.08-3.12 50.40-5.68L50.40-5.68L52.52-3.20Q51.08-1.52 48.94-0.64Q46.80 0.24 44.16 0.24L44.16 0.24Q40.80 0.24 38.20-1.14Q35.60-2.52 34.18-5Q32.76-7.48 32.76-10.60L32.76-10.60Q32.76-13.68 34.14-16.16Q35.52-18.64 37.94-20.02Q40.36-21.40 43.40-21.40L43.40-21.40Q46.44-21.40 48.82-20.02Q51.20-18.64 52.54-16.16Q53.88-13.68 53.88-10.48L53.88-10.48ZM43.40-18.16Q40.64-18.16 38.78-16.48Q36.92-14.80 36.60-12.08L36.60-12.08L50.20-12.08Q49.88-14.76 48.02-16.46Q46.16-18.16 43.40-18.16L43.40-18.16Z M66.08 0.24Q63.48 0.24 61.08-0.46Q58.68-1.16 57.32-2.24L57.32-2.24L58.92-5.28Q60.32-4.28 62.32-3.68Q64.32-3.08 66.36-3.08L66.36-3.08Q71.40-3.08 71.40-5.96L71.40-5.96Q71.40-6.92 70.72-7.48Q70.04-8.04 69.02-8.30Q68-8.56 66.12-8.88L66.12-8.88Q63.56-9.28 61.94-9.80Q60.32-10.32 59.16-11.56Q58-12.80 58-15.04L58-15.04Q58-17.92 60.40-19.66Q62.80-21.40 66.84-21.40L66.84-21.40Q68.96-21.40 71.08-20.88Q73.20-20.36 74.56-19.48L74.56-19.48L72.92-16.44Q70.32-18.12 66.80-18.12L66.80-18.12Q64.36-18.12 63.08-17.32Q61.80-16.52 61.80-15.20L61.80-15.20Q61.80-14.16 62.52-13.56Q63.24-12.96 64.30-12.68Q65.36-12.40 67.28-12.04L67.28-12.04Q69.84-11.60 71.42-11.10Q73-10.60 74.12-9.40Q75.24-8.20 75.24-6.04L75.24-6.04Q75.24-3.16 72.78-1.46Q70.32 0.24 66.08 0.24L66.08 0.24Z M91.56-4L92.76-1.24Q91.92-0.52 90.68-0.14Q89.44 0.24 88.12 0.24L88.12 0.24Q84.92 0.24 83.16-1.48Q81.40-3.20 81.40-6.40L81.40-6.40L81.40-18.04L77.80-18.04L77.80-21.20L81.40-21.20L81.40-25.84L85.24-25.84L85.24-21.20L91.32-21.20L91.32-18.04L85.24-18.04L85.24-6.56Q85.24-4.84 86.10-3.92Q86.96-3 88.56-3L88.56-3Q90.32-3 91.56-4L91.56-4Z M109.76 0L109.76-21.20L113.60-21.20L113.60 0L109.76 0ZM111.68-25.28Q110.56-25.28 109.82-26Q109.08-26.72 109.08-27.76L109.08-27.76Q109.08-28.80 109.82-29.54Q110.56-30.28 111.68-30.28L111.68-30.28Q112.80-30.28 113.54-29.58Q114.28-28.88 114.28-27.84L114.28-27.84Q114.28-26.76 113.54-26.02Q112.80-25.28 111.68-25.28L111.68-25.28Z M133.04-21.40Q137.08-21.40 139.46-19.06Q141.84-16.72 141.84-12.20L141.84-12.20L141.84 0L138 0L138-11.76Q138-14.84 136.52-16.40Q135.04-17.96 132.28-17.96L132.28-17.96Q129.16-17.96 127.36-16.14Q125.56-14.32 125.56-10.92L125.56-10.92L125.56 0L121.72 0L121.72-21.20L125.40-21.20L125.40-18Q126.56-19.64 128.54-20.52Q130.52-21.40 133.04-21.40L133.04-21.40Z M167.40 0.24Q164.80 0.24 162.40-0.46Q160-1.16 158.64-2.24L158.64-2.24L160.24-5.28Q161.64-4.28 163.64-3.68Q165.64-3.08 167.68-3.08L167.68-3.08Q172.72-3.08 172.72-5.96L172.72-5.96Q172.72-6.92 172.04-7.48Q171.36-8.04 170.34-8.30Q169.32-8.56 167.44-8.88L167.44-8.88Q164.88-9.28 163.26-9.80Q161.64-10.32 160.48-11.56Q159.32-12.80 159.32-15.04L159.32-15.04Q159.32-17.92 161.72-19.66Q164.12-21.40 168.16-21.40L168.16-21.40Q170.28-21.40 172.40-20.88Q174.52-20.36 175.88-19.48L175.88-19.48L174.24-16.44Q171.64-18.12 168.12-18.12L168.12-18.12Q165.68-18.12 164.40-17.32Q163.12-16.52 163.12-15.20L163.12-15.20Q163.12-14.16 163.84-13.56Q164.56-12.96 165.62-12.68Q166.68-12.40 168.60-12.04L168.60-12.04Q171.16-11.60 172.74-11.10Q174.32-10.60 175.44-9.40Q176.56-8.20 176.56-6.04L176.56-6.04Q176.56-3.16 174.10-1.46Q171.64 0.24 167.40 0.24L167.40 0.24Z M201.32-10.48Q201.32-10.04 201.24-9.32L201.24-9.32L184.04-9.32Q184.40-6.52 186.50-4.82Q188.60-3.12 191.72-3.12L191.72-3.12Q195.52-3.12 197.84-5.68L197.84-5.68L199.96-3.20Q198.52-1.52 196.38-0.64Q194.24 0.24 191.60 0.24L191.60 0.24Q188.24 0.24 185.64-1.14Q183.04-2.52 181.62-5Q180.20-7.48 180.20-10.60L180.20-10.60Q180.20-13.68 181.58-16.16Q182.96-18.64 185.38-20.02Q187.80-21.40 190.84-21.40L190.84-21.40Q193.88-21.40 196.26-20.02Q198.64-18.64 199.98-16.16Q201.32-13.68 201.32-10.48L201.32-10.48ZM190.84-18.16Q188.08-18.16 186.22-16.48Q184.36-14.80 184.04-12.08L184.04-12.08L197.64-12.08Q197.32-14.76 195.46-16.46Q193.60-18.16 190.84-18.16L190.84-18.16Z M211.12-17.64Q212.12-19.48 214.08-20.44Q216.04-21.40 218.84-21.40L218.84-21.40L218.84-17.68Q218.52-17.72 217.96-17.72L217.96-17.72Q214.84-17.72 213.06-15.86Q211.28-14 211.28-10.56L211.28-10.56L211.28 0L207.44 0L207.44-21.20L211.12-21.20L211.12-17.64Z M240.24-21.20L244.00-21.20L234.72 0L230.80 0L221.52-21.20L225.52-21.20L232.80-4.20L240.24-21.20Z M248.40 0L248.40-21.20L252.24-21.20L252.24 0L248.40 0ZM250.32-25.28Q249.20-25.28 248.46-26Q247.72-26.72 247.72-27.76L247.72-27.76Q247.72-28.80 248.46-29.54Q249.20-30.28 250.32-30.28L250.32-30.28Q251.44-30.28 252.18-29.58Q252.92-28.88 252.92-27.84L252.92-27.84Q252.92-26.76 252.18-26.02Q251.44-25.28 250.32-25.28L250.32-25.28Z M269.60 0.24Q266.36 0.24 263.82-1.16Q261.28-2.56 259.84-5.02Q258.40-7.48 258.40-10.60L258.40-10.60Q258.40-13.72 259.84-16.18Q261.28-18.64 263.82-20.02Q266.36-21.40 269.60-21.40L269.60-21.40Q272.48-21.40 274.74-20.24Q277-19.08 278.24-16.88L278.24-16.88L275.32-15Q274.32-16.52 272.84-17.28Q271.36-18.04 269.56-18.04L269.56-18.04Q267.48-18.04 265.82-17.12Q264.16-16.20 263.22-14.50Q262.28-12.80 262.28-10.60L262.28-10.60Q262.28-8.36 263.22-6.66Q264.16-4.96 265.82-4.04Q267.48-3.12 269.56-3.12L269.56-3.12Q271.36-3.12 272.84-3.88Q274.32-4.64 275.32-6.16L275.32-6.16L278.24-4.32Q277-2.12 274.74-0.94Q272.48 0.24 269.60 0.24L269.60 0.24Z M302.84-10.48Q302.84-10.04 302.76-9.32L302.76-9.32L285.56-9.32Q285.92-6.52 288.02-4.82Q290.12-3.12 293.24-3.12L293.24-3.12Q297.04-3.12 299.36-5.68L299.36-5.68L301.48-3.20Q300.04-1.52 297.90-0.64Q295.76 0.24 293.12 0.24L293.12 0.24Q289.76 0.24 287.16-1.14Q284.56-2.52 283.14-5Q281.72-7.48 281.72-10.60L281.72-10.60Q281.72-13.68 283.10-16.16Q284.48-18.64 286.90-20.02Q289.32-21.40 292.36-21.40L292.36-21.40Q295.40-21.40 297.78-20.02Q300.16-18.64 301.50-16.16Q302.84-13.68 302.84-10.48L302.84-10.48ZM292.36-18.16Q289.60-18.16 287.74-16.48Q285.88-14.80 285.56-12.08L285.56-12.08L299.16-12.08Q298.84-14.76 296.98-16.46Q295.12-18.16 292.36-18.16L292.36-18.16Z M315.04 0.24Q312.44 0.24 310.04-0.46Q307.64-1.16 306.28-2.24L306.28-2.24L307.88-5.28Q309.28-4.28 311.28-3.68Q313.28-3.08 315.32-3.08L315.32-3.08Q320.36-3.08 320.36-5.96L320.36-5.96Q320.36-6.92 319.68-7.48Q319.00-8.04 317.98-8.30Q316.96-8.56 315.08-8.88L315.08-8.88Q312.52-9.28 310.90-9.80Q309.28-10.32 308.12-11.56Q306.96-12.80 306.96-15.04L306.96-15.04Q306.96-17.92 309.36-19.66Q311.76-21.40 315.80-21.40L315.80-21.40Q317.92-21.40 320.04-20.88Q322.16-20.36 323.52-19.48L323.52-19.48L321.88-16.44Q319.28-18.12 315.76-18.12L315.76-18.12Q313.32-18.12 312.04-17.32Q310.76-16.52 310.76-15.20L310.76-15.20Q310.76-14.16 311.48-13.56Q312.20-12.96 313.26-12.68Q314.32-12.40 316.24-12.04L316.24-12.04Q318.80-11.60 320.38-11.10Q321.96-10.60 323.08-9.40Q324.20-8.20 324.20-6.04L324.20-6.04Q324.20-3.16 321.74-1.46Q319.28 0.24 315.04 0.24L315.04 0.24Z M349.08-21.40Q353.48-21.40 355.82-19.24Q358.16-17.08 358.16-12.80L358.16-12.80L358.16 0L354.52 0L354.52-2.80Q353.56-1.32 351.78-0.54Q350.00 0.24 347.56 0.24L347.56 0.24Q344.00 0.24 341.86-1.48Q339.72-3.20 339.72-6L339.72-6Q339.72-8.80 341.76-10.50Q343.80-12.20 348.24-12.20L348.24-12.20L354.32-12.20L354.32-12.96Q354.32-15.44 352.88-16.76Q351.44-18.08 348.64-18.08L348.64-18.08Q346.76-18.08 344.96-17.46Q343.16-16.84 341.92-15.80L341.92-15.80L340.32-18.68Q341.96-20 344.24-20.70Q346.52-21.40 349.08-21.40L349.08-21.40ZM348.20-2.72Q350.40-2.72 352.00-3.70Q353.60-4.68 354.32-6.48L354.32-6.48L354.32-9.44L348.40-9.44Q343.52-9.44 343.52-6.16L343.52-6.16Q343.52-4.56 344.76-3.64Q346.00-2.72 348.20-2.72L348.20-2.72Z M377.40-21.40Q381.44-21.40 383.82-19.06Q386.20-16.72 386.20-12.20L386.20-12.20L386.20 0L382.36 0L382.36-11.76Q382.36-14.84 380.88-16.40Q379.40-17.96 376.64-17.96L376.64-17.96Q373.52-17.96 371.72-16.14Q369.92-14.32 369.92-10.92L369.92-10.92L369.92 0L366.08 0L366.08-21.20L369.76-21.20L369.76-18Q370.92-19.64 372.90-20.52Q374.88-21.40 377.40-21.40L377.40-21.40Z M410.40-29.68L414.24-29.68L414.24 0L410.56 0L410.56-3.36Q409.28-1.60 407.32-0.68Q405.36 0.24 403.00 0.24L403.00 0.24Q399.92 0.24 397.48-1.12Q395.04-2.48 393.66-4.94Q392.28-7.40 392.28-10.60L392.28-10.60Q392.28-13.80 393.66-16.24Q395.04-18.68 397.48-20.04Q399.92-21.40 403.00-21.40L403.00-21.40Q405.28-21.40 407.20-20.54Q409.12-19.68 410.40-18L410.40-18L410.40-29.68ZM403.32-3.12Q405.32-3.12 406.96-4.06Q408.60-5 409.52-6.70Q410.44-8.40 410.44-10.60L410.44-10.60Q410.44-12.80 409.52-14.50Q408.60-16.20 406.96-17.12Q405.32-18.04 403.32-18.04L403.32-18.04Q401.28-18.04 399.66-17.12Q398.04-16.20 397.10-14.50Q396.16-12.80 396.16-10.60L396.16-10.60Q396.16-8.40 397.10-6.70Q398.04-5 399.66-4.06Q401.28-3.12 403.32-3.12L403.32-3.12Z M433.56-21.40Q436.64-21.40 439.08-20.04Q441.52-18.68 442.90-16.24Q444.28-13.80 444.28-10.60L444.28-10.60Q444.28-7.40 442.90-4.94Q441.52-2.48 439.08-1.12Q436.64 0.24 433.56 0.24L433.56 0.24Q431.20 0.24 429.24-0.68Q427.28-1.60 426.00-3.36L426.00-3.36L426.00 0L422.32 0L422.32-29.68L426.16-29.68L426.16-18Q427.44-19.68 429.36-20.54Q431.28-21.40 433.56-21.40L433.56-21.40ZM433.24-3.12Q435.28-3.12 436.90-4.06Q438.52-5 439.46-6.70Q440.40-8.40 440.40-10.60L440.40-10.60Q440.40-12.80 439.46-14.50Q438.52-16.20 436.90-17.12Q435.28-18.04 433.24-18.04L433.24-18.04Q431.24-18.04 429.60-17.12Q427.96-16.20 427.04-14.50Q426.12-12.80 426.12-10.60L426.12-10.60Q426.12-8.40 427.04-6.70Q427.96-5 429.60-4.06Q431.24-3.12 433.24-3.12L433.24-3.12Z M469.56-10.48Q469.56-10.04 469.48-9.32L469.48-9.32L452.28-9.32Q452.64-6.52 454.74-4.82Q456.84-3.12 459.96-3.12L459.96-3.12Q463.76-3.12 466.08-5.68L466.08-5.68L468.20-3.20Q466.76-1.52 464.62-0.64Q462.48 0.24 459.84 0.24L459.84 0.24Q456.48 0.24 453.88-1.14Q451.28-2.52 449.86-5Q448.44-7.48 448.44-10.60L448.44-10.60Q448.44-13.68 449.82-16.16Q451.20-18.64 453.62-20.02Q456.04-21.40 459.08-21.40L459.08-21.40Q462.12-21.40 464.50-20.02Q466.88-18.64 468.22-16.16Q469.56-13.68 469.56-10.48L469.56-10.48ZM459.08-18.16Q456.32-18.16 454.46-16.48Q452.60-14.80 452.28-12.08L452.28-12.08L465.88-12.08Q465.56-14.76 463.70-16.46Q461.84-18.16 459.08-18.16L459.08-18.16Z M481.76 0.24Q479.16 0.24 476.76-0.46Q474.36-1.16 473.00-2.24L473.00-2.24L474.60-5.28Q476.00-4.28 478.00-3.68Q480.00-3.08 482.04-3.08L482.04-3.08Q487.08-3.08 487.08-5.96L487.08-5.96Q487.08-6.92 486.40-7.48Q485.72-8.04 484.70-8.30Q483.68-8.56 481.80-8.88L481.80-8.88Q479.24-9.28 477.62-9.80Q476.00-10.32 474.84-11.56Q473.68-12.80 473.68-15.04L473.68-15.04Q473.68-17.92 476.08-19.66Q478.48-21.40 482.52-21.40L482.52-21.40Q484.64-21.40 486.76-20.88Q488.88-20.36 490.24-19.48L490.24-19.48L488.60-16.44Q486.00-18.12 482.48-18.12L482.48-18.12Q480.04-18.12 478.76-17.32Q477.48-16.52 477.48-15.20L477.48-15.20Q477.48-14.16 478.20-13.56Q478.92-12.96 479.98-12.68Q481.04-12.40 482.96-12.04L482.96-12.04Q485.52-11.60 487.10-11.10Q488.68-10.60 489.80-9.40Q490.92-8.20 490.92-6.04L490.92-6.04Q490.92-3.16 488.46-1.46Q486.00 0.24 481.76 0.24L481.76 0.24Z M507.24-4L508.44-1.24Q507.60-0.52 506.36-0.14Q505.12 0.24 503.80 0.24L503.80 0.24Q500.60 0.24 498.84-1.48Q497.08-3.20 497.08-6.40L497.08-6.40L497.08-18.04L493.48-18.04L493.48-21.20L497.08-21.20L497.08-25.84L500.92-25.84L500.92-21.20L507.00-21.20L507.00-18.04L500.92-18.04L500.92-6.56Q500.92-4.84 501.78-3.92Q502.64-3 504.24-3L504.24-3Q506.00-3 507.24-4L507.24-4Z M541.76-21.20L545.44-21.20L545.44 7.76L541.60 7.76L541.60-3.20Q540.28-1.52 538.38-0.64Q536.48 0.24 534.20 0.24L534.20 0.24Q531.12 0.24 528.68-1.12Q526.24-2.48 524.86-4.94Q523.48-7.40 523.48-10.60L523.48-10.60Q523.48-13.80 524.86-16.24Q526.24-18.68 528.68-20.04Q531.12-21.40 534.20-21.40L534.20-21.40Q536.56-21.40 538.52-20.50Q540.48-19.60 541.76-17.84L541.76-17.84L541.76-21.20ZM534.52-3.12Q536.52-3.12 538.16-4.06Q539.80-5 540.72-6.70Q541.64-8.40 541.64-10.60L541.64-10.60Q541.64-12.80 540.70-14.48Q539.76-16.16 538.14-17.10Q536.52-18.04 534.52-18.04L534.52-18.04Q532.48-18.04 530.86-17.12Q529.24-16.20 528.30-14.50Q527.36-12.80 527.36-10.60L527.36-10.60Q527.36-8.40 528.30-6.70Q529.24-5 530.86-4.06Q532.48-3.12 534.52-3.12L534.52-3.12Z M569.44-21.20L573.28-21.20L573.28 0L569.64 0L569.64-3.20Q568.48-1.56 566.58-0.66Q564.68 0.24 562.44 0.24L562.44 0.24Q558.20 0.24 555.76-2.10Q553.32-4.44 553.32-9L553.32-9L553.32-21.20L557.16-21.20L557.16-9.44Q557.16-6.36 558.64-4.78Q560.12-3.20 562.88-3.20L562.88-3.20Q565.92-3.20 567.68-5.04Q569.44-6.88 569.44-10.24L569.44-10.24L569.44-21.20Z M589.12-21.40Q593.52-21.40 595.86-19.24Q598.20-17.08 598.20-12.80L598.20-12.80L598.20 0L594.56 0L594.56-2.80Q593.60-1.32 591.82-0.54Q590.04 0.24 587.60 0.24L587.60 0.24Q584.04 0.24 581.90-1.48Q579.76-3.20 579.76-6L579.76-6Q579.76-8.80 581.80-10.50Q583.84-12.20 588.28-12.20L588.28-12.20L594.36-12.20L594.36-12.96Q594.36-15.44 592.92-16.76Q591.48-18.08 588.68-18.08L588.68-18.08Q586.80-18.08 585.00-17.46Q583.20-16.84 581.96-15.80L581.96-15.80L580.36-18.68Q582.00-20 584.28-20.70Q586.56-21.40 589.12-21.40L589.12-21.40ZM588.24-2.72Q590.44-2.72 592.04-3.70Q593.64-4.68 594.36-6.48L594.36-6.48L594.36-9.44L588.44-9.44Q583.56-9.44 583.56-6.16L583.56-6.16Q583.56-4.56 584.80-3.64Q586.04-2.72 588.24-2.72L588.24-2.72Z M606.12 0L606.12-29.68L609.96-29.68L609.96 0L606.12 0Z M618.08 0L618.08-21.20L621.92-21.20L621.92 0L618.08 0ZM620.00-25.28Q618.88-25.28 618.14-26Q617.40-26.72 617.40-27.76L617.40-27.76Q617.40-28.80 618.14-29.54Q618.88-30.28 620.00-30.28L620.00-30.28Q621.12-30.28 621.86-29.58Q622.60-28.88 622.60-27.84L622.60-27.84Q622.60-26.76 621.86-26.02Q621.12-25.28 620.00-25.28L620.00-25.28Z M640.76-4L641.96-1.24Q641.12-0.52 639.88-0.14Q638.64 0.24 637.32 0.24L637.32 0.24Q634.12 0.24 632.36-1.48Q630.60-3.20 630.60-6.40L630.60-6.40L630.60-18.04L627.00-18.04L627.00-21.20L630.60-21.20L630.60-25.84L634.44-25.84L634.44-21.20L640.52-21.20L640.52-18.04L634.44-18.04L634.44-6.56Q634.44-4.84 635.30-3.92Q636.16-3 637.76-3L637.76-3Q639.52-3 640.76-4L640.76-4Z M647.40 0L647.40-21.20L651.24-21.20L651.24 0L647.40 0ZM649.32-25.28Q648.20-25.28 647.46-26Q646.72-26.72 646.72-27.76L646.72-27.76Q646.72-28.80 647.46-29.54Q648.20-30.28 649.32-30.28L649.32-30.28Q650.44-30.28 651.18-29.58Q651.92-28.88 651.92-27.84L651.92-27.84Q651.92-26.76 651.18-26.02Q650.44-25.28 649.32-25.28L649.32-25.28Z M678.52-10.48Q678.52-10.04 678.44-9.32L678.44-9.32L661.24-9.32Q661.60-6.52 663.70-4.82Q665.80-3.12 668.92-3.12L668.92-3.12Q672.72-3.12 675.04-5.68L675.04-5.68L677.16-3.20Q675.72-1.52 673.58-0.64Q671.44 0.24 668.80 0.24L668.80 0.24Q665.44 0.24 662.84-1.14Q660.24-2.52 658.82-5Q657.40-7.48 657.40-10.60L657.40-10.60Q657.40-13.68 658.78-16.16Q660.16-18.64 662.58-20.02Q665.00-21.40 668.04-21.40L668.04-21.40Q671.08-21.40 673.46-20.02Q675.84-18.64 677.18-16.16Q678.52-13.68 678.52-10.48L678.52-10.48ZM668.04-18.16Q665.28-18.16 663.42-16.48Q661.56-14.80 661.24-12.08L661.24-12.08L674.84-12.08Q674.52-14.76 672.66-16.46Q670.80-18.16 668.04-18.16L668.04-18.16Z M690.72 0.24Q688.12 0.24 685.72-0.46Q683.32-1.16 681.96-2.24L681.96-2.24L683.56-5.28Q684.96-4.28 686.96-3.68Q688.96-3.08 691.00-3.08L691.00-3.08Q696.04-3.08 696.04-5.96L696.04-5.96Q696.04-6.92 695.36-7.48Q694.68-8.04 693.66-8.30Q692.64-8.56 690.76-8.88L690.76-8.88Q688.20-9.28 686.58-9.80Q684.96-10.32 683.80-11.56Q682.64-12.80 682.64-15.04L682.64-15.04Q682.64-17.92 685.04-19.66Q687.44-21.40 691.48-21.40L691.48-21.40Q693.60-21.40 695.72-20.88Q697.84-20.36 699.20-19.48L699.20-19.48L697.56-16.44Q694.96-18.12 691.44-18.12L691.44-18.12Q689.00-18.12 687.72-17.32Q686.44-16.52 686.44-15.20L686.44-15.20Q686.44-14.16 687.16-13.56Q687.88-12.96 688.94-12.68Q690.00-12.40 691.92-12.04L691.92-12.04Q694.48-11.60 696.06-11.10Q697.64-10.60 698.76-9.40Q699.88-8.20 699.88-6.04L699.88-6.04Q699.88-3.16 697.42-1.46Q694.96 0.24 690.72 0.24L690.72 0.24Z"/></g>
</svg>
</g></svg></svg>