<svg version="1.1" preserveAspectRatio="none" xmlns="http://www.w3.org/2000/svg" width="500" height="500" viewBox="0 0 500 500"><rect width="100%" height="100%" fill="#F5F5F5" fill-opacity="1"/><svg viewBox="96.9821 157.9999 508.0861 184" width="417" height="151.01377502750026" x="41.5px" y="174.4931px" xmlns="http://www.w3.org/2000/svg" xmlns:xlink="http://www.w3.org/1999/xlink" preserveAspectRatio="none"><defs></defs><style>.companyName {fill:#08376B;fill-opacity:1;}.icon1 {fill:#35C0ED;fill-opacity:1;}.icon2 {fill:#9AEBA6;fill-opacity:1;}.icon3 {fill:#2F90B0;fill-opacity:1;}.icon3-str {stroke:#2F90B0;stroke-opacity:1;}.shapeStroke-str {stroke:#08376B;stroke-opacity:1;}.text {fill:#08376B;fill-opacity:1;}</style><g opacity="1" transform="rotate(0 96.9821 172.9999)">
<svg width="107.796" height="154" x="96.9821" y="172.9999" version="1.1" preserveAspectRatio="none" viewBox="15.001998901367188 0.0010000000474974513 69.99600219726562 99.99800109863281">
  <g transform="matrix(1 0 0 1 0 0)" class="icon1"><g><path d="M50,0.001c0,0-34.998,37.22-34.998,64.999c0,22.219,14.999,34.996,34.998,34.999c20.002,0,34.998-12.783,34.998-34.999   C84.998,37.221,50,0.001,50,0.001z M50,94.999c-4.722,0-10-4.277-10-10c0-4.953,5.239-12.436,10-17.784   c4.76,5.349,10,12.831,10,17.784C60,90.722,54.721,94.999,50,94.999z M64.252,89.294c0.438-1.36,0.747-2.776,0.747-4.295   C64.999,74.287,50,60,50,60S35.001,74.287,35.001,84.999c0,1.548,0.322,2.991,0.774,4.372c-3.457-3.347-5.774-8.127-5.774-14.371   c0-11.628,12.268-28.456,20.001-37.511C57.736,46.537,69.999,63.348,69.999,75C69.999,80.713,67.838,85.717,64.252,89.294z    M72.711,85.742c1.438-3.18,2.287-6.771,2.287-10.742C74.998,56.251,50,30.002,50,30.002S25.001,56.251,25.001,75   c0,3.967,0.847,7.556,2.28,10.731c-4.614-5.161-7.28-12.198-7.28-20.731c0-20.357,21.293-47.297,30.001-57.462   C58.711,17.695,79.998,44.61,79.998,65C79.998,73.537,77.332,80.581,72.711,85.742z"></path></g></g>
</svg>
</g><g opacity="1" transform="rotate(0 268.7781 172.9999)">
<svg width="289.0927" height="120" x="268.7781" y="172.9999" version="1.1" preserveAspectRatio="none" viewBox="3.2 -28.48 170.96000000000004 70.96000000000001">
  <g transform="matrix(1 0 0 1 0 0)" class="companyName"><path id="id-D6z1nYkh11" d="M6.84-28L3.20-28L3.20-10.80Q3.20-9.16 3.52-7.18Q3.84-5.20 5.04-3.50Q6.24-1.80 8.60-0.66Q10.96 0.48 15.04 0.48L15.04 0.48Q17.60 0.48 19.58-0.32Q21.56-1.12 22.90-2.52Q24.24-3.92 24.92-5.78Q25.60-7.64 25.60-9.76L25.60-9.76L25.60-28L23.84-28L23.84-11.08Q23.84-10.20 23.80-9.30Q23.76-8.40 23.56-7.50Q23.36-6.60 22.94-5.72Q22.52-4.84 21.72-3.96L21.72-3.96Q20.28-2.40 18.48-1.84Q16.68-1.28 14.72-1.28L14.72-1.28Q13.04-1.28 11.74-1.80Q10.44-2.32 9.28-3.36L9.28-3.36Q8.36-4.16 7.88-4.96Q7.40-5.76 7.16-6.54Q6.92-7.32 6.88-8.12Q6.84-8.92 6.84-9.72L6.84-9.72L6.84-28Z M42.68-28L33.60-28L33.60 0L37.24 0L37.24-12.36L39-12.36Q40.12-12.36 40.86-12.16Q41.60-11.96 42.20-11.48Q42.80-11 43.32-10.24Q43.84-9.48 44.56-8.36L44.56-8.36L47.72-3.68Q48.32-2.76 48.90-2Q49.48-1.24 50.16-0.70Q50.84-0.16 51.70 0.16Q52.56 0.48 53.76 0.48L53.76 0.48Q54.64 0.48 55.20 0.40Q55.76 0.32 56.32 0L56.32 0L56.32-1.48Q56.12-1.44 55.92-1.42Q55.72-1.40 55.52-1.40L55.52-1.40Q54.68-1.40 54.04-1.64Q53.40-1.88 52.84-2.34Q52.28-2.80 51.76-3.46Q51.24-4.12 50.68-4.96L50.68-4.96Q49-7.40 48.08-8.86Q47.16-10.32 46.62-11.12Q46.08-11.92 45.74-12.28Q45.40-12.64 44.92-12.88L44.92-12.88L44.52-13.08L44.52-13.24Q46.44-13.36 47.82-14.08Q49.20-14.80 50.08-15.88Q50.96-16.96 51.36-18.22Q51.76-19.48 51.76-20.68L51.76-20.68Q51.76-21.76 51.34-23.04Q50.92-24.32 49.90-25.42Q48.88-26.52 47.12-27.26Q45.36-28 42.68-28L42.68-28ZM37.24-14.16L37.24-26.24L41.28-26.24Q42.80-26.24 44.02-25.80Q45.24-25.36 46.12-24.58Q47-23.80 47.46-22.72Q47.92-21.64 47.92-20.36L47.92-20.36Q47.92-19.28 47.50-18.18Q47.08-17.08 46.24-16.18Q45.40-15.28 44.18-14.72Q42.96-14.16 41.36-14.16L41.36-14.16L37.24-14.16Z M87.80 0L87.80-12.48L79.88-12.48L79.88-10.84L84.36-10.84L84.36-3.60Q82.56-2.44 80.68-1.88Q78.80-1.32 76.40-1.32L76.40-1.32Q73.24-1.32 70.88-2.28Q68.52-3.24 66.96-4.94Q65.40-6.64 64.62-8.98Q63.84-11.32 63.84-14.12L63.84-14.12Q63.84-16.88 64.58-19.20Q65.32-21.52 66.80-23.20Q68.28-24.88 70.42-25.80Q72.56-26.72 75.40-26.72L75.40-26.72Q77.28-26.72 78.92-26.32Q80.56-25.92 81.84-25.28Q83.12-24.64 83.94-23.82Q84.76-23 85-22.16L85-22.16L87.88-22.16Q87.52-23.04 86.66-24.14Q85.80-25.24 84.32-26.20Q82.84-27.16 80.66-27.82Q78.48-28.48 75.52-28.48L75.52-28.48Q72.12-28.48 69.26-27.52Q66.40-26.56 64.32-24.76Q62.24-22.96 61.08-20.34Q59.92-17.72 59.92-14.40L59.92-14.40Q59.92-11.56 60.82-8.90Q61.72-6.24 63.58-4.14Q65.44-2.04 68.32-0.78Q71.20 0.48 75.20 0.48L75.20 0.48Q78.20 0.48 80.52-0.18Q82.84-0.84 84.36-1.64L84.36-1.64L84.36 0L87.80 0Z M113.08-28L95.00-28L95.00 0L113.08 0L113.08-2.20L98.64-2.20L98.64-13.92L111.04-13.92L111.04-15.76L98.64-15.76L98.64-25.80L113.08-25.80L113.08-28Z M143.48-28L141.64-28L141.64-6.60L141.48-6.60L119.28-28.48L119.08-28.48L119.08 0L120.92 0L120.92-21.40L121.08-21.40L143.28 0.48L143.48 0.48L143.48-28Z M159.80 0L163.44 0L163.44-25.80L174.16-25.80L174.16-28L149.08-28L149.08-25.80L159.80-25.80L159.80 0Z M13.92 42L17.56 42L17.56 16.20L28.28 16.20L28.28 14L3.20 14L3.20 16.20L13.92 16.20L13.92 42Z M30.84 33.76L44.64 33.76L48.48 42L52.36 42L39.32 14L37.32 14L25.48 42L27.32 42L30.84 33.76ZM37.52 18.48L43.80 31.96L31.60 31.96L37.36 18.48L37.52 18.48Z M67.80 25L59.24 14L54.76 14L65.68 28.04L54.96 42L57.12 42L66.68 29.48L66.84 29.48L76.60 42L81.12 42L69 26.52L78.56 14L76.44 14L68 25L67.80 25Z M92.36 14L88.72 14L88.72 42L92.36 42L92.36 14Z M102.96 34.92L100.24 34.92Q100.32 36.64 101.14 38.04Q101.96 39.44 103.38 40.42Q104.80 41.40 106.72 41.94Q108.64 42.48 110.92 42.48L110.92 42.48Q113.24 42.48 115.10 41.92Q116.96 41.36 118.28 40.32Q119.60 39.28 120.32 37.80Q121.04 36.32 121.04 34.52L121.04 34.52Q121.04 32.04 119.80 30.46Q118.56 28.88 116.70 27.82Q114.84 26.76 112.66 26.04Q110.48 25.32 108.62 24.52Q106.76 23.72 105.52 22.68Q104.28 21.64 104.28 19.92L104.28 19.92Q104.28 18.96 104.70 18.12Q105.12 17.28 105.94 16.66Q106.76 16.04 107.96 15.66Q109.16 15.28 110.72 15.28L110.72 15.28Q113.32 15.28 115.14 16.38Q116.96 17.48 117.28 19.84L117.28 19.84L120 19.84Q119.76 18.36 118.92 17.18Q118.08 16 116.80 15.18Q115.52 14.36 113.90 13.94Q112.28 13.52 110.52 13.52L110.52 13.52Q108.68 13.52 107.02 14Q105.36 14.48 104.10 15.40Q102.84 16.32 102.10 17.72Q101.36 19.12 101.36 20.92L101.36 20.92Q101.36 23.28 102.56 24.72Q103.76 26.16 105.58 27.12Q107.40 28.08 109.52 28.76Q111.64 29.44 113.46 30.30Q115.28 31.16 116.48 32.40Q117.68 33.64 117.68 35.72L117.68 35.72Q117.68 38.32 115.78 39.52Q113.88 40.72 110.72 40.72L110.72 40.72Q108.20 40.72 106.68 40.06Q105.16 39.40 104.36 38.48Q103.56 37.56 103.28 36.58Q103 35.60 102.96 34.92L102.96 34.92Z"/></g>
</svg>
</g><g opacity="1" transform="rotate(0 233.7781 157.9999)">
<svg width="3" height="184" x="233.7781" y="157.9999" version="1.1" preserveAspectRatio="none" viewBox="0 0 3 184">
  <rect x="0" y="0" width="3" height="184" class="companyName shapeStroke-str" style="stroke-width:0;" rx="0px" ry="0px" />
</svg>
</g><g opacity="1" transform="rotate(0 268.7781 308.9999)">
<svg width="336.2901" height="18" x="268.7781" y="308.9999" version="1.1" preserveAspectRatio="none" viewBox="4.56 -29.68 699.6400000000001 37.44">
  <g transform="matrix(1 0 0 1 0 0)" class="text"><path id="id-D-YM9nyY435" d="M22.20-14.44Q24.96-13.84 26.46-12.06Q27.96-10.28 27.96-7.48L27.96-7.48Q27.96-3.88 25.30-1.94Q22.64 0 17.44 0L17.44 0L4.56 0L4.56-28L16.64-28Q21.32-28 23.90-26.12Q26.48-24.24 26.48-20.80L26.48-20.80Q26.48-18.48 25.34-16.86Q24.20-15.24 22.20-14.44L22.20-14.44ZM16.44-25.56L7.52-25.56L7.52-15.40L16.44-15.40Q19.84-15.40 21.68-16.70Q23.52-18 23.52-20.48L23.52-20.48Q23.52-22.96 21.68-24.26Q19.84-25.56 16.44-25.56L16.44-25.56ZM17.40-2.44Q21.16-2.44 23.08-3.72Q25-5 25-7.72L25-7.72Q25-12.96 17.40-12.96L17.40-12.96L7.52-12.96L7.52-2.44L17.40-2.44Z M53.68-10.52L53.64-9.64L36.04-9.64Q36.28-6.36 38.56-4.34Q40.84-2.32 44.32-2.32L44.32-2.32Q46.28-2.32 47.92-3.02Q49.56-3.72 50.76-5.08L50.76-5.08L52.36-3.24Q50.96-1.56 48.86-0.68Q46.76 0.20 44.24 0.20L44.24 0.20Q41 0.20 38.50-1.18Q36-2.56 34.60-5Q33.20-7.44 33.20-10.52L33.20-10.52Q33.20-13.60 34.54-16.04Q35.88-18.48 38.22-19.84Q40.56-21.20 43.48-21.20L43.48-21.20Q46.40-21.20 48.72-19.84Q51.04-18.48 52.36-16.06Q53.68-13.64 53.68-10.52L53.68-10.52ZM43.48-18.76Q40.44-18.76 38.38-16.82Q36.32-14.88 36.04-11.76L36.04-11.76L50.96-11.76Q50.68-14.88 48.62-16.82Q46.56-18.76 43.48-18.76L43.48-18.76Z M66.32 0.20Q63.76 0.20 61.42-0.54Q59.08-1.28 57.76-2.40L57.76-2.40L59.04-4.64Q60.36-3.60 62.36-2.94Q64.36-2.28 66.52-2.28L66.52-2.28Q69.40-2.28 70.78-3.18Q72.16-4.08 72.16-5.72L72.16-5.72Q72.16-6.88 71.40-7.54Q70.64-8.20 69.48-8.54Q68.32-8.88 66.40-9.20L66.40-9.20Q63.84-9.68 62.28-10.18Q60.72-10.68 59.62-11.88Q58.52-13.08 58.52-15.20L58.52-15.20Q58.52-17.84 60.72-19.52Q62.92-21.20 66.84-21.20L66.84-21.20Q68.88-21.20 70.92-20.66Q72.96-20.12 74.28-19.24L74.28-19.24L73.04-16.96Q70.44-18.76 66.84-18.76L66.84-18.76Q64.12-18.76 62.74-17.80Q61.36-16.84 61.36-15.28L61.36-15.28Q61.36-14.08 62.14-13.36Q62.92-12.64 64.08-12.30Q65.24-11.96 67.28-11.60L67.28-11.60Q69.80-11.12 71.32-10.64Q72.84-10.16 73.92-9Q75-7.84 75-5.80L75-5.80Q75-3.04 72.70-1.42Q70.40 0.20 66.32 0.20L66.32 0.20Z M91.52-3.32L92.52-1.28Q91.72-0.56 90.54-0.18Q89.36 0.20 88.08 0.20L88.08 0.20Q85.12 0.20 83.52-1.40Q81.92-3 81.92-5.92L81.92-5.92L81.92-18.64L78.16-18.64L78.16-21.04L81.92-21.04L81.92-25.64L84.76-25.64L84.76-21.04L91.16-21.04L91.16-18.64L84.76-18.64L84.76-6.08Q84.76-4.20 85.70-3.22Q86.64-2.24 88.40-2.24L88.40-2.24Q89.28-2.24 90.10-2.52Q90.92-2.80 91.52-3.32L91.52-3.32Z M110.56 0L110.56-21.04L113.40-21.04L113.40 0L110.56 0ZM112.00-25.64Q111.12-25.64 110.52-26.24Q109.92-26.84 109.92-27.68L109.92-27.68Q109.92-28.48 110.52-29.08Q111.12-29.68 112.00-29.68L112.00-29.68Q112.88-29.68 113.48-29.10Q114.08-28.52 114.08-27.72L114.08-27.72Q114.08-26.84 113.48-26.24Q112.88-25.64 112.00-25.64L112.00-25.64Z M133.24-21.20Q137.20-21.20 139.54-18.90Q141.88-16.60 141.88-12.20L141.88-12.20L141.88 0L139.04 0L139.04-11.92Q139.04-15.20 137.40-16.92Q135.76-18.64 132.72-18.64L132.72-18.64Q129.32-18.64 127.34-16.62Q125.36-14.60 125.36-11.04L125.36-11.04L125.36 0L122.52 0L122.52-21.04L125.24-21.04L125.24-17.16Q126.40-19.08 128.46-20.14Q130.52-21.20 133.24-21.20L133.24-21.20Z M168.12 0.20Q165.56 0.20 163.22-0.54Q160.88-1.28 159.56-2.40L159.56-2.40L160.84-4.64Q162.16-3.60 164.16-2.94Q166.16-2.28 168.32-2.28L168.32-2.28Q171.20-2.28 172.58-3.18Q173.96-4.08 173.96-5.72L173.96-5.72Q173.96-6.88 173.20-7.54Q172.44-8.20 171.28-8.54Q170.12-8.88 168.20-9.20L168.20-9.20Q165.64-9.68 164.08-10.18Q162.52-10.68 161.42-11.88Q160.32-13.08 160.32-15.20L160.32-15.20Q160.32-17.84 162.52-19.52Q164.72-21.20 168.64-21.20L168.64-21.20Q170.68-21.20 172.72-20.66Q174.76-20.12 176.08-19.24L176.08-19.24L174.84-16.96Q172.24-18.76 168.64-18.76L168.64-18.76Q165.92-18.76 164.54-17.80Q163.16-16.84 163.16-15.28L163.16-15.28Q163.16-14.08 163.94-13.36Q164.72-12.64 165.88-12.30Q167.04-11.96 169.08-11.60L169.08-11.60Q171.60-11.12 173.12-10.64Q174.64-10.16 175.72-9Q176.80-7.84 176.80-5.80L176.80-5.80Q176.80-3.04 174.50-1.42Q172.20 0.20 168.12 0.20L168.12 0.20Z M201.60-10.52L201.56-9.64L183.96-9.64Q184.20-6.36 186.48-4.34Q188.76-2.32 192.24-2.32L192.24-2.32Q194.20-2.32 195.84-3.02Q197.48-3.72 198.68-5.08L198.68-5.08L200.28-3.24Q198.88-1.56 196.78-0.68Q194.68 0.20 192.16 0.20L192.16 0.20Q188.92 0.20 186.42-1.18Q183.92-2.56 182.52-5Q181.12-7.44 181.12-10.52L181.12-10.52Q181.12-13.60 182.46-16.04Q183.80-18.48 186.14-19.84Q188.48-21.20 191.40-21.20L191.40-21.20Q194.32-21.20 196.64-19.84Q198.96-18.48 200.28-16.06Q201.60-13.64 201.60-10.52L201.60-10.52ZM191.40-18.76Q188.36-18.76 186.30-16.82Q184.24-14.88 183.96-11.76L183.96-11.76L198.88-11.76Q198.60-14.88 196.54-16.82Q194.48-18.76 191.40-18.76L191.40-18.76Z M211.32-16.92Q212.32-19.04 214.30-20.12Q216.28-21.20 219.20-21.20L219.20-21.20L219.20-18.44L218.52-18.48Q215.20-18.48 213.32-16.44Q211.44-14.40 211.44-10.72L211.44-10.72L211.44 0L208.60 0L208.60-21.04L211.32-21.04L211.32-16.92Z M241.32-21.04L244.12-21.04L234.76 0L231.84 0L222.52-21.04L225.48-21.04L233.36-3.12L241.32-21.04Z M249.32 0L249.32-21.04L252.16-21.04L252.16 0L249.32 0ZM250.76-25.64Q249.88-25.64 249.28-26.24Q248.68-26.84 248.68-27.68L248.68-27.68Q248.68-28.48 249.28-29.08Q249.88-29.68 250.76-29.68L250.76-29.68Q251.64-29.68 252.24-29.10Q252.84-28.52 252.84-27.72L252.84-27.72Q252.84-26.84 252.24-26.24Q251.64-25.64 250.76-25.64L250.76-25.64Z M270.00 0.20Q266.88 0.20 264.42-1.16Q261.96-2.52 260.56-4.98Q259.16-7.44 259.16-10.52L259.16-10.52Q259.16-13.60 260.56-16.04Q261.96-18.48 264.42-19.84Q266.88-21.20 270.00-21.20L270.00-21.20Q272.72-21.20 274.86-20.14Q277.00-19.08 278.24-17.04L278.24-17.04L276.12-15.60Q275.08-17.16 273.48-17.94Q271.88-18.72 270.00-18.72L270.00-18.72Q267.72-18.72 265.90-17.70Q264.08-16.68 263.06-14.80Q262.04-12.92 262.04-10.52L262.04-10.52Q262.04-8.08 263.06-6.22Q264.08-4.36 265.90-3.34Q267.72-2.32 270.00-2.32L270.00-2.32Q271.88-2.32 273.48-3.08Q275.08-3.84 276.12-5.40L276.12-5.40L278.24-3.96Q277.00-1.92 274.84-0.86Q272.68 0.20 270.00 0.20L270.00 0.20Z M303.00-10.52L302.96-9.64L285.36-9.64Q285.60-6.36 287.88-4.34Q290.16-2.32 293.64-2.32L293.64-2.32Q295.60-2.32 297.24-3.02Q298.88-3.72 300.08-5.08L300.08-5.08L301.68-3.24Q300.28-1.56 298.18-0.68Q296.08 0.20 293.56 0.20L293.56 0.20Q290.32 0.20 287.82-1.18Q285.32-2.56 283.92-5Q282.52-7.44 282.52-10.52L282.52-10.52Q282.52-13.60 283.86-16.04Q285.20-18.48 287.54-19.84Q289.88-21.20 292.80-21.20L292.80-21.20Q295.72-21.20 298.04-19.84Q300.36-18.48 301.68-16.06Q303.00-13.64 303.00-10.52L303.00-10.52ZM292.80-18.76Q289.76-18.76 287.70-16.82Q285.64-14.88 285.36-11.76L285.36-11.76L300.28-11.76Q300.00-14.88 297.94-16.82Q295.88-18.76 292.80-18.76L292.80-18.76Z M315.64 0.20Q313.08 0.20 310.74-0.54Q308.40-1.28 307.08-2.40L307.08-2.40L308.36-4.64Q309.68-3.60 311.68-2.94Q313.68-2.28 315.84-2.28L315.84-2.28Q318.72-2.28 320.10-3.18Q321.48-4.08 321.48-5.72L321.48-5.72Q321.48-6.88 320.72-7.54Q319.96-8.20 318.80-8.54Q317.64-8.88 315.72-9.20L315.72-9.20Q313.16-9.68 311.60-10.18Q310.04-10.68 308.94-11.88Q307.84-13.08 307.84-15.20L307.84-15.20Q307.84-17.84 310.04-19.52Q312.24-21.20 316.16-21.20L316.16-21.20Q318.20-21.20 320.24-20.66Q322.28-20.12 323.60-19.24L323.60-19.24L322.36-16.96Q319.76-18.76 316.16-18.76L316.16-18.76Q313.44-18.76 312.06-17.80Q310.68-16.84 310.68-15.28L310.68-15.28Q310.68-14.08 311.46-13.36Q312.24-12.64 313.40-12.30Q314.56-11.96 316.60-11.60L316.60-11.60Q319.12-11.12 320.64-10.64Q322.16-10.16 323.24-9Q324.32-7.84 324.32-5.80L324.32-5.80Q324.32-3.04 322.02-1.42Q319.72 0.20 315.64 0.20L315.64 0.20Z M349.80-21.20Q353.92-21.20 356.12-19.14Q358.32-17.08 358.32-13.04L358.32-13.04L358.32 0L355.60 0L355.60-3.28Q354.64-1.64 352.78-0.72Q350.92 0.20 348.36 0.20L348.36 0.20Q344.84 0.20 342.76-1.48Q340.68-3.16 340.68-5.92L340.68-5.92Q340.68-8.60 342.62-10.24Q344.56-11.88 348.80-11.88L348.80-11.88L355.48-11.88L355.48-13.16Q355.48-15.88 353.96-17.30Q352.44-18.72 349.52-18.72L349.52-18.72Q347.52-18.72 345.68-18.06Q343.84-17.40 342.52-16.24L342.52-16.24L341.24-18.36Q342.84-19.72 345.08-20.46Q347.32-21.20 349.80-21.20L349.80-21.20ZM348.80-2.04Q351.20-2.04 352.92-3.14Q354.64-4.24 355.48-6.32L355.48-6.32L355.48-9.76L348.88-9.76Q343.48-9.76 343.48-6L343.48-6Q343.48-4.16 344.88-3.10Q346.28-2.04 348.80-2.04L348.80-2.04Z M377.96-21.20Q381.92-21.20 384.26-18.90Q386.60-16.60 386.60-12.20L386.60-12.20L386.60 0L383.76 0L383.76-11.92Q383.76-15.20 382.12-16.92Q380.48-18.64 377.44-18.64L377.44-18.64Q374.04-18.64 372.06-16.62Q370.08-14.60 370.08-11.04L370.08-11.04L370.08 0L367.24 0L367.24-21.04L369.96-21.04L369.96-17.16Q371.12-19.08 373.18-20.14Q375.24-21.20 377.96-21.20L377.96-21.20Z M411.96-29.68L414.80-29.68L414.80 0L412.08 0L412.08-4.16Q410.80-2.04 408.70-0.92Q406.60 0.20 403.96 0.20L403.96 0.20Q401.00 0.20 398.60-1.16Q396.20-2.52 394.84-4.96Q393.48-7.40 393.48-10.52L393.48-10.52Q393.48-13.64 394.84-16.08Q396.20-18.52 398.60-19.86Q401.00-21.20 403.96-21.20L403.96-21.20Q406.52-21.20 408.58-20.14Q410.64-19.08 411.96-17.04L411.96-17.04L411.96-29.68ZM404.20-2.32Q406.40-2.32 408.18-3.34Q409.96-4.36 410.98-6.24Q412.00-8.12 412.00-10.52L412.00-10.52Q412.00-12.92 410.98-14.80Q409.96-16.68 408.18-17.70Q406.40-18.72 404.20-18.72L404.20-18.72Q401.96-18.72 400.18-17.70Q398.40-16.68 397.38-14.80Q396.36-12.92 396.36-10.52L396.36-10.52Q396.36-8.12 397.38-6.24Q398.40-4.36 400.18-3.34Q401.96-2.32 404.20-2.32L404.20-2.32Z M434.76-21.20Q437.72-21.20 440.12-19.86Q442.52-18.52 443.88-16.08Q445.24-13.64 445.24-10.52L445.24-10.52Q445.24-7.40 443.88-4.96Q442.52-2.52 440.12-1.16Q437.72 0.20 434.76 0.20L434.76 0.20Q432.12 0.20 430.02-0.92Q427.92-2.04 426.64-4.16L426.64-4.16L426.64 0L423.92 0L423.92-29.68L426.76-29.68L426.76-17.04Q428.08-19.08 430.14-20.14Q432.20-21.20 434.76-21.20L434.76-21.20ZM434.56-2.32Q436.76-2.32 438.56-3.34Q440.36-4.36 441.38-6.24Q442.40-8.12 442.40-10.52L442.40-10.52Q442.40-12.92 441.38-14.80Q440.36-16.68 438.56-17.70Q436.76-18.72 434.56-18.72L434.56-18.72Q432.32-18.72 430.54-17.70Q428.76-16.68 427.74-14.80Q426.72-12.92 426.72-10.52L426.72-10.52Q426.72-8.12 427.74-6.24Q428.76-4.36 430.54-3.34Q432.32-2.32 434.56-2.32L434.56-2.32Z M470.60-10.52L470.56-9.64L452.96-9.64Q453.20-6.36 455.48-4.34Q457.76-2.32 461.24-2.32L461.24-2.32Q463.20-2.32 464.84-3.02Q466.48-3.72 467.68-5.08L467.68-5.08L469.28-3.24Q467.88-1.56 465.78-0.68Q463.68 0.20 461.16 0.20L461.16 0.20Q457.92 0.20 455.42-1.18Q452.92-2.56 451.52-5Q450.12-7.44 450.12-10.52L450.12-10.52Q450.12-13.60 451.46-16.04Q452.80-18.48 455.14-19.84Q457.48-21.20 460.40-21.20L460.40-21.20Q463.32-21.20 465.64-19.84Q467.96-18.48 469.28-16.06Q470.60-13.64 470.60-10.52L470.60-10.52ZM460.40-18.76Q457.36-18.76 455.30-16.82Q453.24-14.88 452.96-11.76L452.96-11.76L467.88-11.76Q467.60-14.88 465.54-16.82Q463.48-18.76 460.40-18.76L460.40-18.76Z M483.24 0.20Q480.68 0.20 478.34-0.54Q476.00-1.28 474.68-2.40L474.68-2.40L475.96-4.64Q477.28-3.60 479.28-2.94Q481.28-2.28 483.44-2.28L483.44-2.28Q486.32-2.28 487.70-3.18Q489.08-4.08 489.08-5.72L489.08-5.72Q489.08-6.88 488.32-7.54Q487.56-8.20 486.40-8.54Q485.24-8.88 483.32-9.20L483.32-9.20Q480.76-9.68 479.20-10.18Q477.64-10.68 476.54-11.88Q475.44-13.08 475.44-15.20L475.44-15.20Q475.44-17.84 477.64-19.52Q479.84-21.20 483.76-21.20L483.76-21.20Q485.80-21.20 487.84-20.66Q489.88-20.12 491.20-19.24L491.20-19.24L489.96-16.96Q487.36-18.76 483.76-18.76L483.76-18.76Q481.04-18.76 479.66-17.80Q478.28-16.84 478.28-15.28L478.28-15.28Q478.28-14.08 479.06-13.36Q479.84-12.64 481.00-12.30Q482.16-11.96 484.20-11.60L484.20-11.60Q486.72-11.12 488.24-10.64Q489.76-10.16 490.84-9Q491.92-7.84 491.92-5.80L491.92-5.80Q491.92-3.04 489.62-1.42Q487.32 0.20 483.24 0.20L483.24 0.20Z M508.44-3.32L509.44-1.28Q508.64-0.56 507.46-0.18Q506.28 0.20 505.00 0.20L505.00 0.20Q502.04 0.20 500.44-1.40Q498.84-3 498.84-5.92L498.84-5.92L498.84-18.64L495.08-18.64L495.08-21.04L498.84-21.04L498.84-25.64L501.68-25.64L501.68-21.04L508.08-21.04L508.08-18.64L501.68-18.64L501.68-6.08Q501.68-4.20 502.62-3.22Q503.56-2.24 505.32-2.24L505.32-2.24Q506.20-2.24 507.02-2.52Q507.84-2.80 508.44-3.32L508.44-3.32Z M543.96-21.04L546.68-21.04L546.68 7.76L543.84 7.76L543.84-3.96Q542.52-1.92 540.46-0.86Q538.40 0.20 535.84 0.20L535.84 0.20Q532.84 0.20 530.46-1.14Q528.08-2.48 526.72-4.92Q525.36-7.36 525.36-10.52L525.36-10.52Q525.36-13.64 526.72-16.08Q528.08-18.52 530.48-19.86Q532.88-21.20 535.84-21.20L535.84-21.20Q538.48-21.20 540.58-20.08Q542.68-18.96 543.96-16.88L543.96-16.88L543.96-21.04ZM536.08-2.32Q538.28-2.32 540.06-3.34Q541.84-4.36 542.86-6.24Q543.88-8.12 543.88-10.52L543.88-10.52Q543.88-12.92 542.86-14.78Q541.84-16.64 540.06-17.68Q538.28-18.72 536.08-18.72L536.08-18.72Q533.84-18.72 532.06-17.68Q530.28-16.64 529.26-14.78Q528.24-12.92 528.24-10.52L528.24-10.52Q528.24-8.12 529.26-6.24Q530.28-4.36 532.06-3.34Q533.84-2.32 536.08-2.32L536.08-2.32Z M571.92-21.04L574.76-21.04L574.76 0L572.04 0L572.04-3.84Q570.92-1.92 568.96-0.86Q567.00 0.20 564.48 0.20L564.48 0.20Q560.36 0.20 557.98-2.10Q555.60-4.40 555.60-8.84L555.60-8.84L555.60-21.04L558.44-21.04L558.44-9.12Q558.44-5.80 560.08-4.08Q561.72-2.36 564.76-2.36L564.76-2.36Q568.08-2.36 570.00-4.38Q571.92-6.40 571.92-10L571.92-10L571.92-21.04Z M591.28-21.20Q595.40-21.20 597.60-19.14Q599.80-17.08 599.80-13.04L599.80-13.04L599.80 0L597.08 0L597.08-3.28Q596.12-1.64 594.26-0.72Q592.40 0.20 589.84 0.20L589.84 0.20Q586.32 0.20 584.24-1.48Q582.16-3.16 582.16-5.92L582.16-5.92Q582.16-8.60 584.10-10.24Q586.04-11.88 590.28-11.88L590.28-11.88L596.96-11.88L596.96-13.16Q596.96-15.88 595.44-17.30Q593.92-18.72 591.00-18.72L591.00-18.72Q589.00-18.72 587.16-18.06Q585.32-17.40 584.00-16.24L584.00-16.24L582.72-18.36Q584.32-19.72 586.56-20.46Q588.80-21.20 591.28-21.20L591.28-21.20ZM590.28-2.04Q592.68-2.04 594.40-3.14Q596.12-4.24 596.96-6.32L596.96-6.32L596.96-9.76L590.36-9.76Q584.96-9.76 584.96-6L584.96-6Q584.96-4.16 586.36-3.10Q587.76-2.04 590.28-2.04L590.28-2.04Z M608.72 0L608.72-29.68L611.56-29.68L611.56 0L608.72 0Z M620.68 0L620.68-21.04L623.52-21.04L623.52 0L620.68 0ZM622.12-25.64Q621.24-25.64 620.64-26.24Q620.04-26.84 620.04-27.68L620.04-27.68Q620.04-28.48 620.64-29.08Q621.24-29.68 622.12-29.68L622.12-29.68Q623-29.68 623.60-29.10Q624.20-28.52 624.20-27.72L624.20-27.72Q624.20-26.84 623.60-26.24Q623-25.64 622.12-25.64L622.12-25.64Z M642.72-3.32L643.72-1.28Q642.92-0.56 641.74-0.18Q640.56 0.20 639.28 0.20L639.28 0.20Q636.32 0.20 634.72-1.40Q633.12-3 633.12-5.92L633.12-5.92L633.12-18.64L629.36-18.64L629.36-21.04L633.12-21.04L633.12-25.64L635.96-25.64L635.96-21.04L642.36-21.04L642.36-18.64L635.96-18.64L635.96-6.08Q635.96-4.20 636.90-3.22Q637.84-2.24 639.60-2.24L639.60-2.24Q640.48-2.24 641.30-2.52Q642.12-2.80 642.72-3.32L642.72-3.32Z M650.08 0L650.08-21.04L652.92-21.04L652.92 0L650.08 0ZM651.52-25.64Q650.64-25.64 650.04-26.24Q649.44-26.84 649.44-27.68L649.44-27.68Q649.44-28.48 650.04-29.08Q650.64-29.68 651.52-29.68L651.52-29.68Q652.40-29.68 653.00-29.10Q653.60-28.52 653.60-27.72L653.60-27.72Q653.60-26.84 653.00-26.24Q652.40-25.64 651.52-25.64L651.52-25.64Z M680.40-10.52L680.36-9.64L662.76-9.64Q663.00-6.36 665.28-4.34Q667.56-2.32 671.04-2.32L671.04-2.32Q673.00-2.32 674.64-3.02Q676.28-3.72 677.48-5.08L677.48-5.08L679.08-3.24Q677.68-1.56 675.58-0.68Q673.48 0.20 670.96 0.20L670.96 0.20Q667.72 0.20 665.22-1.18Q662.72-2.56 661.32-5Q659.92-7.44 659.92-10.52L659.92-10.52Q659.92-13.60 661.26-16.04Q662.60-18.48 664.94-19.84Q667.28-21.20 670.20-21.20L670.20-21.20Q673.12-21.20 675.44-19.84Q677.76-18.48 679.08-16.06Q680.40-13.64 680.40-10.52L680.40-10.52ZM670.20-18.76Q667.16-18.76 665.10-16.82Q663.04-14.88 662.76-11.76L662.76-11.76L677.68-11.76Q677.40-14.88 675.34-16.82Q673.28-18.76 670.20-18.76L670.20-18.76Z M693.04 0.20Q690.48 0.20 688.14-0.54Q685.80-1.28 684.48-2.40L684.48-2.40L685.76-4.64Q687.08-3.60 689.08-2.94Q691.08-2.28 693.24-2.28L693.24-2.28Q696.12-2.28 697.50-3.18Q698.88-4.08 698.88-5.72L698.88-5.72Q698.88-6.88 698.12-7.54Q697.36-8.20 696.20-8.54Q695.04-8.88 693.12-9.20L693.12-9.20Q690.56-9.68 689.00-10.18Q687.44-10.68 686.34-11.88Q685.24-13.08 685.24-15.20L685.24-15.20Q685.24-17.84 687.44-19.52Q689.64-21.20 693.56-21.20L693.56-21.20Q695.60-21.20 697.64-20.66Q699.68-20.12 701.00-19.24L701.00-19.24L699.76-16.96Q697.16-18.76 693.56-18.76L693.56-18.76Q690.84-18.76 689.46-17.80Q688.08-16.84 688.08-15.28L688.08-15.28Q688.08-14.08 688.86-13.36Q689.64-12.64 690.80-12.30Q691.96-11.96 694.00-11.60L694.00-11.60Q696.52-11.12 698.04-10.64Q699.56-10.16 700.64-9Q701.72-7.84 701.72-5.80L701.72-5.80Q701.72-3.04 699.42-1.42Q697.12 0.20 693.04 0.20L693.04 0.20Z"/></g>
</svg>
</g></svg></svg>