<svg version="1.1" preserveAspectRatio="none" xmlns="http://www.w3.org/2000/svg" width="500" height="500" viewBox="0 0 500 500"><rect width="100%" height="100%" fill="#FFFFFF" fill-opacity="1"/><svg viewBox="9.4671 185.5156 536.5701 121.48" width="417" height="94.40921139660969" x="41.5px" y="202.7954px" xmlns="http://www.w3.org/2000/svg" xmlns:xlink="http://www.w3.org/1999/xlink" preserveAspectRatio="none"><defs></defs><style>.companyName {fill:#4D4D4D;fill-opacity:1;}.icon1 {fill:#FF834F;fill-opacity:1;}.icon2 {fill:#FF4949;fill-opacity:1;}.icon3 {fill:#FFAE78;fill-opacity:1;}.icon3-str {stroke:#FFAE78;stroke-opacity:1;}.shapeStroke-str {stroke:#313131;stroke-opacity:1;}.text {fill:#4D4D4D;fill-opacity:1;}</style><g opacity="1" transform="rotate(0 9.4671 197.5156)">
<svg width="105.343" height="97.48" x="9.4671" y="197.5156" version="1.1" preserveAspectRatio="none" viewBox="7.140845775604248 7.560374736785889 88.1880111694336 81.60555267333984">
  <g transform="matrix(1 0 0 1 0 0)" class="icon1"><g><path d="M88.352,58.267c0-0.019,0.004-0.033,0.007-0.053C88.333,58.129,88.339,58.299,88.352,58.267z"></path><path d="M85.437,56.537c-0.896,0.082-1.55,0.973-1.456,1.984c0.094,1.009,0.897,1.765,1.794,1.681   c0.899-0.083,1.553-0.972,1.457-1.98C87.138,57.208,86.335,56.454,85.437,56.537z"></path><path d="M94.117,57.158l-2.074-0.25c-2.827-3.859-7.491-7.202-13.339-8.947   c2.054-11.688-6.658-20.637-14.968-25.825C54.008,16.061,37.112,8.624,25.862,7.567c-4.43-0.209,7.349,4.555,15.165,10.288   c3.955,2.902,5.078,3.934,8.535,6.663c3.624,2.858,8.62,7.184,7.599,12.222c-0.972,4.799-5.688,5.954-9.849,5.548   c-8.995-0.88-21.777-7.691-30.078-11.23c-11.057-4.713,9.153,10.106,10.477,12.816c-2.346,1.034-20.398-3.879-20.57-0.422   c-0.079,1.598,29.71,11.73,33.056,13.234c3.256,1.462,8.694,3.918,9.203,9.419c0.667,7.212-4.544,12.226-10.344,14.376   c-5.916,2.193-11.246,3.045-17.472,4.043c-2.082,0.336-16.908,2.151-9.242,3.167c-0.221-0.03,19.234,2.955,30.475,0.515   c10.221-2.22,17.561-7.413,24.692-15.765c3.036-3.553,3.242-3.975,7.236-3.997c3.308-0.021,6.659-0.645,9.788-1.777   c3.417-1.239,6.681-3.82,7.577-6.758l1.782,0.217c0.084,0.009,0.168,0.01,0.25,0.002c0.619-0.058,1.128-0.605,1.182-1.329   C95.386,57.98,94.847,57.244,94.117,57.158z M88.65,58.177c-0.002,0.03-0.005,0.044-0.007,0.052   c-0.599,5.829-12.378,6.842-16.174,5.883c1.465-5.341,12.271-13.115,16.166-6.251C88.617,57.962,88.622,58.073,88.65,58.177z"></path></g></g>
</svg>
</g><g opacity="1" transform="rotate(0 148.8101 262.5156)">
<svg width="370.7374" height="17.48" x="148.8101" y="262.5156" version="1.1" preserveAspectRatio="none" viewBox="3.76 -30.88 819.52 38.64">
  <g transform="matrix(1 0 0 1 0 0)" class="text"><path id="id-6izo4zJp35" d="M23.60-14.56Q25.92-13.80 27.28-12.02Q28.64-10.24 28.64-7.60L28.64-7.60Q28.64-3.96 25.84-1.98Q23.04 0 17.68 0L17.68 0L3.76 0L3.76-28L16.88-28Q21.84-28 24.52-26.06Q27.20-24.12 27.20-20.72L27.20-20.72Q27.20-18.64 26.24-17.04Q25.28-15.44 23.60-14.56L23.60-14.56ZM16.32-23.92L8.96-23.92L8.96-16.20L16.32-16.20Q19.04-16.20 20.50-17.18Q21.96-18.16 21.96-20.04L21.96-20.04Q21.96-21.96 20.50-22.94Q19.04-23.92 16.32-23.92L16.32-23.92ZM17.36-4.08Q23.40-4.08 23.40-8.12L23.40-8.12Q23.40-12.16 17.36-12.16L17.36-12.16L8.96-12.16L8.96-4.08L17.36-4.08Z M57.80-10.56Q57.80-10.04 57.72-9.08L57.72-9.08L40.96-9.08Q41.40-6.72 43.26-5.34Q45.12-3.96 47.88-3.96L47.88-3.96Q51.40-3.96 53.68-6.28L53.68-6.28L56.36-3.20Q54.92-1.48 52.72-0.60Q50.52 0.28 47.76 0.28L47.76 0.28Q44.24 0.28 41.56-1.12Q38.88-2.52 37.42-5.02Q35.96-7.52 35.96-10.68L35.96-10.68Q35.96-13.80 37.38-16.30Q38.80-18.80 41.32-20.20Q43.84-21.60 47-21.60L47-21.60Q50.12-21.60 52.58-20.22Q55.04-18.84 56.42-16.34Q57.80-13.84 57.80-10.56L57.80-10.56ZM47-17.60Q44.60-17.60 42.94-16.18Q41.28-14.76 40.92-12.40L40.92-12.40L53.04-12.40Q52.72-14.72 51.08-16.16Q49.44-17.60 47-17.60L47-17.60Z M73.20 0.28Q70.60 0.28 68.12-0.40Q65.64-1.08 64.16-2.12L64.16-2.12L66.08-5.92Q67.52-4.96 69.54-4.38Q71.56-3.80 73.52-3.80L73.52-3.80Q78-3.80 78-6.16L78-6.16Q78-7.28 76.86-7.72Q75.72-8.16 73.20-8.56L73.20-8.56Q70.56-8.96 68.90-9.48Q67.24-10 66.02-11.30Q64.80-12.60 64.80-14.92L64.80-14.92Q64.80-17.96 67.34-19.78Q69.88-21.60 74.20-21.60L74.20-21.60Q76.40-21.60 78.60-21.10Q80.80-20.60 82.20-19.76L82.20-19.76L80.28-15.96Q77.56-17.56 74.16-17.56L74.16-17.56Q71.96-17.56 70.82-16.90Q69.68-16.24 69.68-15.16L69.68-15.16Q69.68-13.96 70.90-13.46Q72.12-12.96 74.68-12.52L74.68-12.52Q77.24-12.12 78.88-11.60Q80.52-11.08 81.70-9.84Q82.88-8.60 82.88-6.32L82.88-6.32Q82.88-3.32 80.28-1.52Q77.68 0.28 73.20 0.28L73.20 0.28Z M102.64-4.72L104.04-1.16Q103.16-0.44 101.90-0.08Q100.64 0.28 99.24 0.28L99.24 0.28Q95.72 0.28 93.80-1.56Q91.88-3.40 91.88-6.92L91.88-6.92L91.88-17.20L88.36-17.20L88.36-21.20L91.88-21.20L91.88-26.08L96.88-26.08L96.88-21.20L102.60-21.20L102.60-17.20L96.88-17.20L96.88-7.04Q96.88-5.48 97.64-4.66Q98.40-3.84 99.84-3.84L99.84-3.84Q101.52-3.84 102.64-4.72L102.64-4.72Z M127.20 0L127.20-21.36L132.20-21.36L132.20 0L127.20 0ZM129.72-24.88Q128.36-24.88 127.44-25.74Q126.52-26.60 126.52-27.88L126.52-27.88Q126.52-29.16 127.44-30.02Q128.36-30.88 129.72-30.88L129.72-30.88Q131.08-30.88 132-30.06Q132.92-29.24 132.92-28L132.92-28Q132.92-26.68 132.02-25.78Q131.12-24.88 129.72-24.88L129.72-24.88Z M154.88-21.60Q158.92-21.60 161.36-19.24Q163.80-16.88 163.80-12.24L163.80-12.24L163.80 0L158.80 0L158.80-11.60Q158.80-14.40 157.48-15.82Q156.16-17.24 153.72-17.24L153.72-17.24Q150.96-17.24 149.36-15.58Q147.76-13.92 147.76-10.80L147.76-10.80L147.76 0L142.76 0L142.76-21.36L147.52-21.36L147.52-18.60Q148.76-20.08 150.64-20.84Q152.52-21.60 154.88-21.60L154.88-21.60Z M195.80 0.28Q193.20 0.28 190.72-0.40Q188.24-1.08 186.76-2.12L186.76-2.12L188.68-5.92Q190.12-4.96 192.14-4.38Q194.16-3.80 196.12-3.80L196.12-3.80Q200.60-3.80 200.60-6.16L200.60-6.16Q200.60-7.28 199.46-7.72Q198.32-8.16 195.80-8.56L195.80-8.56Q193.16-8.96 191.50-9.48Q189.84-10 188.62-11.30Q187.40-12.60 187.40-14.92L187.40-14.92Q187.40-17.96 189.94-19.78Q192.48-21.60 196.80-21.60L196.80-21.60Q199-21.60 201.20-21.10Q203.40-20.60 204.80-19.76L204.80-19.76L202.88-15.96Q200.16-17.56 196.76-17.56L196.76-17.56Q194.56-17.56 193.42-16.90Q192.28-16.24 192.28-15.16L192.28-15.16Q192.28-13.96 193.50-13.46Q194.72-12.96 197.28-12.52L197.28-12.52Q199.84-12.12 201.48-11.60Q203.12-11.08 204.30-9.84Q205.48-8.60 205.48-6.32L205.48-6.32Q205.48-3.32 202.88-1.52Q200.28 0.28 195.80 0.28L195.80 0.28Z M233.88-10.56Q233.88-10.04 233.80-9.08L233.80-9.08L217.04-9.08Q217.48-6.72 219.34-5.34Q221.20-3.96 223.96-3.96L223.96-3.96Q227.48-3.96 229.76-6.28L229.76-6.28L232.44-3.20Q231.00-1.48 228.80-0.60Q226.60 0.28 223.84 0.28L223.84 0.28Q220.32 0.28 217.64-1.12Q214.96-2.52 213.50-5.02Q212.04-7.52 212.04-10.68L212.04-10.68Q212.04-13.80 213.46-16.30Q214.88-18.80 217.40-20.20Q219.92-21.60 223.08-21.60L223.08-21.60Q226.20-21.60 228.66-20.22Q231.12-18.84 232.50-16.34Q233.88-13.84 233.88-10.56L233.88-10.56ZM223.08-17.60Q220.68-17.60 219.02-16.18Q217.36-14.76 217.00-12.40L217.00-12.40L229.12-12.40Q228.80-14.72 227.16-16.16Q225.52-17.60 223.08-17.60L223.08-17.60Z M247.44-18.24Q249.60-21.60 255.04-21.60L255.04-21.60L255.04-16.84Q254.40-16.96 253.88-16.96L253.88-16.96Q250.96-16.96 249.32-15.26Q247.68-13.56 247.68-10.36L247.68-10.36L247.68 0L242.68 0L242.68-21.36L247.44-21.36L247.44-18.24Z M279.28-21.36L284.08-21.36L274.92 0L269.76 0L260.60-21.36L265.80-21.36L272.44-5.52L279.28-21.36Z M291.20 0L291.20-21.36L296.20-21.36L296.20 0L291.20 0ZM293.72-24.88Q292.36-24.88 291.44-25.74Q290.52-26.60 290.52-27.88L290.52-27.88Q290.52-29.16 291.44-30.02Q292.36-30.88 293.72-30.88L293.72-30.88Q295.08-30.88 296-30.06Q296.92-29.24 296.92-28L296.92-28Q296.92-26.68 296.02-25.78Q295.12-24.88 293.72-24.88L293.72-24.88Z M316.56 0.28Q313.24 0.28 310.60-1.12Q307.96-2.52 306.48-5.02Q305-7.52 305-10.68L305-10.68Q305-13.84 306.48-16.32Q307.96-18.80 310.58-20.20Q313.20-21.60 316.56-21.60L316.56-21.60Q319.72-21.60 322.10-20.32Q324.48-19.04 325.68-16.64L325.68-16.64L321.84-14.40Q320.92-15.88 319.54-16.62Q318.16-17.36 316.52-17.36L316.52-17.36Q313.72-17.36 311.88-15.54Q310.04-13.72 310.04-10.68L310.04-10.68Q310.04-7.64 311.86-5.82Q313.68-4 316.52-4L316.52-4Q318.16-4 319.54-4.74Q320.92-5.48 321.84-6.96L321.84-6.96L325.68-4.72Q324.44-2.32 322.06-1.02Q319.68 0.28 316.56 0.28L316.56 0.28Z M353.76-10.56Q353.76-10.04 353.68-9.08L353.68-9.08L336.92-9.08Q337.36-6.72 339.22-5.34Q341.08-3.96 343.84-3.96L343.84-3.96Q347.36-3.96 349.64-6.28L349.64-6.28L352.32-3.20Q350.88-1.48 348.68-0.60Q346.48 0.28 343.72 0.28L343.72 0.28Q340.20 0.28 337.52-1.12Q334.84-2.52 333.38-5.02Q331.92-7.52 331.92-10.68L331.92-10.68Q331.92-13.80 333.34-16.30Q334.76-18.80 337.28-20.20Q339.80-21.60 342.96-21.60L342.96-21.60Q346.08-21.60 348.54-20.22Q351.00-18.84 352.38-16.34Q353.76-13.84 353.76-10.56L353.76-10.56ZM342.96-17.60Q340.56-17.60 338.90-16.18Q337.24-14.76 336.88-12.40L336.88-12.40L349.00-12.40Q348.68-14.72 347.04-16.16Q345.40-17.60 342.96-17.60L342.96-17.60Z M369.16 0.28Q366.56 0.28 364.08-0.40Q361.60-1.08 360.12-2.12L360.12-2.12L362.04-5.92Q363.48-4.96 365.50-4.38Q367.52-3.80 369.48-3.80L369.48-3.80Q373.96-3.80 373.96-6.16L373.96-6.16Q373.96-7.28 372.82-7.72Q371.68-8.16 369.16-8.56L369.16-8.56Q366.52-8.96 364.86-9.48Q363.20-10 361.98-11.30Q360.76-12.60 360.76-14.92L360.76-14.92Q360.76-17.96 363.30-19.78Q365.84-21.60 370.16-21.60L370.16-21.60Q372.36-21.60 374.56-21.10Q376.76-20.60 378.16-19.76L378.16-19.76L376.24-15.96Q373.52-17.56 370.12-17.56L370.12-17.56Q367.92-17.56 366.78-16.90Q365.64-16.24 365.64-15.16L365.64-15.16Q365.64-13.96 366.86-13.46Q368.08-12.96 370.64-12.52L370.64-12.52Q373.20-12.12 374.84-11.60Q376.48-11.08 377.66-9.84Q378.84-8.60 378.84-6.32L378.84-6.32Q378.84-3.32 376.24-1.52Q373.64 0.28 369.16 0.28L369.16 0.28Z M410.36-21.60Q415.08-21.60 417.58-19.34Q420.08-17.08 420.08-12.52L420.08-12.52L420.08 0L415.36 0L415.36-2.60Q414.44-1.20 412.74-0.46Q411.04 0.28 408.64 0.28L408.64 0.28Q406.24 0.28 404.44-0.54Q402.64-1.36 401.66-2.82Q400.68-4.28 400.68-6.12L400.68-6.12Q400.68-9 402.82-10.74Q404.96-12.48 409.56-12.48L409.56-12.48L415.08-12.48L415.08-12.80Q415.08-15.04 413.74-16.24Q412.40-17.44 409.76-17.44L409.76-17.44Q407.96-17.44 406.22-16.88Q404.48-16.32 403.28-15.32L403.28-15.32L401.32-18.96Q403.00-20.24 405.36-20.92Q407.72-21.60 410.36-21.60L410.36-21.60ZM409.68-3.36Q411.56-3.36 413.02-4.22Q414.48-5.08 415.08-6.68L415.08-6.68L415.08-9.16L409.92-9.16Q405.60-9.16 405.60-6.32L405.60-6.32Q405.60-4.96 406.68-4.16Q407.76-3.36 409.68-3.36L409.68-3.36Z M442.60-21.60Q446.64-21.60 449.08-19.24Q451.52-16.88 451.52-12.24L451.52-12.24L451.52 0L446.52 0L446.52-11.60Q446.52-14.40 445.20-15.82Q443.88-17.24 441.44-17.24L441.44-17.24Q438.68-17.24 437.08-15.58Q435.48-13.92 435.48-10.80L435.48-10.80L435.48 0L430.48 0L430.48-21.36L435.24-21.36L435.24-18.60Q436.48-20.08 438.36-20.84Q440.24-21.60 442.60-21.60L442.60-21.60Z M478-29.68L483-29.68L483 0L478.20 0L478.20-2.76Q476.96-1.24 475.14-0.48Q473.32 0.28 471.12 0.28L471.12 0.28Q468.04 0.28 465.58-1.08Q463.12-2.44 461.72-4.94Q460.32-7.44 460.32-10.68L460.32-10.68Q460.32-13.92 461.72-16.40Q463.12-18.88 465.58-20.24Q468.04-21.60 471.12-21.60L471.12-21.60Q473.24-21.60 475-20.88Q476.76-20.16 478-18.72L478-18.72L478-29.68ZM471.72-4Q473.52-4 474.96-4.82Q476.40-5.64 477.24-7.16Q478.08-8.68 478.08-10.68L478.08-10.68Q478.08-12.68 477.24-14.20Q476.40-15.72 474.96-16.54Q473.52-17.36 471.72-17.36L471.72-17.36Q469.92-17.36 468.48-16.54Q467.04-15.72 466.20-14.20Q465.36-12.68 465.36-10.68L465.36-10.68Q465.36-8.68 466.20-7.16Q467.04-5.64 468.48-4.82Q469.92-4 471.72-4L471.72-4Z M505.40-21.60Q508.52-21.60 510.98-20.24Q513.44-18.88 514.84-16.40Q516.24-13.92 516.24-10.68L516.24-10.68Q516.24-7.44 514.84-4.94Q513.44-2.44 510.98-1.08Q508.52 0.28 505.40 0.28L505.40 0.28Q503.20 0.28 501.38-0.48Q499.56-1.24 498.32-2.76L498.32-2.76L498.32 0L493.56 0L493.56-29.68L498.56-29.68L498.56-18.76Q499.84-20.16 501.58-20.88Q503.32-21.60 505.40-21.60L505.40-21.60ZM504.84-4Q507.60-4 509.38-5.84Q511.16-7.68 511.16-10.68L511.16-10.68Q511.16-13.68 509.38-15.52Q507.60-17.36 504.84-17.36L504.84-17.36Q503.04-17.36 501.60-16.54Q500.16-15.72 499.32-14.20Q498.48-12.68 498.48-10.68L498.48-10.68Q498.48-8.68 499.32-7.16Q500.16-5.64 501.60-4.82Q503.04-4 504.84-4L504.84-4Z M545.08-10.56Q545.08-10.04 545-9.08L545-9.08L528.24-9.08Q528.68-6.72 530.54-5.34Q532.40-3.96 535.16-3.96L535.16-3.96Q538.68-3.96 540.96-6.28L540.96-6.28L543.64-3.20Q542.20-1.48 540-0.60Q537.80 0.28 535.04 0.28L535.04 0.28Q531.52 0.28 528.84-1.12Q526.16-2.52 524.70-5.02Q523.24-7.52 523.24-10.68L523.24-10.68Q523.24-13.80 524.66-16.30Q526.08-18.80 528.60-20.20Q531.12-21.60 534.28-21.60L534.28-21.60Q537.40-21.60 539.86-20.22Q542.32-18.84 543.70-16.34Q545.08-13.84 545.08-10.56L545.08-10.56ZM534.28-17.60Q531.88-17.60 530.22-16.18Q528.56-14.76 528.20-12.40L528.20-12.40L540.32-12.40Q540-14.72 538.36-16.16Q536.72-17.60 534.28-17.60L534.28-17.60Z M560.48 0.28Q557.88 0.28 555.40-0.40Q552.92-1.08 551.44-2.12L551.44-2.12L553.36-5.92Q554.80-4.96 556.82-4.38Q558.84-3.80 560.80-3.80L560.80-3.80Q565.28-3.80 565.28-6.16L565.28-6.16Q565.28-7.28 564.14-7.72Q563-8.16 560.48-8.56L560.48-8.56Q557.84-8.96 556.18-9.48Q554.52-10 553.30-11.30Q552.08-12.60 552.08-14.92L552.08-14.92Q552.08-17.96 554.62-19.78Q557.16-21.60 561.48-21.60L561.48-21.60Q563.68-21.60 565.88-21.10Q568.08-20.60 569.48-19.76L569.48-19.76L567.56-15.96Q564.84-17.56 561.44-17.56L561.44-17.56Q559.24-17.56 558.10-16.90Q556.96-16.24 556.96-15.16L556.96-15.16Q556.96-13.96 558.18-13.46Q559.40-12.96 561.96-12.52L561.96-12.52Q564.52-12.12 566.16-11.60Q567.80-11.08 568.98-9.84Q570.16-8.60 570.16-6.32L570.16-6.32Q570.16-3.32 567.56-1.52Q564.96 0.28 560.48 0.28L560.48 0.28Z M589.92-4.72L591.32-1.16Q590.44-0.44 589.18-0.08Q587.92 0.28 586.52 0.28L586.52 0.28Q583 0.28 581.08-1.56Q579.16-3.40 579.16-6.92L579.16-6.92L579.16-17.20L575.64-17.20L575.64-21.20L579.16-21.20L579.16-26.08L584.16-26.08L584.16-21.20L589.88-21.20L589.88-17.20L584.16-17.20L584.16-7.04Q584.16-5.48 584.92-4.66Q585.68-3.84 587.12-3.84L587.12-3.84Q588.80-3.84 589.92-4.72L589.92-4.72Z M630.60-21.36L635.36-21.36L635.36 7.76L630.36 7.76L630.36-2.60Q627.84 0.28 623.52 0.28L623.52 0.28Q620.40 0.28 617.94-1.08Q615.48-2.44 614.10-4.92Q612.72-7.40 612.72-10.68L612.72-10.68Q612.72-13.92 614.12-16.40Q615.52-18.88 617.96-20.24Q620.40-21.60 623.52-21.60L623.52-21.60Q625.72-21.60 627.54-20.84Q629.36-20.08 630.60-18.56L630.60-18.56L630.60-21.36ZM624.08-4Q626.84-4 628.64-5.84Q630.44-7.68 630.44-10.68L630.44-10.68Q630.44-13.68 628.64-15.52Q626.84-17.36 624.08-17.36L624.08-17.36Q621.32-17.36 619.54-15.52Q617.76-13.68 617.76-10.68L617.76-10.68Q617.76-7.68 619.54-5.84Q621.32-4 624.08-4L624.08-4Z M661.60-21.36L666.60-21.36L666.60 0L661.84 0L661.84-2.72Q660.64-1.28 658.84-0.50Q657.04 0.28 654.96 0.28L654.96 0.28Q650.68 0.28 648.22-2.10Q645.76-4.48 645.76-9.16L645.76-9.16L645.76-21.36L650.76-21.36L650.76-9.84Q650.76-6.96 652.06-5.54Q653.36-4.12 655.76-4.12L655.76-4.12Q658.44-4.12 660.02-5.78Q661.60-7.44 661.60-10.56L661.60-10.56L661.60-21.36Z M685.32-21.60Q690.04-21.60 692.54-19.34Q695.04-17.08 695.04-12.52L695.04-12.52L695.04 0L690.32 0L690.32-2.60Q689.40-1.20 687.70-0.46Q686.00 0.28 683.60 0.28L683.60 0.28Q681.20 0.28 679.40-0.54Q677.60-1.36 676.62-2.82Q675.64-4.28 675.64-6.12L675.64-6.12Q675.64-9 677.78-10.74Q679.92-12.48 684.52-12.48L684.52-12.48L690.04-12.48L690.04-12.80Q690.04-15.04 688.70-16.24Q687.36-17.44 684.72-17.44L684.72-17.44Q682.92-17.44 681.18-16.88Q679.44-16.32 678.24-15.32L678.24-15.32L676.28-18.96Q677.96-20.24 680.32-20.92Q682.68-21.60 685.32-21.60L685.32-21.60ZM684.64-3.36Q686.52-3.36 687.98-4.22Q689.44-5.08 690.04-6.68L690.04-6.68L690.04-9.16L684.88-9.16Q680.56-9.16 680.56-6.32L680.56-6.32Q680.56-4.96 681.64-4.16Q682.72-3.36 684.64-3.36L684.64-3.36Z M705.44 0L705.44-29.68L710.44-29.68L710.44 0L705.44 0Z M721 0L721-21.36L726-21.36L726 0L721 0ZM723.52-24.88Q722.16-24.88 721.24-25.74Q720.32-26.60 720.32-27.88L720.32-27.88Q720.32-29.16 721.24-30.02Q722.16-30.88 723.52-30.88L723.52-30.88Q724.88-30.88 725.80-30.06Q726.72-29.24 726.72-28L726.72-28Q726.72-26.68 725.82-25.78Q724.92-24.88 723.52-24.88L723.52-24.88Z M748-4.72L749.40-1.16Q748.52-0.44 747.26-0.08Q746 0.28 744.60 0.28L744.60 0.28Q741.08 0.28 739.16-1.56Q737.24-3.40 737.24-6.92L737.24-6.92L737.24-17.20L733.72-17.20L733.72-21.20L737.24-21.20L737.24-26.08L742.24-26.08L742.24-21.20L747.96-21.20L747.96-17.20L742.24-17.20L742.24-7.04Q742.24-5.48 743-4.66Q743.76-3.84 745.20-3.84L745.20-3.84Q746.88-3.84 748-4.72L748-4.72Z M757.52 0L757.52-21.36L762.52-21.36L762.52 0L757.52 0ZM760.04-24.88Q758.68-24.88 757.76-25.74Q756.84-26.60 756.84-27.88L756.84-27.88Q756.84-29.16 757.76-30.02Q758.68-30.88 760.04-30.88L760.04-30.88Q761.40-30.88 762.32-30.06Q763.24-29.24 763.24-28L763.24-28Q763.24-26.68 762.34-25.78Q761.44-24.88 760.04-24.88L760.04-24.88Z M793.16-10.56Q793.16-10.04 793.08-9.08L793.08-9.08L776.32-9.08Q776.76-6.72 778.62-5.34Q780.48-3.96 783.24-3.96L783.24-3.96Q786.76-3.96 789.04-6.28L789.04-6.28L791.72-3.20Q790.28-1.48 788.08-0.60Q785.88 0.28 783.12 0.28L783.12 0.28Q779.60 0.28 776.92-1.12Q774.24-2.52 772.78-5.02Q771.32-7.52 771.32-10.68L771.32-10.68Q771.32-13.80 772.74-16.30Q774.16-18.80 776.68-20.20Q779.20-21.60 782.36-21.60L782.36-21.60Q785.48-21.60 787.94-20.22Q790.40-18.84 791.78-16.34Q793.16-13.84 793.16-10.56L793.16-10.56ZM782.36-17.60Q779.96-17.60 778.30-16.18Q776.64-14.76 776.28-12.40L776.28-12.40L788.40-12.40Q788.08-14.72 786.44-16.16Q784.80-17.60 782.36-17.60L782.36-17.60Z M808.56 0.28Q805.96 0.28 803.48-0.40Q801-1.08 799.52-2.12L799.52-2.12L801.44-5.92Q802.88-4.96 804.90-4.38Q806.92-3.80 808.88-3.80L808.88-3.80Q813.36-3.80 813.36-6.16L813.36-6.16Q813.36-7.28 812.22-7.72Q811.08-8.16 808.56-8.56L808.56-8.56Q805.92-8.96 804.26-9.48Q802.60-10 801.38-11.30Q800.16-12.60 800.16-14.92L800.16-14.92Q800.16-17.96 802.70-19.78Q805.24-21.60 809.56-21.60L809.56-21.60Q811.76-21.60 813.96-21.10Q816.16-20.60 817.56-19.76L817.56-19.76L815.64-15.96Q812.92-17.56 809.52-17.56L809.52-17.56Q807.32-17.56 806.18-16.90Q805.04-16.24 805.04-15.16L805.04-15.16Q805.04-13.96 806.26-13.46Q807.48-12.96 810.04-12.52L810.04-12.52Q812.60-12.12 814.24-11.60Q815.88-11.08 817.06-9.84Q818.24-8.60 818.24-6.32L818.24-6.32Q818.24-3.32 815.64-1.52Q813.04 0.28 808.56 0.28L808.56 0.28Z"/></g>
</svg>
</g><g opacity="1" transform="rotate(0 148.8101 212.5156)">
<svg width="397.2271" height="38" x="148.8101" y="212.5156" version="1.1" preserveAspectRatio="none" viewBox="3.08 -28.48 302.72 28.96">
  <g transform="matrix(1 0 0 1 0 0)" class="companyName"><path id="id-D6z1nYkh13" d="M15.76 0.48Q9.76 0.48 6.42-2.84Q3.08-6.16 3.08-12.32L3.08-12.32L3.08-28L9.56-28L9.56-12.56Q9.56-5.04 15.80-5.04L15.80-5.04Q18.84-5.04 20.44-6.86Q22.04-8.68 22.04-12.56L22.04-12.56L22.04-28L28.44-28L28.44-12.32Q28.44-6.16 25.10-2.84Q21.76 0.48 15.76 0.48L15.76 0.48Z M59.64 0L52.68 0L47.28-7.80L46.96-7.80L41.32-7.80L41.32 0L34.84 0L34.84-28L46.96-28Q50.68-28 53.42-26.76Q56.16-25.52 57.64-23.24Q59.12-20.96 59.12-17.84L59.12-17.84Q59.12-14.72 57.62-12.46Q56.12-10.20 53.36-9L53.36-9L59.64 0ZM52.56-17.84Q52.56-20.20 51.04-21.46Q49.52-22.72 46.60-22.72L46.60-22.72L41.32-22.72L41.32-12.96L46.60-12.96Q49.52-12.96 51.04-14.24Q52.56-15.52 52.56-17.84L52.56-17.84Z M83.16-6.24L83.16-14.44L89.08-14.44L89.08-3.08Q86.80-1.36 83.80-0.44Q80.80 0.48 77.76 0.48L77.76 0.48Q73.40 0.48 69.92-1.38Q66.44-3.24 64.46-6.54Q62.48-9.84 62.48-14L62.48-14Q62.48-18.16 64.46-21.46Q66.44-24.76 69.96-26.62Q73.48-28.48 77.88-28.48L77.88-28.48Q81.56-28.48 84.56-27.24Q87.56-26 89.60-23.64L89.60-23.64L85.44-19.80Q82.44-22.96 78.20-22.96L78.20-22.96Q75.52-22.96 73.44-21.84Q71.36-20.72 70.20-18.68Q69.04-16.64 69.04-14L69.04-14Q69.04-11.40 70.20-9.36Q71.36-7.32 73.42-6.18Q75.48-5.04 78.12-5.04L78.12-5.04Q80.92-5.04 83.16-6.24L83.16-6.24Z M101.52-5.20L116.76-5.20L116.76 0L95.08 0L95.08-28L116.24-28L116.24-22.80L101.52-22.80L101.52-16.72L114.52-16.72L114.52-11.68L101.52-11.68L101.52-5.20Z M141.20-28L147.60-28L147.60 0L142.28 0L128.32-17L128.32 0L121.92 0L121.92-28L127.28-28L141.20-11L141.20-28Z M160.04 0L160.04-22.72L151.08-22.72L151.08-28L175.48-28L175.48-22.72L166.52-22.72L166.52 0L160.04 0Z M196.08 0L196.08-22.72L187.12-22.72L187.12-28L211.52-28L211.52-22.72L202.56-22.72L202.56 0L196.08 0Z M234.52 0L232.04-6L219.04-6L216.56 0L209.92 0L222.40-28L228.80-28L241.32 0L234.52 0ZM221.12-10.92L230-10.92L225.56-21.64L221.12-10.92Z M267.92 0L260.44 0L253.68-9.72L247.04 0L239.60 0L249.96-14.24L240.12-28L247.48-28L253.92-18.92L260.24-28L267.24-28L257.48-14.48L267.92 0Z M270.48 0L270.48-28L276.96-28L276.96 0L270.48 0Z M292.80 0.48Q289.48 0.48 286.38-0.42Q283.28-1.32 281.40-2.76L281.40-2.76L283.60-7.64Q285.40-6.32 287.88-5.52Q290.36-4.72 292.84-4.72L292.84-4.72Q295.60-4.72 296.92-5.54Q298.24-6.36 298.24-7.72L298.24-7.72Q298.24-8.72 297.46-9.38Q296.68-10.04 295.46-10.44Q294.24-10.84 292.16-11.32L292.16-11.32Q288.96-12.08 286.92-12.84Q284.88-13.60 283.42-15.28Q281.96-16.96 281.96-19.76L281.96-19.76Q281.96-22.20 283.28-24.18Q284.60-26.16 287.26-27.32Q289.92-28.48 293.76-28.48L293.76-28.48Q296.44-28.48 299-27.84Q301.56-27.20 303.48-26L303.48-26L301.48-21.08Q297.60-23.28 293.72-23.28L293.72-23.28Q291.00-23.28 289.70-22.40Q288.40-21.52 288.40-20.08L288.40-20.08Q288.40-18.64 289.90-17.94Q291.40-17.24 294.48-16.56L294.48-16.56Q297.68-15.80 299.72-15.04Q301.76-14.28 303.22-12.64Q304.68-11 304.68-8.20L304.68-8.20Q304.68-5.80 303.34-3.82Q302-1.84 299.32-0.68Q296.64 0.48 292.80 0.48L292.80 0.48Z"/></g>
</svg>
</g><g opacity="1" transform="rotate(0 128.8101 185.5156)">
<svg width="4" height="121.48" x="128.8101" y="185.5156" version="1.1" preserveAspectRatio="none" viewBox="0 0 4 121.48">
  <rect x="0" y="0" width="4" height="121.48" class="companyName shapeStroke-str" style="stroke-width:0;" rx="0px" ry="0px" />
</svg>
</g></svg></svg>